<mxfile host="app.diagrams.net" modified="2023-11-14T23:17:55.439Z" agent="Mozilla/5.0 (Macintosh; Intel Mac OS X 10_15_7) AppleWebKit/537.36 (KHTML, like Gecko) Chrome/119.0.0.0 Safari/537.36" etag="wvXMvEjP5T6KdAgTz6XC" version="22.1.1" type="github" pages="3">
  <diagram name="Page-1" id="_62xb9bUHAfZx9KMgKqK">
    <mxGraphModel dx="1781" dy="546" grid="1" gridSize="10" guides="1" tooltips="1" connect="1" arrows="1" fold="1" page="1" pageScale="1" pageWidth="827" pageHeight="1169" math="0" shadow="0">
      <root>
        <mxCell id="0" />
        <mxCell id="1" parent="0" />
        <mxCell id="ZsymLJbUCGqxXTFId5Gc-34" value="" style="shape=image;verticalLabelPosition=bottom;labelBackgroundColor=default;verticalAlign=top;aspect=fixed;imageAspect=0;image=data:image/png,iVBORw0KGgoAAAANSUhEUgAABUQAAAIACAYAAABKEmajAAABPmlDQ1BJQ0MgUHJvZmlsZQAAKJFjYGDiSSwoyGFhYGDIzSspCnJ3UoiIjFJgf87AxSDJIMogzGCYmFxc4BgQ4ANUwgCjUcG3awyMIPqyLsisBUUqj88+tdx6NZd3QZ6W70ZM9SiAKyW1OBlI/wHi+OSCohIGBsYYIFu5vKQAxG4AskWKgI4CsqeA2OkQ9goQOwnC3gNWExLkDGRfALIFkjMSU4DsB0C2ThKSeDoSG2ovCLB6uPh6EnAnyaAktaIERDvnF1QWZaZnlCg4AkMnVcEzL1lPR8HIwMiYgQEU1hDVn8+Dw5BRIgkh1vSegcHWACj4GCEWLMvAsP41A4PQPISYwikg/ykDw741BYlFiXAHMH5jKU4zNoKweaSA3jzw//+n/wwM7AkMDH/P/f//e8b//3+nMTAwf2Fg2O8HAAl8X8bFURYAAAAAlmVYSWZNTQAqAAAACAAFARIAAwAAAAEAAQAAARoABQAAAAEAAABKARsABQAAAAEAAABSASgAAwAAAAEAAgAAh2kABAAAAAEAAABaAAAAAAAAAJAAAAABAAAAkAAAAAEAA5KGAAcAAAASAAAAhKACAAQAAAABAAAFRKADAAQAAAABAAACAAAAAABBU0NJSQAAAFNjcmVlbnNob3RzQAQwAAAACXBIWXMAABYlAAAWJQFJUiTwAAAC3GlUWHRYTUw6Y29tLmFkb2JlLnhtcAAAAAAAPHg6eG1wbWV0YSB4bWxuczp4PSJhZG9iZTpuczptZXRhLyIgeDp4bXB0az0iWE1QIENvcmUgNi4wLjAiPgogICA8cmRmOlJERiB4bWxuczpyZGY9Imh0dHA6Ly93d3cudzMub3JnLzE5OTkvMDIvMjItcmRmLXN5bnRheC1ucyMiPgogICAgICA8cmRmOkRlc2NyaXB0aW9uIHJkZjphYm91dD0iIgogICAgICAgICAgICB4bWxuczpleGlmPSJodHRwOi8vbnMuYWRvYmUuY29tL2V4aWYvMS4wLyIKICAgICAgICAgICAgeG1sbnM6dGlmZj0iaHR0cDovL25zLmFkb2JlLmNvbS90aWZmLzEuMC8iPgogICAgICAgICA8ZXhpZjpVc2VyQ29tbWVudD5TY3JlZW5zaG90PC9leGlmOlVzZXJDb21tZW50PgogICAgICAgICA8ZXhpZjpQaXhlbFhEaW1lbnNpb24+MTM0ODwvZXhpZjpQaXhlbFhEaW1lbnNpb24+CiAgICAgICAgIDxleGlmOlBpeGVsWURpbWVuc2lvbj41MTI8L2V4aWY6UGl4ZWxZRGltZW5zaW9uPgogICAgICAgICA8dGlmZjpSZXNvbHV0aW9uVW5pdD4yPC90aWZmOlJlc29sdXRpb25Vbml0PgogICAgICAgICA8dGlmZjpYUmVzb2x1dGlvbj4xNDQvMTwvdGlmZjpYUmVzb2x1dGlvbj4KICAgICAgICAgPHRpZmY6WVJlc29sdXRpb24+MTQ0LzE8L3RpZmY6WVJlc29sdXRpb24+CiAgICAgICAgIDx0aWZmOk9yaWVudGF0aW9uPjE8L3RpZmY6T3JpZW50YXRpb24+CiAgICAgIDwvcmRmOkRlc2NyaXB0aW9uPgogICA8L3JkZjpSREY+CjwveDp4bXBtZXRhPgraPOvTAAAzQ0lEQVR4Ae3YsQ0AIRADwefbQCKl/wpBoo2d68Djizzm2udzBAgQIECAAAECBAgQIECAAAECBAgQCAj8gYwiEiBAgAABAgQIECBAgAABAgQIECBA4AkYRD0CAQIECBAgQIAAAQIECBAgQIAAAQIZAYNopmpBCRAgQIAAAQIECBAgQIAAAQIECBAwiPoBAgQIECBAgAABAgQIECBAgAABAgQyAgbRTNWCEiBAgAABAgQIECBAgAABAgQIECBgEPUDBAgQIECAAAECBAgQIECAAAECBAhkBAyimaoFJUCAAAECBAgQIECAAAECBAgQIEDAIOoHCBAgQIAAAQIECBAgQIAAAQIECBDICBhEM1ULSoAAAQIECBAgQIAAAQIECBAgQICAQdQPECBAgAABAgQIECBAgAABAgQIECCQETCIZqoWlAABAgQIECBAgAABAgQIECBAgAABg6gfIECAAAECBAgQIECAAAECBAgQIEAgI2AQzVQtKAECBAgQIECAAAECBAgQIECAAAECBlE/QIAAAQIECBAgQIAAAQIECBAgQIBARsAgmqlaUAIECBAgQIAAAQIECBAgQIAAAQIEDKJ+gAABAgQIECBAgAABAgQIECBAgACBjIBBNFO1oAQIECBAgAABAgQIECBAgAABAgQIGET9AAECBAgQIECAAAECBAgQIECAAAECGQGDaKZqQQkQIECAAAECBAgQIECAAAECBAgQMIj6AQIECBAgQIAAAQIECBAgQIAAAQIEMgIG0UzVghIgQIAAAQIECBAgQIAAAQIECBAgYBD1AwQIECBAgAABAgQIECBAgAABAgQIZAQMopmqBSVAgAABAgQIECBAgAABAgQIECBAwCDqBwgQIECAAAECBAgQIECAAAECBAgQyAgYRDNVC0qAAAECBAgQIECAAAECBAgQIECAgEHUDxAgQIAAAQIECBAgQIAAAQIECBAgkBEwiGaqFpQAAQIECBAgQIAAAQIECBAgQIAAAYOoHyBAgAABAgQIECBAgAABAgQIECBAICNgEM1ULSgBAgQIECBAgAABAgQIECBAgAABAgZRP0CAAAECBAgQIECAAAECBAgQIECAQEbAIJqpWlACBAgQIECAAAECBAgQIECAAAECBAyifoAAAQIECBAgQIAAAQIECBAgQIAAgYyAQTRTtaAECBAgQIAAAQIECBAgQIAAAQIECBhE/QABAgQIECBAgAABAgQIECBAgAABAhkBg2imakEJECBAgAABAgQIECBAgAABAgQIEDCI+gECBAgQIECAAAECBAgQIECAAAECBDICBtFM1YISIECAAAECBAgQIECAAAECBAgQIGAQ9QMECBAgQIAAAQIECBAgQIAAAQIECGQEDKKZqgUlQIAAAQIECBAgQIAAAQIECBAgQMAg6gcIECBAgAABAgQIECBAgAABAgQIEMgIGEQzVQtKgAABAgQIECBAgAABAgQIECBAgIBB1A8QIECAAAECBAgQIECAAAECBAgQIJARMIhmqhaUAAECBAgQIECAAAECBAgQIECAAAGDqB8gQIAAAQIECBAgQIAAAQIECBAgQCAjYBDNVC0oAQIECBAgQIAAAQIECBAgQIAAAQIGUT9AgAABAgQIECBAgAABAgQIECBAgEBGwCCaqVpQAgQIECBAgAABAgQIECBAgAABAgQMon6AAAECBAgQIECAAAECBAgQIECAAIGMgEE0U7WgBAgQIECAAAECBAgQIECAAAECBAgYRP0AAQIECBAgQIAAAQIECBAgQIAAAQIZAYNopmpBCRAgQIAAAQIECBAgQIAAAQIECBAwiPoBAgQIECBAgAABAgQIECBAgAABAgQyAgbRTNWCEiBAgAABAgQIECBAgAABAgQIECBgEPUDBAgQIECAAAECBAgQIECAAAECBAhkBAyimaoFJUCAAAECBAgQIECAAAECBAgQIEDAIOoHCBAgQIAAAQIECBAgQIAAAQIECBDICBhEM1ULSoAAAQIECBAgQIAAAQIECBAgQICAQdQPECBAgAABAgQIECBAgAABAgQIECCQETCIZqoWlAABAgQIECBAgAABAgQIECBAgAABg6gfIECAAAECBAgQIECAAAECBAgQIEAgI2AQzVQtKAECBAgQIECAAAECBAgQIECAAAECBlE/QIAAAQIECBAgQIAAAQIECBAgQIBARsAgmqlaUAIECBAgQIAAAQIECBAgQIAAAQIEDKJ+gAABAgQIECBAgAABAgQIECBAgACBjIBBNFO1oAQIECBAgAABAgQIECBAgAABAgQIGET9AAECBAgQIECAAAECBAgQIECAAAECGQGDaKZqQQkQIECAAAECBAgQIECAAAECBAgQMIj6AQIECBAgQIAAAQIECBAgQIAAAQIEMgIG0UzVghIgQIAAAQIECBAgQIAAAQIECBAgYBD1AwQIECBAgAABAgQIECBAgAABAgQIZAQMopmqBSVAgAABAgQIECBAgAABAgQIECBAwCDqBwgQIECAAAECBAgQIECAAAECBAgQyAgYRDNVC0qAAAECBAgQIECAAAECBAgQIECAgEHUDxAgQIAAAQIECBAgQIAAAQIECBAgkBEwiGaqFpQAAQIECBAgQIAAAQIECBAgQIAAAYOoHyBAgAABAgQIECBAgAABAgQIECBAICNgEM1ULSgBAgQIECBAgAABAgQIECBAgAABAgZRP0CAAAECBAgQIECAAAECBAgQIECAQEbAIJqpWlACBAgQIECAAAECBAgQIECAAAECBAyifoAAAQIECBAgQIAAAQIECBAgQIAAgYyAQTRTtaAECBAgQIAAAQIECBAgQIAAAQIECBhE/QABAgQIECBAgAABAgQIECBAgAABAhkBg2imakEJECBAgAABAgQIECBAgAABAgQIEDCI+gECBAgQIECAAAECBAgQIECAAAECBDICBtFM1YISIECAAAECBAgQIECAAAECBAgQIGAQ9QMECBAgQIAAAQIECBAgQIAAAQIECGQEDKKZqgUlQIAAAQIECBAgQIAAAQIECBAgQMAg6gcIECBAgAABAgQIECBAgAABAgQIEMgIGEQzVQtKgAABAgQIECBAgAABAgQIECBAgIBB1A8QIECAAAECBAgQIECAAAECBAgQIJARMIhmqhaUAAECBAgQIECAAAECBAgQIECAAAGDqB8gQIAAAQIECBAgQIAAAQIECBAgQCAjYBDNVC0oAQIECBAgQIAAAQIECBAgQIAAAQIGUT9AgAABAgQIECBAgAABAgQIECBAgEBGwCCaqVpQAgQIECBAgAABAgQIECBAgAABAgQMon6AAAECBAgQIECAAAECBAgQIECAAIGMgEE0U7WgBAgQIECAAAECBAgQIECAAAECBAgYRP0AAQIECBAgQIAAAQIECBAgQIAAAQIZAYNopmpBCRAgQIAAAQIECBAgQIAAAQIECBAwiPoBAgQIECBAgAABAgQIECBAgAABAgQyAgbRTNWCEiBAgAABAgQIECBAgAABAgQIECBgEPUDBAgQIECAAAECBAgQIECAAAECBAhkBAyimaoFJUCAAAECBAgQIECAAAECBAgQIEDAIOoHCBAgQIAAAQIECBAgQIAAAQIECBDICBhEM1ULSoAAAQIECBAgQIAAAQIECBAgQICAQdQPECBAgAABAgQIECBAgAABAgQIECCQETCIZqoWlAABAgQIECBAgAABAgQIECBAgAABg6gfIECAAAECBAgQIECAAAECBAgQIEAgI2AQzVQtKAECBAgQIECAAAECBAgQIECAAAECBlE/QIAAAQIECBAgQIAAAQIECBAgQIBARsAgmqlaUAIECBAgQIAAAQIECBAgQIAAAQIEDKJ+gAABAgQIECBAgAABAgQIECBAgACBjIBBNFO1oAQIECBAgAABAgQIECBAgAABAgQIGET9AAECBAgQIECAAAECBAgQIECAAAECGQGDaKZqQQkQIECAAAECBAgQIECAAAECBAgQMIj6AQIECBAgQIAAAQIECBAgQIAAAQIEMgIG0UzVghIgQIAAAQIECBAgQIAAAQIECBAgYBD1AwQIECBAgAABAgQIECBAgAABAgQIZAQMopmqBSVAgAABAgQIECBAgAABAgQIECBAwCDqBwgQIECAAAECBAgQIECAAAECBAgQyAgYRDNVC0qAAAECBAgQIECAAAECBAgQIECAgEHUDxAgQIAAAQIECBAgQIAAAQIECBAgkBEwiGaqFpQAAQIECBAgQIAAAQIECBAgQIAAAYOoHyBAgAABAgQIECBAgAABAgQIECBAICNgEM1ULSgBAgQIECBAgAABAgQIECBAgAABAgZRP0CAAAECBAgQIECAAAECBAgQIECAQEbAIJqpWlACBAgQIECAAAECBAgQIECAAAECBAyifoAAAQIECBAgQIAAAQIECBAgQIAAgYyAQTRTtaAECBAgQIAAAQIECBAgQIAAAQIECBhE/QABAgQIECBAgAABAgQIECBAgAABAhkBg2imakEJECBAgAABAgQIECBAgAABAgQIEDCI+gECBAgQIECAAAECBAgQIECAAAECBDICBtFM1YISIECAAAECBAgQIECAAAECBAgQIGAQ9QMECBAgQIAAAQIECBAgQIAAAQIECGQEDKKZqgUlQIAAAQIECBAgQIAAAQIECBAgQMAg6gcIECBAgAABAgQIECBAgAABAgQIEMgIGEQzVQtKgAABAgQIECBAgAABAgQIECBAgIBB1A8QIECAAAECBAgQIECAAAECBAgQIJARMIhmqhaUAAECBAgQIECAAAECBAgQIECAAAGDqB8gQIAAAQIECBAgQIAAAQIECBAgQCAjYBDNVC0oAQIECBAgQIAAAQIECBAgQIAAAQIGUT9AgAABAgQIECBAgAABAgQIECBAgEBGwCCaqVpQAgQIECBAgAABAgQIECBAgAABAgQMon6AAAECBAgQIECAAAECBAgQIECAAIGMgEE0U7WgBAgQIECAAAECBAgQIECAAAECBAgYRP0AAQIECBAgQIAAAQIECBAgQIAAAQIZAYNopmpBCRAgQIAAAQIECBAgQIAAAQIECBAwiPoBAgQIECBAgAABAgQIECBAgAABAgQyAgbRTNWCEiBAgAABAgQIECBAgAABAgQIECBgEPUDBAgQIECAAAECBAgQIECAAAECBAhkBAyimaoFJUCAAAECBAgQIECAAAECBAgQIEDAIOoHCBAgQIAAAQIECBAgQIAAAQIECBDICBhEM1ULSoAAAQIECBAgQIAAAQIECBAgQICAQdQPECBAgAABAgQIECBAgAABAgQIECCQETCIZqoWlAABAgQIECBAgAABAgQIECBAgAABg6gfIECAAAECBAgQIECAAAECBAgQIEAgI2AQzVQtKAECBAgQIECAAAECBAgQIECAAAECBlE/QIAAAQIECBAgQIAAAQIECBAgQIBARsAgmqlaUAIECBAgQIAAAQIECBAgQIAAAQIEDKJ+gAABAgQIECBAgAABAgQIECBAgACBjIBBNFO1oAQIECBAgAABAgQIECBAgAABAgQIGET9AAECBAgQIECAAAECBAgQIECAAAECGQGDaKZqQQkQIECAAAECBAgQIECAAAECBAgQMIj6AQIECBAgQIAAAQIECBAgQIAAAQIEMgIG0UzVghIgQIAAAQIECBAgQIAAAQIECBAgYBD1AwQIECBAgAABAgQIECBAgAABAgQIZAQMopmqBSVAgAABAgQIECBAgAABAgQIECBAwCDqBwgQIECAAAECBAgQIECAAAECBAgQyAgYRDNVC0qAAAECBAgQIECAAAECBAgQIECAgEHUDxAgQIAAAQIECBAgQIAAAQIECBAgkBEwiGaqFpQAAQIECBAgQIAAAQIECBAgQIAAAYOoHyBAgAABAgQIECBAgAABAgQIECBAICNgEM1ULSgBAgQIECBAgAABAgQIECBAgAABAgZRP0CAAAECBAgQIECAAAECBAgQIECAQEbAIJqpWlACBAgQIECAAAECBAgQIECAAAECBAyifoAAAQIECBAgQIAAAQIECBAgQIAAgYyAQTRTtaAECBAgQIAAAQIECBAgQIAAAQIECBhE/QABAgQIECBAgAABAgQIECBAgAABAhkBg2imakEJECBAgAABAgQIECBAgAABAgQIEDCI+gECBAgQIECAAAECBAgQIECAAAECBDICBtFM1YISIECAAAECBAgQIECAAAECBAgQIGAQ9QMECBAgQIAAAQIECBAgQIAAAQIECGQEDKKZqgUlQIAAAQIECBAgQIAAAQIECBAgQMAg6gcIECBAgAABAgQIECBAgAABAgQIEMgIGEQzVQtKgAABAgQIECBAgAABAgQIECBAgIBB1A8QIECAAAECBAgQIECAAAECBAgQIJARMIhmqhaUAAECBAgQIECAAAECBAgQIECAAAGDqB8gQIAAAQIECBAgQIAAAQIECBAgQCAjYBDNVC0oAQIECBAgQIAAAQIECBAgQIAAAQIGUT9AgAABAgQIECBAgAABAgQIECBAgEBGwCCaqVpQAgQIECBAgAABAgQIECBAgAABAgQMon6AAAECBAgQIECAAAECBAgQIECAAIGMgEE0U7WgBAgQIECAAAECBAgQIECAAAECBAgYRP0AAQIECBAgQIAAAQIECBAgQIAAAQIZAYNopmpBCRAgQIAAAQIECBAgQIAAAQIECBAwiPoBAgQIECBAgAABAgQIECBAgAABAgQyAgbRTNWCEiBAgAABAgQIECBAgAABAgQIECBgEPUDBAgQIECAAAECBAgQIECAAAECBAhkBAyimaoFJUCAAAECBAgQIECAAAECBAgQIEDAIOoHCBAgQIAAAQIECBAgQIAAAQIECBDICBhEM1ULSoAAAQIECBAgQIAAAQIECBAgQICAQdQPECBAgAABAgQIECBAgAABAgQIECCQETCIZqoWlAABAgQIECBAgAABAgQIECBAgAABg6gfIECAAAECBAgQIECAAAECBAgQIEAgI2AQzVQtKAECBAgQIECAAAECBAgQIECAAAECBlE/QIAAAQIECBAgQIAAAQIECBAgQIBARsAgmqlaUAIECBAgQIAAAQIECBAgQIAAAQIEDKJ+gAABAgQIECBAgAABAgQIECBAgACBjIBBNFO1oAQIECBAgAABAgQIECBAgAABAgQIGET9AAECBAgQIECAAAECBAgQIECAAAECGQGDaKZqQQkQIECAAAECBAgQIECAAAECBAgQMIj6AQIECBAgQIAAAQIECBAgQIAAAQIEMgIG0UzVghIgQIAAAQIECBAgQIAAAQIECBAgYBD1AwQIECBAgAABAgQIECBAgAABAgQIZAQMopmqBSVAgAABAgQIECBAgAABAgQIECBAwCDqBwgQIECAAAECBAgQIECAAAECBAgQyAgYRDNVC0qAAAECBAgQIECAAAECBAgQIECAgEHUDxAgQIAAAQIECBAgQIAAAQIECBAgkBEwiGaqFpQAAQIECBAgQIAAAQIECBAgQIAAAYOoHyBAgAABAgQIECBAgAABAgQIECBAICNgEM1ULSgBAgQIECBAgAABAgQIECBAgAABAgZRP0CAAAECBAgQIECAAAECBAgQIECAQEbAIJqpWlACBAgQIECAAAECBAgQIECAAAECBAyifoAAAQIECBAgQIAAAQIECBAgQIAAgYyAQTRTtaAECBAgQIAAAQIECBAgQIAAAQIECBhE/QABAgQIECBAgAABAgQIECBAgAABAhkBg2imakEJECBAgAABAgQIECBAgAABAgQIEDCI+gECBAgQIECAAAECBAgQIECAAAECBDICBtFM1YISIECAAAECBAgQIECAAAECBAgQIGAQ9QMECBAgQIAAAQIECBAgQIAAAQIECGQEDKKZqgUlQIAAAQIECBAgQIAAAQIECBAgQMAg6gcIECBAgAABAgQIECBAgAABAgQIEMgIGEQzVQtKgAABAgQIECBAgAABAgQIECBAgIBB1A8QIECAAAECBAgQIECAAAECBAgQIJARMIhmqhaUAAECBAgQIECAAAECBAgQIECAAAGDqB8gQIAAAQIECBAgQIAAAQIECBAgQCAjYBDNVC0oAQIECBAgQIAAAQIECBAgQIAAAQIGUT9AgAABAgQIECBAgAABAgQIECBAgEBGwCCaqVpQAgQIECBAgAABAgQIECBAgAABAgQMon6AAAECBAgQIECAAAECBAgQIECAAIGMgEE0U7WgBAgQIECAAAECBAgQIECAAAECBAgYRP0AAQIECBAgQIAAAQIECBAgQIAAAQIZAYNopmpBCRAgQIAAAQIECBAgQIAAAQIECBAwiPoBAgQIECBAgAABAgQIECBAgAABAgQyAgbRTNWCEiBAgAABAgQIECBAgAABAgQIECBgEPUDBAgQIECAAAECBAgQIECAAAECBAhkBAyimaoFJUCAAAECBAgQIECAAAECBAgQIEDAIOoHCBAgQIAAAQIECBAgQIAAAQIECBDICBhEM1ULSoAAAQIECBAgQIAAAQIECBAgQICAQdQPECBAgAABAgQIECBAgAABAgQIECCQETCIZqoWlAABAgQIECBAgAABAgQIECBAgAABg6gfIECAAAECBAgQIECAAAECBAgQIEAgI2AQzVQtKAECBAgQIECAAAECBAgQIECAAAECBlE/QIAAAQIECBAgQIAAAQIECBAgQIBARsAgmqlaUAIECBAgQIAAAQIECBAgQIAAAQIEDKJ+gAABAgQIECBAgAABAgQIECBAgACBjIBBNFO1oAQIECBAgAABAgQIECBAgAABAgQIGET9AAECBAgQIECAAAECBAgQIECAAAECGQGDaKZqQQkQIECAAAECBAgQIECAAAECBAgQMIj6AQIECBAgQIAAAQIECBAgQIAAAQIEMgIG0UzVghIgQIAAAQIECBAgQIAAAQIECBAgYBD1AwQIECBAgAABAgQIECBAgAABAgQIZAQMopmqBSVAgAABAgQIECBAgAABAgQIECBAwCDqBwgQIECAAAECBAgQIECAAAECBAgQyAgYRDNVC0qAAAECBAgQIECAAAECBAgQIECAgEHUDxAgQIAAAQIECBAgQIAAAQIECBAgkBEwiGaqFpQAAQIECBAgQIAAAQIECBAgQIAAAYOoHyBAgAABAgQIECBAgAABAgQIECBAICNgEM1ULSgBAgQIECBAgAABAgQIECBAgAABAgZRP0CAAAECBAgQIECAAAECBAgQIECAQEbAIJqpWlACBAgQIECAAAECBAgQIECAAAECBAyifoAAAQIECBAgQIAAAQIECBAgQIAAgYyAQTRTtaAECBAgQIAAAQIECBAgQIAAAQIECBhE/QABAgQIECBAgAABAgQIECBAgAABAhkBg2imakEJECBAgAABAgQIECBAgAABAgQIEDCI+gECBAgQIECAAAECBAgQIECAAAECBDICBtFM1YISIECAAAECBAgQIECAAAECBAgQIGAQ9QMECBAgQIAAAQIECBAgQIAAAQIECGQEDKKZqgUlQIAAAQIECBAgQIAAAQIECBAgQMAg6gcIECBAgAABAgQIECBAgAABAgQIEMgIGEQzVQtKgAABAgQIECBAgAABAgQIECBAgIBB1A8QIECAAAECBAgQIECAAAECBAgQIJARMIhmqhaUAAECBAgQIECAAAECBAgQIECAAAGDqB8gQIAAAQIECBAgQIAAAQIECBAgQCAjYBDNVC0oAQIECBAgQIAAAQIECBAgQIAAAQIGUT9AgAABAgQIECBAgAABAgQIECBAgEBGwCCaqVpQAgQIECBAgAABAgQIECBAgAABAgQMon6AAAECBAgQIECAAAECBAgQIECAAIGMgEE0U7WgBAgQIECAAAECBAgQIECAAAECBAgYRP0AAQIECBAgQIAAAQIECBAgQIAAAQIZAYNopmpBCRAgQIAAAQIECBAgQIAAAQIECBAwiPoBAgQIECBAgAABAgQIECBAgAABAgQyAgbRTNWCEiBAgAABAgQIECBAgAABAgQIECBgEPUDBAgQIECAAAECBAgQIECAAAECBAhkBAyimaoFJUCAAAECBAgQIECAAAECBAgQIEDAIOoHCBAgQIAAAQIECBAgQIAAAQIECBDICBhEM1ULSoAAAQIECBAgQIAAAQIECBAgQICAQdQPECBAgAABAgQIECBAgAABAgQIECCQETCIZqoWlAABAgQIECBAgAABAgQIECBAgAABg6gfIECAAAECBAgQIECAAAECBAgQIEAgI2AQzVQtKAECBAgQIECAAAECBAgQIECAAAECBlE/QIAAAQIECBAgQIAAAQIECBAgQIBARsAgmqlaUAIECBAgQIAAAQIECBAgQIAAAQIEDKJ+gAABAgQIECBAgAABAgQIECBAgACBjIBBNFO1oAQIECBAgAABAgQIECBAgAABAgQIGET9AAECBAgQIECAAAECBAgQIECAAAECGQGDaKZqQQkQIECAAAECBAgQIECAAAECBAgQMIj6AQIECBAgQIAAAQIECBAgQIAAAQIEMgIG0UzVghIgQIAAAQIECBAgQIAAAQIECBAgYBD1AwQIECBAgAABAgQIECBAgAABAgQIZAQMopmqBSVAgAABAgQIECBAgAABAgQIECBAwCDqBwgQIECAAAECBAgQIECAAAECBAgQyAgYRDNVC0qAAAECBAgQIECAAAECBAgQIECAgEHUDxAgQIAAAQIECBAgQIAAAQIECBAgkBEwiGaqFpQAAQIECBAgQIAAAQIECBAgQIAAAYOoHyBAgAABAgQIECBAgAABAgQIECBAICNgEM1ULSgBAgQIECBAgAABAgQIECBAgAABAgZRP0CAAAECBAgQIECAAAECBAgQIECAQEbAIJqpWlACBAgQIECAAAECBAgQIECAAAECBAyifoAAAQIECBAgQIAAAQIECBAgQIAAgYyAQTRTtaAECBAgQIAAAQIECBAgQIAAAQIECBhE/QABAgQIECBAgAABAgQIECBAgAABAhkBg2imakEJECBAgAABAgQIECBAgAABAgQIEDCI+gECBAgQIECAAAECBAgQIECAAAECBDICBtFM1YISIECAAAECBAgQIECAAAECBAgQIGAQ9QMECBAgQIAAAQIECBAgQIAAAQIECGQEDKKZqgUlQIAAAQIECBAgQIAAAQIECBAgQMAg6gcIECBAgAABAgQIECBAgAABAgQIEMgIGEQzVQtKgAABAgQIECBAgAABAgQIECBAgIBB1A8QIECAAAECBAgQIECAAAECBAgQIJARMIhmqhaUAAECBAgQIECAAAECBAgQIECAAAGDqB8gQIAAAQIECBAgQIAAAQIECBAgQCAjYBDNVC0oAQIECBAgQIAAAQIECBAgQIAAAQIGUT9AgAABAgQIECBAgAABAgQIECBAgEBGwCCaqVpQAgQIECBAgAABAgQIECBAgAABAgQMon6AAAECBAgQIECAAAECBAgQIECAAIGMgEE0U7WgBAgQIECAAAECBAgQIECAAAECBAgYRP0AAQIECBAgQIAAAQIECBAgQIAAAQIZAYNopmpBCRAgQIAAAQIECBAgQIAAAQIECBAwiPoBAgQIECBAgAABAgQIECBAgAABAgQyAgbRTNWCEiBAgAABAgQIECBAgAABAgQIECBgEPUDBAgQIECAAAECBAgQIECAAAECBAhkBAyimaoFJUCAAAECBAgQIECAAAECBAgQIEDAIOoHCBAgQIAAAQIECBAgQIAAAQIECBDICBhEM1ULSoAAAQIECBAgQIAAAQIECBAgQICAQdQPECBAgAABAgQIECBAgAABAgQIECCQETCIZqoWlAABAgQIECBAgAABAgQIECBAgAABg6gfIECAAAECBAgQIECAAAECBAgQIEAgI2AQzVQtKAECBAgQIECAAAECBAgQIECAAAECBlE/QIAAAQIECBAgQIAAAQIECBAgQIBARsAgmqlaUAIECBAgQIAAAQIECBAgQIAAAQIEDKJ+gAABAgQIECBAgAABAgQIECBAgACBjIBBNFO1oAQIECBAgAABAgQIECBAgAABAgQIGET9AAECBAgQIECAAAECBAgQIECAAAECGQGDaKZqQQkQIECAAAECBAgQIECAAAECBAgQMIj6AQIECBAgQIAAAQIECBAgQIAAAQIEMgIG0UzVghIgQIAAAQIECBAgQIAAAQIECBAgYBD1AwQIECBAgAABAgQIECBAgAABAgQIZAQMopmqBSVAgAABAgQIECBAgAABAgQIECBAwCDqBwgQIECAAAECBAgQIECAAAECBAgQyAgYRDNVC0qAAAECBAgQIECAAAECBAgQIECAgEHUDxAgQIAAAQIECBAgQIAAAQIECBAgkBEwiGaqFpQAAQIECBAgQIAAAQIECBAgQIAAAYOoHyBAgAABAgQIECBAgAABAgQIECBAICNgEM1ULSgBAgQIECBAgAABAgQIECBAgAABAgZRP0CAAAECBAgQIECAAAECBAgQIECAQEbAIJqpWlACBAgQIECAAAECBAgQIECAAAECBAyifoAAAQIECBAgQIAAAQIECBAgQIAAgYyAQTRTtaAECBAgQIAAAQIECBAgQIAAAQIECBhE/QABAgQIECBAgAABAgQIECBAgAABAhkBg2imakEJECBAgAABAgQIECBAgAABAgQIEDCI+gECBAgQIECAAAECBAgQIECAAAECBDICBtFM1YISIECAAAECBAgQIECAAAECBAgQIGAQ9QMECBAgQIAAAQIECBAgQIAAAQIECGQEDKKZqgUlQIAAAQIECBAgQIAAAQIECBAgQMAg6gcIECBAgAABAgQIECBAgAABAgQIEMgIGEQzVQtKgAABAgQIECBAgAABAgQIECBAgIBB1A8QIECAAAECBAgQIECAAAECBAgQIJARMIhmqhaUAAECBAgQIECAAAECBAgQIECAAAGDqB8gQIAAAQIECBAgQIAAAQIECBAgQCAjYBDNVC0oAQIECBAgQIAAAQIECBAgQIAAAQIGUT9AgAABAgQIECBAgAABAgQIECBAgEBGwCCaqVpQAgQIECBAgAABAgQIECBAgAABAgQMon6AAAECBAgQIECAAAECBAgQIECAAIGMgEE0U7WgBAgQIECAAAECBAgQIECAAAECBAgYRP0AAQIECBAgQIAAAQIECBAgQIAAAQIZAYNopmpBCRAgQIAAAQIECBAgQIAAAQIECBAwiPoBAgQIECBAgAABAgQIECBAgAABAgQyAgbRTNWCEiBAgAABAgQIECBAgAABAgQIECBgEPUDBAgQIECAAAECBAgQIECAAAECBAhkBAyimaoFJUCAAAECBAgQIECAAAECBAgQIEDAIOoHCBAgQIAAAQIECBAgQIAAAQIECBDICBhEM1ULSoAAAQIECBAgQIAAAQIECBAgQICAQdQPECBAgAABAgQIECBAgAABAgQIECCQETCIZqoWlAABAgQIECBAgAABAgQIECBAgAABg6gfIECAAAECBAgQIECAAAECBAgQIEAgI2AQzVQtKAECBAgQIECAAAECBAgQIECAAAECBlE/QIAAAQIECBAgQIAAAQIECBAgQIBARsAgmqlaUAIECBAgQIAAAQIECBAgQIAAAQIEDKJ+gAABAgQIECBAgAABAgQIECBAgACBjIBBNFO1oAQIECBAgAABAgQIECBAgAABAgQIGET9AAECBAgQIECAAAECBAgQIECAAAECGQGDaKZqQQkQIECAAAECBAgQIECAAAECBAgQMIj6AQIECBAgQIAAAQIECBAgQIAAAQIEMgIG0UzVghIgQIAAAQIECBAgQIAAAQIECBAgYBD1AwQIECBAgAABAgQIECBAgAABAgQIZAQMopmqBSVAgAABAgQIECBAgAABAgQIECBAwCDqBwgQIECAAAECBAgQIECAAAECBAgQyAgYRDNVC0qAAAECBAgQIECAAAECBAgQIECAgEHUDxAgQIAAAQIECBAgQIAAAQIECBAgkBEwiGaqFpQAAQIECBAgQIAAAQIECBAgQIAAAYOoHyBAgAABAgQIECBAgAABAgQIECBAICNgEM1ULSgBAgQIECBAgAABAgQIECBAgAABAgZRP0CAAAECBAgQIECAAAECBAgQIECAQEbAIJqpWlACBAgQIECAAAECBAgQIECAAAECBAyifoAAAQIECBAgQIAAAQIECBAgQIAAgYyAQTRTtaAECBAgQIAAAQIECBAgQIAAAQIECBhE/QABAgQIECBAgAABAgQIECBAgAABAhkBg2imakEJECBAgAABAgQIECBAgAABAgQIEDCI+gECBAgQIECAAAECBAgQIECAAAECBDICBtFM1YISIECAAAECBAgQIECAAAECBAgQIGAQ9QMECBAgQIAAAQIECBAgQIAAAQIECGQEDKKZqgUlQIAAAQIECBAgQIAAAQIECBAgQMAg6gcIECBAgAABAgQIECBAgAABAgQIEMgIGEQzVQtKgAABAgQIECBAgAABAgQIECBAgIBB1A8QIECAAAECBAgQIECAAAECBAgQIJARMIhmqhaUAAECBAgQIECAAAECBAgQIECAAAGDqB8gQIAAAQIECBAgQIAAAQIECBAgQCAjYBDNVC0oAQIECBAgQIAAAQIECBAgQIAAAQIGUT9AgAABAgQIECBAgAABAgQIECBAgEBGwCCaqVpQAgQIECBAgAABAgQIECBAgAABAgQMon6AAAECBAgQIECAAAECBAgQIECAAIGMgEE0U7WgBAgQIECAAAECBAgQIECAAAECBAgYRP0AAQIECBAgQIAAAQIECBAgQIAAAQIZAYNopmpBCRAgQIAAAQIECBAgQIAAAQIECBAwiPoBAgQIECBAgAABAgQIECBAgAABAgQyAgbRTNWCEiBAgAABAgQIECBAgAABAgQIECBgEPUDBAgQIECAAAECBAgQIECAAAECBAhkBAyimaoFJUCAAAECBAgQIECAAAECBAgQIEDAIOoHCBAgQIAAAQIECBAgQIAAAQIECBDICBhEM1ULSoAAAQIECBAgQIAAAQIECBAgQICAQdQPECBAgAABAgQIECBAgAABAgQIECCQETCIZqoWlAABAgQIECBAgAABAgQIECBAgAABg6gfIECAAAECBAgQIECAAAECBAgQIEAgI2AQzVQtKAECBAgQIECAAAECBAgQIECAAAECBlE/QIAAAQIECBAgQIAAAQIECBAgQIBARsAgmqlaUAIECBAgQIAAAQIECBAgQIAAAQIEDKJ+gAABAgQIECBAgAABAgQIECBAgACBjIBBNFO1oAQIECBAgAABAgQIECBAgAABAgQIGET9AAECBAgQIECAAAECBAgQIECAAAECGQGDaKZqQQkQIECAAAECBAgQIECAAAECBAgQMIj6AQIECBAgQIAAAQIECBAgQIAAAQIEMgIG0UzVghIgQIAAAQIECBAgQIAAAQIECBAgYBD1AwQIECBAgAABAgQIECBAgAABAgQIZAQMopmqBSVAgAABAgQIECBAgAABAgQIECBAwCDqBwgQIECAAAECBAgQIECAAAECBAgQyAgYRDNVC0qAAAECBAgQIECAAAECBAgQIECAgEHUDxAgQIAAAQIECBAgQIAAAQIECBAgkBEwiGaqFpQAAQIECBAgQIAAAQIECBAgQIAAAYOoHyBAgAABAgQIECBAgAABAgQIECBAICNgEM1ULSgBAgQIECBAgAABAgQIECBAgAABAgZRP0CAAAECBAgQIECAAAECBAgQIECAQEbAIJqpWlACBAgQIECAAAECBAgQIECAAAECBAyifoAAAQIECBAgQIAAAQIECBAgQIAAgYyAQTRTtaAECBAgQIAAAQIECBAgQIAAAQIECBhE/QABAgQIECBAgAABAgQIECBAgAABAhkBg2imakEJECBAgAABAgQIECBAgAABAgQIEDCI+gECBAgQIECAAAECBAgQIECAAAECBDICBtFM1YISIECAAAECBAgQIECAAAECBAgQIGAQ9QMECBAgQIAAAQIECBAgQIAAAQIECGQEDKKZqgUlQIAAAQIECBAgQIAAAQIECBAgQMAg6gcIECBAgAABAgQIECBAgAABAgQIEMgIGEQzVQtKgAABAgQIECBAgAABAgQIECBAgIBB1A8QIECAAAECBAgQIECAAAECBAgQIJARMIhmqhaUAAECBAgQIECAAAECBAgQIECAAAGDqB8gQIAAAQIECBAgQIAAAQIECBAgQCAjYBDNVC0oAQIECBAgQIAAAQIECBAgQIAAAQIGUT9AgAABAgQIECBAgAABAgQIECBAgEBGwCCaqVpQAgQIECBAgAABAgQIECBAgAABAgQMon6AAAECBAgQIECAAAECBAgQIECAAIGMgEE0U7WgBAgQIECAAAECBAgQIECAAAECBAgYRP0AAQIECBAgQIAAAQIECBAgQIAAAQIZAYNopmpBCRAgQIAAAQIECBAgQIAAAQIECBAwiPoBAgQIECBAgAABAgQIECBAgAABAgQyAgbRTNWCEiBAgAABAgQIECBAgAABAgQIECBgEPUDBAgQIECAAAECBAgQIECAAAECBAhkBAyimaoFJUCAAAECBAgQIECAAAECBAgQIEDAIOoHCBAgQIAAAQIECBAgQIAAAQIECBDICBhEM1ULSoAAAQIECBAgQIAAAQIECBAgQICAQdQPECBAgAABAgQIECBAgAABAgQIECCQETCIZqoWlAABAgQIECBAgAABAgQIECBAgAABg6gfIECAAAECBAgQIECAAAECBAgQIEAgI2AQzVQtKAECBAgQIECAAAECBAgQIECAAAECBlE/QIAAAQIECBAgQIAAAQIECBAgQIBARsAgmqlaUAIECBAgQIAAAQIECBAgQIAAAQIEDKJ+gAABAgQIECBAgAABAgQIECBAgACBjIBBNFO1oAQIECBAgAABAgQIECBAgAABAgQIGET9AAECBAgQIECAAAECBAgQIECAAAECGQGDaKZqQQkQIECAAAECBAgQIECAAAECBAgQMIj6AQIECBAgQIAAAQIECBAgQIAAAQIEMgIG0UzVghIgQIAAAQIECBAgQIAAAQIECBAgYBD1AwQIECBAgAABAgQIECBAgAABAgQIZAQMopmqBSVAgAABAgQIECBAgAABAgQIECBAwCDqBwgQIECAAAECBAgQIECAAAECBAgQyAgYRDNVC0qAAAECBAgQIECAAAECBAgQIECAgEHUDxAgQIAAAQIECBAgQIAAAQIECBAgkBEwiGaqFpQAAQIECBAgQIAAAQIECBAgQIAAAYOoHyBAgAABAgQIECBAgAABAgQIECBAICNgEM1ULSgBAgQIECBAgAABAgQIECBAgAABAgZRP0CAAAECBAgQIECAAAECBAgQIECAQEbAIJqpWlACBAgQIECAAAECBAgQIECAAAECBC4QrQVfidV4wgAAAABJRU5ErkJggg==;" parent="1" vertex="1">
          <mxGeometry x="-370" y="39" width="2582.79" height="981" as="geometry" />
        </mxCell>
        <mxCell id="ZsymLJbUCGqxXTFId5Gc-31" value="" style="ellipse;shape=cloud;whiteSpace=wrap;html=1;rotation=-5;" parent="1" vertex="1">
          <mxGeometry x="310" y="644" width="330" height="190" as="geometry" />
        </mxCell>
        <mxCell id="5iCj8EniEw_q8b-bMm1J-1" value="" style="image;aspect=fixed;perimeter=ellipsePerimeter;html=1;align=center;shadow=0;dashed=0;spacingTop=3;image=img/lib/active_directory/generic_server.svg;" parent="1" vertex="1">
          <mxGeometry x="370" y="151" width="50.4" height="90" as="geometry" />
        </mxCell>
        <mxCell id="5iCj8EniEw_q8b-bMm1J-4" value="" style="image;aspect=fixed;perimeter=ellipsePerimeter;html=1;align=center;shadow=0;dashed=0;spacingTop=3;image=img/lib/active_directory/generic_server.svg;" parent="1" vertex="1">
          <mxGeometry x="430" y="151" width="50.4" height="90" as="geometry" />
        </mxCell>
        <mxCell id="5iCj8EniEw_q8b-bMm1J-5" value="" style="image;aspect=fixed;perimeter=ellipsePerimeter;html=1;align=center;shadow=0;dashed=0;spacingTop=3;image=img/lib/active_directory/generic_server.svg;" parent="1" vertex="1">
          <mxGeometry x="491" y="146" width="50.4" height="90" as="geometry" />
        </mxCell>
        <mxCell id="ZsymLJbUCGqxXTFId5Gc-2" style="edgeStyle=orthogonalEdgeStyle;rounded=0;orthogonalLoop=1;jettySize=auto;html=1;entryX=0;entryY=0.5;entryDx=0;entryDy=0;dashed=1;strokeWidth=2;strokeColor=#FFFFFF;" parent="1" source="ZsymLJbUCGqxXTFId5Gc-1" target="5iCj8EniEw_q8b-bMm1J-1" edge="1">
          <mxGeometry relative="1" as="geometry" />
        </mxCell>
        <mxCell id="ZsymLJbUCGqxXTFId5Gc-1" value="&lt;font style=&quot;font-size: 14px;&quot;&gt;Software application&lt;/font&gt;" style="rounded=0;whiteSpace=wrap;html=1;fillColor=#fff2cc;strokeColor=#d6b656;" parent="1" vertex="1">
          <mxGeometry x="60" y="159" width="120" height="75" as="geometry" />
        </mxCell>
        <mxCell id="ZsymLJbUCGqxXTFId5Gc-3" value="&lt;font style=&quot;font-size: 16px;&quot;&gt;Physical Machines&lt;/font&gt;" style="text;html=1;strokeColor=none;fillColor=none;align=center;verticalAlign=middle;whiteSpace=wrap;rounded=0;fontColor=#FFFFFF;" parent="1" vertex="1">
          <mxGeometry x="350.3" y="241" width="209.8" height="30" as="geometry" />
        </mxCell>
        <mxCell id="ZsymLJbUCGqxXTFId5Gc-4" value="" style="image;html=1;image=img/lib/clip_art/computers/Software_128x128.png" parent="1" vertex="1">
          <mxGeometry x="148" y="156" width="30" height="35" as="geometry" />
        </mxCell>
        <mxCell id="ZsymLJbUCGqxXTFId5Gc-5" value="&lt;font color=&quot;#ffffff&quot; style=&quot;font-size: 16px;&quot;&gt;Deploy&lt;/font&gt;" style="text;html=1;strokeColor=none;fillColor=none;align=center;verticalAlign=middle;whiteSpace=wrap;rounded=0;" parent="1" vertex="1">
          <mxGeometry x="240" y="159" width="60" height="30" as="geometry" />
        </mxCell>
        <mxCell id="ZsymLJbUCGqxXTFId5Gc-11" style="edgeStyle=orthogonalEdgeStyle;rounded=0;orthogonalLoop=1;jettySize=auto;html=1;entryX=0;entryY=0.5;entryDx=0;entryDy=0;dashed=1;strokeWidth=2;strokeColor=#FFFFFF;" parent="1" source="ZsymLJbUCGqxXTFId5Gc-12" edge="1">
          <mxGeometry relative="1" as="geometry">
            <mxPoint x="370" y="468" as="targetPoint" />
          </mxGeometry>
        </mxCell>
        <mxCell id="ZsymLJbUCGqxXTFId5Gc-12" value="&lt;font style=&quot;font-size: 14px;&quot;&gt;Software application&lt;/font&gt;" style="rounded=0;whiteSpace=wrap;html=1;fillColor=#fff2cc;strokeColor=#d6b656;" parent="1" vertex="1">
          <mxGeometry x="60" y="431" width="120" height="75" as="geometry" />
        </mxCell>
        <mxCell id="ZsymLJbUCGqxXTFId5Gc-13" value="&lt;font style=&quot;font-size: 16px;&quot;&gt;Virtual Machines&lt;/font&gt;" style="text;html=1;strokeColor=none;fillColor=none;align=center;verticalAlign=middle;whiteSpace=wrap;rounded=0;fontColor=#FFFFFF;" parent="1" vertex="1">
          <mxGeometry x="360.2" y="506" width="209.8" height="30" as="geometry" />
        </mxCell>
        <mxCell id="ZsymLJbUCGqxXTFId5Gc-14" value="" style="image;html=1;image=img/lib/clip_art/computers/Software_128x128.png" parent="1" vertex="1">
          <mxGeometry x="148" y="428" width="30" height="35" as="geometry" />
        </mxCell>
        <mxCell id="ZsymLJbUCGqxXTFId5Gc-15" value="&lt;font style=&quot;font-size: 16px;&quot;&gt;Deploy&lt;/font&gt;" style="text;html=1;strokeColor=none;fillColor=none;align=center;verticalAlign=middle;whiteSpace=wrap;rounded=0;fontColor=#FFFFFF;" parent="1" vertex="1">
          <mxGeometry x="240" y="431" width="60" height="30" as="geometry" />
        </mxCell>
        <mxCell id="ZsymLJbUCGqxXTFId5Gc-17" value="" style="verticalLabelPosition=bottom;html=1;verticalAlign=top;align=center;strokeColor=none;fillColor=#00BEF2;shape=mxgraph.azure.virtual_machine;" parent="1" vertex="1">
          <mxGeometry x="370" y="443.5" width="60" height="50" as="geometry" />
        </mxCell>
        <mxCell id="ZsymLJbUCGqxXTFId5Gc-20" value="" style="verticalLabelPosition=bottom;html=1;verticalAlign=top;align=center;strokeColor=none;fillColor=#00BEF2;shape=mxgraph.azure.virtual_machine;fontStyle=1" parent="1" vertex="1">
          <mxGeometry x="440" y="443.5" width="60" height="50" as="geometry" />
        </mxCell>
        <mxCell id="ZsymLJbUCGqxXTFId5Gc-21" value="" style="verticalLabelPosition=bottom;html=1;verticalAlign=top;align=center;strokeColor=none;fillColor=#00BEF2;shape=mxgraph.azure.virtual_machine;fontStyle=1" parent="1" vertex="1">
          <mxGeometry x="510" y="443.5" width="60" height="50" as="geometry" />
        </mxCell>
        <mxCell id="ZsymLJbUCGqxXTFId5Gc-22" style="edgeStyle=orthogonalEdgeStyle;rounded=0;orthogonalLoop=1;jettySize=auto;html=1;dashed=1;strokeWidth=2;strokeColor=#FFFFFF;" parent="1" source="ZsymLJbUCGqxXTFId5Gc-23" edge="1">
          <mxGeometry relative="1" as="geometry">
            <mxPoint x="330" y="726" as="targetPoint" />
          </mxGeometry>
        </mxCell>
        <mxCell id="ZsymLJbUCGqxXTFId5Gc-23" value="&lt;font style=&quot;font-size: 14px;&quot;&gt;Software application&lt;/font&gt;" style="rounded=0;whiteSpace=wrap;html=1;fillColor=#fff2cc;strokeColor=#d6b656;" parent="1" vertex="1">
          <mxGeometry x="60" y="689" width="120" height="75" as="geometry" />
        </mxCell>
        <mxCell id="ZsymLJbUCGqxXTFId5Gc-24" value="&lt;font style=&quot;font-size: 16px;&quot;&gt;Virtual Machines&lt;/font&gt;" style="text;html=1;strokeColor=none;fillColor=none;align=center;verticalAlign=middle;whiteSpace=wrap;rounded=0;" parent="1" vertex="1">
          <mxGeometry x="360.2" y="764" width="209.8" height="30" as="geometry" />
        </mxCell>
        <mxCell id="ZsymLJbUCGqxXTFId5Gc-25" value="" style="image;html=1;image=img/lib/clip_art/computers/Software_128x128.png" parent="1" vertex="1">
          <mxGeometry x="148" y="686" width="30" height="35" as="geometry" />
        </mxCell>
        <mxCell id="ZsymLJbUCGqxXTFId5Gc-26" value="&lt;font style=&quot;font-size: 16px;&quot;&gt;Deploy&lt;/font&gt;" style="text;html=1;strokeColor=none;fillColor=none;align=center;verticalAlign=middle;whiteSpace=wrap;rounded=0;fontColor=#FFFFFF;" parent="1" vertex="1">
          <mxGeometry x="240" y="689" width="60" height="30" as="geometry" />
        </mxCell>
        <mxCell id="ZsymLJbUCGqxXTFId5Gc-27" value="&lt;span style=&quot;font-size: 16px;&quot;&gt;&lt;b&gt;Cloud Computing Model&lt;/b&gt;&lt;/span&gt;" style="text;html=1;strokeColor=none;fillColor=none;align=left;verticalAlign=middle;whiteSpace=wrap;rounded=0;fontColor=#FFFFFF;" parent="1" vertex="1">
          <mxGeometry x="50" y="634" width="250" height="30" as="geometry" />
        </mxCell>
        <mxCell id="ZsymLJbUCGqxXTFId5Gc-28" value="" style="verticalLabelPosition=bottom;html=1;verticalAlign=top;align=center;strokeColor=none;fillColor=#00BEF2;shape=mxgraph.azure.virtual_machine;" parent="1" vertex="1">
          <mxGeometry x="378" y="709.5" width="60" height="50" as="geometry" />
        </mxCell>
        <mxCell id="ZsymLJbUCGqxXTFId5Gc-29" value="" style="verticalLabelPosition=bottom;html=1;verticalAlign=top;align=center;strokeColor=none;fillColor=#00BEF2;shape=mxgraph.azure.virtual_machine;fontStyle=1" parent="1" vertex="1">
          <mxGeometry x="448" y="709.5" width="60" height="50" as="geometry" />
        </mxCell>
        <mxCell id="ZsymLJbUCGqxXTFId5Gc-30" value="" style="verticalLabelPosition=bottom;html=1;verticalAlign=top;align=center;strokeColor=none;fillColor=#00BEF2;shape=mxgraph.azure.virtual_machine;fontStyle=1" parent="1" vertex="1">
          <mxGeometry x="518" y="709.5" width="60" height="50" as="geometry" />
        </mxCell>
        <mxCell id="ZsymLJbUCGqxXTFId5Gc-33" value="&lt;font style=&quot;font-size: 16px;&quot;&gt;Cloud&lt;/font&gt;" style="text;html=1;strokeColor=none;fillColor=none;align=center;verticalAlign=middle;whiteSpace=wrap;rounded=0;fontColor=#FFFFFF;" parent="1" vertex="1">
          <mxGeometry x="426.55" y="834" width="96.9" height="30" as="geometry" />
        </mxCell>
        <mxCell id="HI2hZeX6kj14upjGYHAT-1" value="" style="rounded=1;arcSize=10;dashed=0;fillColor=none;gradientColor=none;strokeWidth=2;strokeColor=#FFFFFF;" parent="1" vertex="1">
          <mxGeometry x="320" y="84" width="260" height="222" as="geometry" />
        </mxCell>
        <mxCell id="HI2hZeX6kj14upjGYHAT-2" value="" style="dashed=0;html=1;shape=mxgraph.aws3.corporate_data_center;fillColor=#7D7C7C;gradientColor=none;dashed=0;strokeColor=#FFFFFF;" parent="1" vertex="1">
          <mxGeometry x="348" y="62" width="30" height="42" as="geometry" />
        </mxCell>
        <mxCell id="HI2hZeX6kj14upjGYHAT-4" value="&lt;span style=&quot;font-size: 16px;&quot;&gt;&lt;font color=&quot;#ffffff&quot;&gt;&lt;b&gt;Data Center&lt;/b&gt;&lt;/font&gt;&lt;/span&gt;" style="text;html=1;strokeColor=none;fillColor=none;align=left;verticalAlign=middle;whiteSpace=wrap;rounded=0;" parent="1" vertex="1">
          <mxGeometry x="404" y="94" width="106" height="30" as="geometry" />
        </mxCell>
        <mxCell id="HI2hZeX6kj14upjGYHAT-5" value="" style="rounded=1;arcSize=10;dashed=0;fillColor=none;gradientColor=none;strokeWidth=2;strokeColor=#FFFFFF;" parent="1" vertex="1">
          <mxGeometry x="318" y="368.5" width="272" height="222" as="geometry" />
        </mxCell>
        <mxCell id="HI2hZeX6kj14upjGYHAT-6" value="" style="dashed=0;html=1;shape=mxgraph.aws3.corporate_data_center;fillColor=#7D7C7C;gradientColor=none;dashed=0;strokeColor=#FFFFFF;" parent="1" vertex="1">
          <mxGeometry x="346" y="346.5" width="30" height="42" as="geometry" />
        </mxCell>
        <mxCell id="HI2hZeX6kj14upjGYHAT-7" value="&lt;span style=&quot;font-size: 16px;&quot;&gt;&lt;font color=&quot;#ffffff&quot;&gt;&lt;b&gt;Data Center&lt;/b&gt;&lt;/font&gt;&lt;/span&gt;" style="text;html=1;strokeColor=none;fillColor=none;align=left;verticalAlign=middle;whiteSpace=wrap;rounded=0;" parent="1" vertex="1">
          <mxGeometry x="402" y="378.5" width="106" height="30" as="geometry" />
        </mxCell>
      </root>
    </mxGraphModel>
  </diagram>
  <diagram id="owSFI8N8gR5nMQ7PFhI_" name="3-tier architecture">
    <mxGraphModel dx="1781" dy="546" grid="1" gridSize="10" guides="1" tooltips="1" connect="1" arrows="1" fold="1" page="1" pageScale="1" pageWidth="827" pageHeight="1169" math="0" shadow="0">
      <root>
        <mxCell id="0" />
        <mxCell id="1" parent="0" />
        <mxCell id="to89MTzlAz_m5j_WNFUg-1" value="" style="shape=image;verticalLabelPosition=bottom;labelBackgroundColor=default;verticalAlign=top;aspect=fixed;imageAspect=0;image=data:image/png,iVBORw0KGgoAAAANSUhEUgAABUQAAAIACAYAAABKEmajAAABPmlDQ1BJQ0MgUHJvZmlsZQAAKJFjYGDiSSwoyGFhYGDIzSspCnJ3UoiIjFJgf87AxSDJIMogzGCYmFxc4BgQ4ANUwgCjUcG3awyMIPqyLsisBUUqj88+tdx6NZd3QZ6W70ZM9SiAKyW1OBlI/wHi+OSCohIGBsYYIFu5vKQAxG4AskWKgI4CsqeA2OkQ9goQOwnC3gNWExLkDGRfALIFkjMSU4DsB0C2ThKSeDoSG2ovCLB6uPh6EnAnyaAktaIERDvnF1QWZaZnlCg4AkMnVcEzL1lPR8HIwMiYgQEU1hDVn8+Dw5BRIgkh1vSegcHWACj4GCEWLMvAsP41A4PQPISYwikg/ykDw741BYlFiXAHMH5jKU4zNoKweaSA3jzw//+n/wwM7AkMDH/P/f//e8b//3+nMTAwf2Fg2O8HAAl8X8bFURYAAAAAlmVYSWZNTQAqAAAACAAFARIAAwAAAAEAAQAAARoABQAAAAEAAABKARsABQAAAAEAAABSASgAAwAAAAEAAgAAh2kABAAAAAEAAABaAAAAAAAAAJAAAAABAAAAkAAAAAEAA5KGAAcAAAASAAAAhKACAAQAAAABAAAFRKADAAQAAAABAAACAAAAAABBU0NJSQAAAFNjcmVlbnNob3RzQAQwAAAACXBIWXMAABYlAAAWJQFJUiTwAAAC3GlUWHRYTUw6Y29tLmFkb2JlLnhtcAAAAAAAPHg6eG1wbWV0YSB4bWxuczp4PSJhZG9iZTpuczptZXRhLyIgeDp4bXB0az0iWE1QIENvcmUgNi4wLjAiPgogICA8cmRmOlJERiB4bWxuczpyZGY9Imh0dHA6Ly93d3cudzMub3JnLzE5OTkvMDIvMjItcmRmLXN5bnRheC1ucyMiPgogICAgICA8cmRmOkRlc2NyaXB0aW9uIHJkZjphYm91dD0iIgogICAgICAgICAgICB4bWxuczpleGlmPSJodHRwOi8vbnMuYWRvYmUuY29tL2V4aWYvMS4wLyIKICAgICAgICAgICAgeG1sbnM6dGlmZj0iaHR0cDovL25zLmFkb2JlLmNvbS90aWZmLzEuMC8iPgogICAgICAgICA8ZXhpZjpVc2VyQ29tbWVudD5TY3JlZW5zaG90PC9leGlmOlVzZXJDb21tZW50PgogICAgICAgICA8ZXhpZjpQaXhlbFhEaW1lbnNpb24+MTM0ODwvZXhpZjpQaXhlbFhEaW1lbnNpb24+CiAgICAgICAgIDxleGlmOlBpeGVsWURpbWVuc2lvbj41MTI8L2V4aWY6UGl4ZWxZRGltZW5zaW9uPgogICAgICAgICA8dGlmZjpSZXNvbHV0aW9uVW5pdD4yPC90aWZmOlJlc29sdXRpb25Vbml0PgogICAgICAgICA8dGlmZjpYUmVzb2x1dGlvbj4xNDQvMTwvdGlmZjpYUmVzb2x1dGlvbj4KICAgICAgICAgPHRpZmY6WVJlc29sdXRpb24+MTQ0LzE8L3RpZmY6WVJlc29sdXRpb24+CiAgICAgICAgIDx0aWZmOk9yaWVudGF0aW9uPjE8L3RpZmY6T3JpZW50YXRpb24+CiAgICAgIDwvcmRmOkRlc2NyaXB0aW9uPgogICA8L3JkZjpSREY+CjwveDp4bXBtZXRhPgraPOvTAAAzQ0lEQVR4Ae3YsQ0AIRADwefbQCKl/wpBoo2d68Djizzm2udzBAgQIECAAAECBAgQIECAAAECBAgQCAj8gYwiEiBAgAABAgQIECBAgAABAgQIECBA4AkYRD0CAQIECBAgQIAAAQIECBAgQIAAAQIZAYNopmpBCRAgQIAAAQIECBAgQIAAAQIECBAwiPoBAgQIECBAgAABAgQIECBAgAABAgQyAgbRTNWCEiBAgAABAgQIECBAgAABAgQIECBgEPUDBAgQIECAAAECBAgQIECAAAECBAhkBAyimaoFJUCAAAECBAgQIECAAAECBAgQIEDAIOoHCBAgQIAAAQIECBAgQIAAAQIECBDICBhEM1ULSoAAAQIECBAgQIAAAQIECBAgQICAQdQPECBAgAABAgQIECBAgAABAgQIECCQETCIZqoWlAABAgQIECBAgAABAgQIECBAgAABg6gfIECAAAECBAgQIECAAAECBAgQIEAgI2AQzVQtKAECBAgQIECAAAECBAgQIECAAAECBlE/QIAAAQIECBAgQIAAAQIECBAgQIBARsAgmqlaUAIECBAgQIAAAQIECBAgQIAAAQIEDKJ+gAABAgQIECBAgAABAgQIECBAgACBjIBBNFO1oAQIECBAgAABAgQIECBAgAABAgQIGET9AAECBAgQIECAAAECBAgQIECAAAECGQGDaKZqQQkQIECAAAECBAgQIECAAAECBAgQMIj6AQIECBAgQIAAAQIECBAgQIAAAQIEMgIG0UzVghIgQIAAAQIECBAgQIAAAQIECBAgYBD1AwQIECBAgAABAgQIECBAgAABAgQIZAQMopmqBSVAgAABAgQIECBAgAABAgQIECBAwCDqBwgQIECAAAECBAgQIECAAAECBAgQyAgYRDNVC0qAAAECBAgQIECAAAECBAgQIECAgEHUDxAgQIAAAQIECBAgQIAAAQIECBAgkBEwiGaqFpQAAQIECBAgQIAAAQIECBAgQIAAAYOoHyBAgAABAgQIECBAgAABAgQIECBAICNgEM1ULSgBAgQIECBAgAABAgQIECBAgAABAgZRP0CAAAECBAgQIECAAAECBAgQIECAQEbAIJqpWlACBAgQIECAAAECBAgQIECAAAECBAyifoAAAQIECBAgQIAAAQIECBAgQIAAgYyAQTRTtaAECBAgQIAAAQIECBAgQIAAAQIECBhE/QABAgQIECBAgAABAgQIECBAgAABAhkBg2imakEJECBAgAABAgQIECBAgAABAgQIEDCI+gECBAgQIECAAAECBAgQIECAAAECBDICBtFM1YISIECAAAECBAgQIECAAAECBAgQIGAQ9QMECBAgQIAAAQIECBAgQIAAAQIECGQEDKKZqgUlQIAAAQIECBAgQIAAAQIECBAgQMAg6gcIECBAgAABAgQIECBAgAABAgQIEMgIGEQzVQtKgAABAgQIECBAgAABAgQIECBAgIBB1A8QIECAAAECBAgQIECAAAECBAgQIJARMIhmqhaUAAECBAgQIECAAAECBAgQIECAAAGDqB8gQIAAAQIECBAgQIAAAQIECBAgQCAjYBDNVC0oAQIECBAgQIAAAQIECBAgQIAAAQIGUT9AgAABAgQIECBAgAABAgQIECBAgEBGwCCaqVpQAgQIECBAgAABAgQIECBAgAABAgQMon6AAAECBAgQIECAAAECBAgQIECAAIGMgEE0U7WgBAgQIECAAAECBAgQIECAAAECBAgYRP0AAQIECBAgQIAAAQIECBAgQIAAAQIZAYNopmpBCRAgQIAAAQIECBAgQIAAAQIECBAwiPoBAgQIECBAgAABAgQIECBAgAABAgQyAgbRTNWCEiBAgAABAgQIECBAgAABAgQIECBgEPUDBAgQIECAAAECBAgQIECAAAECBAhkBAyimaoFJUCAAAECBAgQIECAAAECBAgQIEDAIOoHCBAgQIAAAQIECBAgQIAAAQIECBDICBhEM1ULSoAAAQIECBAgQIAAAQIECBAgQICAQdQPECBAgAABAgQIECBAgAABAgQIECCQETCIZqoWlAABAgQIECBAgAABAgQIECBAgAABg6gfIECAAAECBAgQIECAAAECBAgQIEAgI2AQzVQtKAECBAgQIECAAAECBAgQIECAAAECBlE/QIAAAQIECBAgQIAAAQIECBAgQIBARsAgmqlaUAIECBAgQIAAAQIECBAgQIAAAQIEDKJ+gAABAgQIECBAgAABAgQIECBAgACBjIBBNFO1oAQIECBAgAABAgQIECBAgAABAgQIGET9AAECBAgQIECAAAECBAgQIECAAAECGQGDaKZqQQkQIECAAAECBAgQIECAAAECBAgQMIj6AQIECBAgQIAAAQIECBAgQIAAAQIEMgIG0UzVghIgQIAAAQIECBAgQIAAAQIECBAgYBD1AwQIECBAgAABAgQIECBAgAABAgQIZAQMopmqBSVAgAABAgQIECBAgAABAgQIECBAwCDqBwgQIECAAAECBAgQIECAAAECBAgQyAgYRDNVC0qAAAECBAgQIECAAAECBAgQIECAgEHUDxAgQIAAAQIECBAgQIAAAQIECBAgkBEwiGaqFpQAAQIECBAgQIAAAQIECBAgQIAAAYOoHyBAgAABAgQIECBAgAABAgQIECBAICNgEM1ULSgBAgQIECBAgAABAgQIECBAgAABAgZRP0CAAAECBAgQIECAAAECBAgQIECAQEbAIJqpWlACBAgQIECAAAECBAgQIECAAAECBAyifoAAAQIECBAgQIAAAQIECBAgQIAAgYyAQTRTtaAECBAgQIAAAQIECBAgQIAAAQIECBhE/QABAgQIECBAgAABAgQIECBAgAABAhkBg2imakEJECBAgAABAgQIECBAgAABAgQIEDCI+gECBAgQIECAAAECBAgQIECAAAECBDICBtFM1YISIECAAAECBAgQIECAAAECBAgQIGAQ9QMECBAgQIAAAQIECBAgQIAAAQIECGQEDKKZqgUlQIAAAQIECBAgQIAAAQIECBAgQMAg6gcIECBAgAABAgQIECBAgAABAgQIEMgIGEQzVQtKgAABAgQIECBAgAABAgQIECBAgIBB1A8QIECAAAECBAgQIECAAAECBAgQIJARMIhmqhaUAAECBAgQIECAAAECBAgQIECAAAGDqB8gQIAAAQIECBAgQIAAAQIECBAgQCAjYBDNVC0oAQIECBAgQIAAAQIECBAgQIAAAQIGUT9AgAABAgQIECBAgAABAgQIECBAgEBGwCCaqVpQAgQIECBAgAABAgQIECBAgAABAgQMon6AAAECBAgQIECAAAECBAgQIECAAIGMgEE0U7WgBAgQIECAAAECBAgQIECAAAECBAgYRP0AAQIECBAgQIAAAQIECBAgQIAAAQIZAYNopmpBCRAgQIAAAQIECBAgQIAAAQIECBAwiPoBAgQIECBAgAABAgQIECBAgAABAgQyAgbRTNWCEiBAgAABAgQIECBAgAABAgQIECBgEPUDBAgQIECAAAECBAgQIECAAAECBAhkBAyimaoFJUCAAAECBAgQIECAAAECBAgQIEDAIOoHCBAgQIAAAQIECBAgQIAAAQIECBDICBhEM1ULSoAAAQIECBAgQIAAAQIECBAgQICAQdQPECBAgAABAgQIECBAgAABAgQIECCQETCIZqoWlAABAgQIECBAgAABAgQIECBAgAABg6gfIECAAAECBAgQIECAAAECBAgQIEAgI2AQzVQtKAECBAgQIECAAAECBAgQIECAAAECBlE/QIAAAQIECBAgQIAAAQIECBAgQIBARsAgmqlaUAIECBAgQIAAAQIECBAgQIAAAQIEDKJ+gAABAgQIECBAgAABAgQIECBAgACBjIBBNFO1oAQIECBAgAABAgQIECBAgAABAgQIGET9AAECBAgQIECAAAECBAgQIECAAAECGQGDaKZqQQkQIECAAAECBAgQIECAAAECBAgQMIj6AQIECBAgQIAAAQIECBAgQIAAAQIEMgIG0UzVghIgQIAAAQIECBAgQIAAAQIECBAgYBD1AwQIECBAgAABAgQIECBAgAABAgQIZAQMopmqBSVAgAABAgQIECBAgAABAgQIECBAwCDqBwgQIECAAAECBAgQIECAAAECBAgQyAgYRDNVC0qAAAECBAgQIECAAAECBAgQIECAgEHUDxAgQIAAAQIECBAgQIAAAQIECBAgkBEwiGaqFpQAAQIECBAgQIAAAQIECBAgQIAAAYOoHyBAgAABAgQIECBAgAABAgQIECBAICNgEM1ULSgBAgQIECBAgAABAgQIECBAgAABAgZRP0CAAAECBAgQIECAAAECBAgQIECAQEbAIJqpWlACBAgQIECAAAECBAgQIECAAAECBAyifoAAAQIECBAgQIAAAQIECBAgQIAAgYyAQTRTtaAECBAgQIAAAQIECBAgQIAAAQIECBhE/QABAgQIECBAgAABAgQIECBAgAABAhkBg2imakEJECBAgAABAgQIECBAgAABAgQIEDCI+gECBAgQIECAAAECBAgQIECAAAECBDICBtFM1YISIECAAAECBAgQIECAAAECBAgQIGAQ9QMECBAgQIAAAQIECBAgQIAAAQIECGQEDKKZqgUlQIAAAQIECBAgQIAAAQIECBAgQMAg6gcIECBAgAABAgQIECBAgAABAgQIEMgIGEQzVQtKgAABAgQIECBAgAABAgQIECBAgIBB1A8QIECAAAECBAgQIECAAAECBAgQIJARMIhmqhaUAAECBAgQIECAAAECBAgQIECAAAGDqB8gQIAAAQIECBAgQIAAAQIECBAgQCAjYBDNVC0oAQIECBAgQIAAAQIECBAgQIAAAQIGUT9AgAABAgQIECBAgAABAgQIECBAgEBGwCCaqVpQAgQIECBAgAABAgQIECBAgAABAgQMon6AAAECBAgQIECAAAECBAgQIECAAIGMgEE0U7WgBAgQIECAAAECBAgQIECAAAECBAgYRP0AAQIECBAgQIAAAQIECBAgQIAAAQIZAYNopmpBCRAgQIAAAQIECBAgQIAAAQIECBAwiPoBAgQIECBAgAABAgQIECBAgAABAgQyAgbRTNWCEiBAgAABAgQIECBAgAABAgQIECBgEPUDBAgQIECAAAECBAgQIECAAAECBAhkBAyimaoFJUCAAAECBAgQIECAAAECBAgQIEDAIOoHCBAgQIAAAQIECBAgQIAAAQIECBDICBhEM1ULSoAAAQIECBAgQIAAAQIECBAgQICAQdQPECBAgAABAgQIECBAgAABAgQIECCQETCIZqoWlAABAgQIECBAgAABAgQIECBAgAABg6gfIECAAAECBAgQIECAAAECBAgQIEAgI2AQzVQtKAECBAgQIECAAAECBAgQIECAAAECBlE/QIAAAQIECBAgQIAAAQIECBAgQIBARsAgmqlaUAIECBAgQIAAAQIECBAgQIAAAQIEDKJ+gAABAgQIECBAgAABAgQIECBAgACBjIBBNFO1oAQIECBAgAABAgQIECBAgAABAgQIGET9AAECBAgQIECAAAECBAgQIECAAAECGQGDaKZqQQkQIECAAAECBAgQIECAAAECBAgQMIj6AQIECBAgQIAAAQIECBAgQIAAAQIEMgIG0UzVghIgQIAAAQIECBAgQIAAAQIECBAgYBD1AwQIECBAgAABAgQIECBAgAABAgQIZAQMopmqBSVAgAABAgQIECBAgAABAgQIECBAwCDqBwgQIECAAAECBAgQIECAAAECBAgQyAgYRDNVC0qAAAECBAgQIECAAAECBAgQIECAgEHUDxAgQIAAAQIECBAgQIAAAQIECBAgkBEwiGaqFpQAAQIECBAgQIAAAQIECBAgQIAAAYOoHyBAgAABAgQIECBAgAABAgQIECBAICNgEM1ULSgBAgQIECBAgAABAgQIECBAgAABAgZRP0CAAAECBAgQIECAAAECBAgQIECAQEbAIJqpWlACBAgQIECAAAECBAgQIECAAAECBAyifoAAAQIECBAgQIAAAQIECBAgQIAAgYyAQTRTtaAECBAgQIAAAQIECBAgQIAAAQIECBhE/QABAgQIECBAgAABAgQIECBAgAABAhkBg2imakEJECBAgAABAgQIECBAgAABAgQIEDCI+gECBAgQIECAAAECBAgQIECAAAECBDICBtFM1YISIECAAAECBAgQIECAAAECBAgQIGAQ9QMECBAgQIAAAQIECBAgQIAAAQIECGQEDKKZqgUlQIAAAQIECBAgQIAAAQIECBAgQMAg6gcIECBAgAABAgQIECBAgAABAgQIEMgIGEQzVQtKgAABAgQIECBAgAABAgQIECBAgIBB1A8QIECAAAECBAgQIECAAAECBAgQIJARMIhmqhaUAAECBAgQIECAAAECBAgQIECAAAGDqB8gQIAAAQIECBAgQIAAAQIECBAgQCAjYBDNVC0oAQIECBAgQIAAAQIECBAgQIAAAQIGUT9AgAABAgQIECBAgAABAgQIECBAgEBGwCCaqVpQAgQIECBAgAABAgQIECBAgAABAgQMon6AAAECBAgQIECAAAECBAgQIECAAIGMgEE0U7WgBAgQIECAAAECBAgQIECAAAECBAgYRP0AAQIECBAgQIAAAQIECBAgQIAAAQIZAYNopmpBCRAgQIAAAQIECBAgQIAAAQIECBAwiPoBAgQIECBAgAABAgQIECBAgAABAgQyAgbRTNWCEiBAgAABAgQIECBAgAABAgQIECBgEPUDBAgQIECAAAECBAgQIECAAAECBAhkBAyimaoFJUCAAAECBAgQIECAAAECBAgQIEDAIOoHCBAgQIAAAQIECBAgQIAAAQIECBDICBhEM1ULSoAAAQIECBAgQIAAAQIECBAgQICAQdQPECBAgAABAgQIECBAgAABAgQIECCQETCIZqoWlAABAgQIECBAgAABAgQIECBAgAABg6gfIECAAAECBAgQIECAAAECBAgQIEAgI2AQzVQtKAECBAgQIECAAAECBAgQIECAAAECBlE/QIAAAQIECBAgQIAAAQIECBAgQIBARsAgmqlaUAIECBAgQIAAAQIECBAgQIAAAQIEDKJ+gAABAgQIECBAgAABAgQIECBAgACBjIBBNFO1oAQIECBAgAABAgQIECBAgAABAgQIGET9AAECBAgQIECAAAECBAgQIECAAAECGQGDaKZqQQkQIECAAAECBAgQIECAAAECBAgQMIj6AQIECBAgQIAAAQIECBAgQIAAAQIEMgIG0UzVghIgQIAAAQIECBAgQIAAAQIECBAgYBD1AwQIECBAgAABAgQIECBAgAABAgQIZAQMopmqBSVAgAABAgQIECBAgAABAgQIECBAwCDqBwgQIECAAAECBAgQIECAAAECBAgQyAgYRDNVC0qAAAECBAgQIECAAAECBAgQIECAgEHUDxAgQIAAAQIECBAgQIAAAQIECBAgkBEwiGaqFpQAAQIECBAgQIAAAQIECBAgQIAAAYOoHyBAgAABAgQIECBAgAABAgQIECBAICNgEM1ULSgBAgQIECBAgAABAgQIECBAgAABAgZRP0CAAAECBAgQIECAAAECBAgQIECAQEbAIJqpWlACBAgQIECAAAECBAgQIECAAAECBAyifoAAAQIECBAgQIAAAQIECBAgQIAAgYyAQTRTtaAECBAgQIAAAQIECBAgQIAAAQIECBhE/QABAgQIECBAgAABAgQIECBAgAABAhkBg2imakEJECBAgAABAgQIECBAgAABAgQIEDCI+gECBAgQIECAAAECBAgQIECAAAECBDICBtFM1YISIECAAAECBAgQIECAAAECBAgQIGAQ9QMECBAgQIAAAQIECBAgQIAAAQIECGQEDKKZqgUlQIAAAQIECBAgQIAAAQIECBAgQMAg6gcIECBAgAABAgQIECBAgAABAgQIEMgIGEQzVQtKgAABAgQIECBAgAABAgQIECBAgIBB1A8QIECAAAECBAgQIECAAAECBAgQIJARMIhmqhaUAAECBAgQIECAAAECBAgQIECAAAGDqB8gQIAAAQIECBAgQIAAAQIECBAgQCAjYBDNVC0oAQIECBAgQIAAAQIECBAgQIAAAQIGUT9AgAABAgQIECBAgAABAgQIECBAgEBGwCCaqVpQAgQIECBAgAABAgQIECBAgAABAgQMon6AAAECBAgQIECAAAECBAgQIECAAIGMgEE0U7WgBAgQIECAAAECBAgQIECAAAECBAgYRP0AAQIECBAgQIAAAQIECBAgQIAAAQIZAYNopmpBCRAgQIAAAQIECBAgQIAAAQIECBAwiPoBAgQIECBAgAABAgQIECBAgAABAgQyAgbRTNWCEiBAgAABAgQIECBAgAABAgQIECBgEPUDBAgQIECAAAECBAgQIECAAAECBAhkBAyimaoFJUCAAAECBAgQIECAAAECBAgQIEDAIOoHCBAgQIAAAQIECBAgQIAAAQIECBDICBhEM1ULSoAAAQIECBAgQIAAAQIECBAgQICAQdQPECBAgAABAgQIECBAgAABAgQIECCQETCIZqoWlAABAgQIECBAgAABAgQIECBAgAABg6gfIECAAAECBAgQIECAAAECBAgQIEAgI2AQzVQtKAECBAgQIECAAAECBAgQIECAAAECBlE/QIAAAQIECBAgQIAAAQIECBAgQIBARsAgmqlaUAIECBAgQIAAAQIECBAgQIAAAQIEDKJ+gAABAgQIECBAgAABAgQIECBAgACBjIBBNFO1oAQIECBAgAABAgQIECBAgAABAgQIGET9AAECBAgQIECAAAECBAgQIECAAAECGQGDaKZqQQkQIECAAAECBAgQIECAAAECBAgQMIj6AQIECBAgQIAAAQIECBAgQIAAAQIEMgIG0UzVghIgQIAAAQIECBAgQIAAAQIECBAgYBD1AwQIECBAgAABAgQIECBAgAABAgQIZAQMopmqBSVAgAABAgQIECBAgAABAgQIECBAwCDqBwgQIECAAAECBAgQIECAAAECBAgQyAgYRDNVC0qAAAECBAgQIECAAAECBAgQIECAgEHUDxAgQIAAAQIECBAgQIAAAQIECBAgkBEwiGaqFpQAAQIECBAgQIAAAQIECBAgQIAAAYOoHyBAgAABAgQIECBAgAABAgQIECBAICNgEM1ULSgBAgQIECBAgAABAgQIECBAgAABAgZRP0CAAAECBAgQIECAAAECBAgQIECAQEbAIJqpWlACBAgQIECAAAECBAgQIECAAAECBAyifoAAAQIECBAgQIAAAQIECBAgQIAAgYyAQTRTtaAECBAgQIAAAQIECBAgQIAAAQIECBhE/QABAgQIECBAgAABAgQIECBAgAABAhkBg2imakEJECBAgAABAgQIECBAgAABAgQIEDCI+gECBAgQIECAAAECBAgQIECAAAECBDICBtFM1YISIECAAAECBAgQIECAAAECBAgQIGAQ9QMECBAgQIAAAQIECBAgQIAAAQIECGQEDKKZqgUlQIAAAQIECBAgQIAAAQIECBAgQMAg6gcIECBAgAABAgQIECBAgAABAgQIEMgIGEQzVQtKgAABAgQIECBAgAABAgQIECBAgIBB1A8QIECAAAECBAgQIECAAAECBAgQIJARMIhmqhaUAAECBAgQIECAAAECBAgQIECAAAGDqB8gQIAAAQIECBAgQIAAAQIECBAgQCAjYBDNVC0oAQIECBAgQIAAAQIECBAgQIAAAQIGUT9AgAABAgQIECBAgAABAgQIECBAgEBGwCCaqVpQAgQIECBAgAABAgQIECBAgAABAgQMon6AAAECBAgQIECAAAECBAgQIECAAIGMgEE0U7WgBAgQIECAAAECBAgQIECAAAECBAgYRP0AAQIECBAgQIAAAQIECBAgQIAAAQIZAYNopmpBCRAgQIAAAQIECBAgQIAAAQIECBAwiPoBAgQIECBAgAABAgQIECBAgAABAgQyAgbRTNWCEiBAgAABAgQIECBAgAABAgQIECBgEPUDBAgQIECAAAECBAgQIECAAAECBAhkBAyimaoFJUCAAAECBAgQIECAAAECBAgQIEDAIOoHCBAgQIAAAQIECBAgQIAAAQIECBDICBhEM1ULSoAAAQIECBAgQIAAAQIECBAgQICAQdQPECBAgAABAgQIECBAgAABAgQIECCQETCIZqoWlAABAgQIECBAgAABAgQIECBAgAABg6gfIECAAAECBAgQIECAAAECBAgQIEAgI2AQzVQtKAECBAgQIECAAAECBAgQIECAAAECBlE/QIAAAQIECBAgQIAAAQIECBAgQIBARsAgmqlaUAIECBAgQIAAAQIECBAgQIAAAQIEDKJ+gAABAgQIECBAgAABAgQIECBAgACBjIBBNFO1oAQIECBAgAABAgQIECBAgAABAgQIGET9AAECBAgQIECAAAECBAgQIECAAAECGQGDaKZqQQkQIECAAAECBAgQIECAAAECBAgQMIj6AQIECBAgQIAAAQIECBAgQIAAAQIEMgIG0UzVghIgQIAAAQIECBAgQIAAAQIECBAgYBD1AwQIECBAgAABAgQIECBAgAABAgQIZAQMopmqBSVAgAABAgQIECBAgAABAgQIECBAwCDqBwgQIECAAAECBAgQIECAAAECBAgQyAgYRDNVC0qAAAECBAgQIECAAAECBAgQIECAgEHUDxAgQIAAAQIECBAgQIAAAQIECBAgkBEwiGaqFpQAAQIECBAgQIAAAQIECBAgQIAAAYOoHyBAgAABAgQIECBAgAABAgQIECBAICNgEM1ULSgBAgQIECBAgAABAgQIECBAgAABAgZRP0CAAAECBAgQIECAAAECBAgQIECAQEbAIJqpWlACBAgQIECAAAECBAgQIECAAAECBAyifoAAAQIECBAgQIAAAQIECBAgQIAAgYyAQTRTtaAECBAgQIAAAQIECBAgQIAAAQIECBhE/QABAgQIECBAgAABAgQIECBAgAABAhkBg2imakEJECBAgAABAgQIECBAgAABAgQIEDCI+gECBAgQIECAAAECBAgQIECAAAECBDICBtFM1YISIECAAAECBAgQIECAAAECBAgQIGAQ9QMECBAgQIAAAQIECBAgQIAAAQIECGQEDKKZqgUlQIAAAQIECBAgQIAAAQIECBAgQMAg6gcIECBAgAABAgQIECBAgAABAgQIEMgIGEQzVQtKgAABAgQIECBAgAABAgQIECBAgIBB1A8QIECAAAECBAgQIECAAAECBAgQIJARMIhmqhaUAAECBAgQIECAAAECBAgQIECAAAGDqB8gQIAAAQIECBAgQIAAAQIECBAgQCAjYBDNVC0oAQIECBAgQIAAAQIECBAgQIAAAQIGUT9AgAABAgQIECBAgAABAgQIECBAgEBGwCCaqVpQAgQIECBAgAABAgQIECBAgAABAgQMon6AAAECBAgQIECAAAECBAgQIECAAIGMgEE0U7WgBAgQIECAAAECBAgQIECAAAECBAgYRP0AAQIECBAgQIAAAQIECBAgQIAAAQIZAYNopmpBCRAgQIAAAQIECBAgQIAAAQIECBAwiPoBAgQIECBAgAABAgQIECBAgAABAgQyAgbRTNWCEiBAgAABAgQIECBAgAABAgQIECBgEPUDBAgQIECAAAECBAgQIECAAAECBAhkBAyimaoFJUCAAAECBAgQIECAAAECBAgQIEDAIOoHCBAgQIAAAQIECBAgQIAAAQIECBDICBhEM1ULSoAAAQIECBAgQIAAAQIECBAgQICAQdQPECBAgAABAgQIECBAgAABAgQIECCQETCIZqoWlAABAgQIECBAgAABAgQIECBAgAABg6gfIECAAAECBAgQIECAAAECBAgQIEAgI2AQzVQtKAECBAgQIECAAAECBAgQIECAAAECBlE/QIAAAQIECBAgQIAAAQIECBAgQIBARsAgmqlaUAIECBAgQIAAAQIECBAgQIAAAQIEDKJ+gAABAgQIECBAgAABAgQIECBAgACBjIBBNFO1oAQIECBAgAABAgQIECBAgAABAgQIGET9AAECBAgQIECAAAECBAgQIECAAAECGQGDaKZqQQkQIECAAAECBAgQIECAAAECBAgQMIj6AQIECBAgQIAAAQIECBAgQIAAAQIEMgIG0UzVghIgQIAAAQIECBAgQIAAAQIECBAgYBD1AwQIECBAgAABAgQIECBAgAABAgQIZAQMopmqBSVAgAABAgQIECBAgAABAgQIECBAwCDqBwgQIECAAAECBAgQIECAAAECBAgQyAgYRDNVC0qAAAECBAgQIECAAAECBAgQIECAgEHUDxAgQIAAAQIECBAgQIAAAQIECBAgkBEwiGaqFpQAAQIECBAgQIAAAQIECBAgQIAAAYOoHyBAgAABAgQIECBAgAABAgQIECBAICNgEM1ULSgBAgQIECBAgAABAgQIECBAgAABAgZRP0CAAAECBAgQIECAAAECBAgQIECAQEbAIJqpWlACBAgQIECAAAECBAgQIECAAAECBAyifoAAAQIECBAgQIAAAQIECBAgQIAAgYyAQTRTtaAECBAgQIAAAQIECBAgQIAAAQIECBhE/QABAgQIECBAgAABAgQIECBAgAABAhkBg2imakEJECBAgAABAgQIECBAgAABAgQIEDCI+gECBAgQIECAAAECBAgQIECAAAECBDICBtFM1YISIECAAAECBAgQIECAAAECBAgQIGAQ9QMECBAgQIAAAQIECBAgQIAAAQIECGQEDKKZqgUlQIAAAQIECBAgQIAAAQIECBAgQMAg6gcIECBAgAABAgQIECBAgAABAgQIEMgIGEQzVQtKgAABAgQIECBAgAABAgQIECBAgIBB1A8QIECAAAECBAgQIECAAAECBAgQIJARMIhmqhaUAAECBAgQIECAAAECBAgQIECAAAGDqB8gQIAAAQIECBAgQIAAAQIECBAgQCAjYBDNVC0oAQIECBAgQIAAAQIECBAgQIAAAQIGUT9AgAABAgQIECBAgAABAgQIECBAgEBGwCCaqVpQAgQIECBAgAABAgQIECBAgAABAgQMon6AAAECBAgQIECAAAECBAgQIECAAIGMgEE0U7WgBAgQIECAAAECBAgQIECAAAECBAgYRP0AAQIECBAgQIAAAQIECBAgQIAAAQIZAYNopmpBCRAgQIAAAQIECBAgQIAAAQIECBAwiPoBAgQIECBAgAABAgQIECBAgAABAgQyAgbRTNWCEiBAgAABAgQIECBAgAABAgQIECBgEPUDBAgQIECAAAECBAgQIECAAAECBAhkBAyimaoFJUCAAAECBAgQIECAAAECBAgQIEDAIOoHCBAgQIAAAQIECBAgQIAAAQIECBDICBhEM1ULSoAAAQIECBAgQIAAAQIECBAgQICAQdQPECBAgAABAgQIECBAgAABAgQIECCQETCIZqoWlAABAgQIECBAgAABAgQIECBAgAABg6gfIECAAAECBAgQIECAAAECBAgQIEAgI2AQzVQtKAECBAgQIECAAAECBAgQIECAAAECBlE/QIAAAQIECBAgQIAAAQIECBAgQIBARsAgmqlaUAIECBAgQIAAAQIECBAgQIAAAQIEDKJ+gAABAgQIECBAgAABAgQIECBAgACBjIBBNFO1oAQIECBAgAABAgQIECBAgAABAgQIGET9AAECBAgQIECAAAECBAgQIECAAAECGQGDaKZqQQkQIECAAAECBAgQIECAAAECBAgQMIj6AQIECBAgQIAAAQIECBAgQIAAAQIEMgIG0UzVghIgQIAAAQIECBAgQIAAAQIECBAgYBD1AwQIECBAgAABAgQIECBAgAABAgQIZAQMopmqBSVAgAABAgQIECBAgAABAgQIECBAwCDqBwgQIECAAAECBAgQIECAAAECBAgQyAgYRDNVC0qAAAECBAgQIECAAAECBAgQIECAgEHUDxAgQIAAAQIECBAgQIAAAQIECBAgkBEwiGaqFpQAAQIECBAgQIAAAQIECBAgQIAAAYOoHyBAgAABAgQIECBAgAABAgQIECBAICNgEM1ULSgBAgQIECBAgAABAgQIECBAgAABAgZRP0CAAAECBAgQIECAAAECBAgQIECAQEbAIJqpWlACBAgQIECAAAECBAgQIECAAAECBAyifoAAAQIECBAgQIAAAQIECBAgQIAAgYyAQTRTtaAECBAgQIAAAQIECBAgQIAAAQIECBhE/QABAgQIECBAgAABAgQIECBAgAABAhkBg2imakEJECBAgAABAgQIECBAgAABAgQIEDCI+gECBAgQIECAAAECBAgQIECAAAECBDICBtFM1YISIECAAAECBAgQIECAAAECBAgQIGAQ9QMECBAgQIAAAQIECBAgQIAAAQIECGQEDKKZqgUlQIAAAQIECBAgQIAAAQIECBAgQMAg6gcIECBAgAABAgQIECBAgAABAgQIEMgIGEQzVQtKgAABAgQIECBAgAABAgQIECBAgIBB1A8QIECAAAECBAgQIECAAAECBAgQIJARMIhmqhaUAAECBAgQIECAAAECBAgQIECAAAGDqB8gQIAAAQIECBAgQIAAAQIECBAgQCAjYBDNVC0oAQIECBAgQIAAAQIECBAgQIAAAQIGUT9AgAABAgQIECBAgAABAgQIECBAgEBGwCCaqVpQAgQIECBAgAABAgQIECBAgAABAgQMon6AAAECBAgQIECAAAECBAgQIECAAIGMgEE0U7WgBAgQIECAAAECBAgQIECAAAECBAgYRP0AAQIECBAgQIAAAQIECBAgQIAAAQIZAYNopmpBCRAgQIAAAQIECBAgQIAAAQIECBAwiPoBAgQIECBAgAABAgQIECBAgAABAgQyAgbRTNWCEiBAgAABAgQIECBAgAABAgQIECBgEPUDBAgQIECAAAECBAgQIECAAAECBAhkBAyimaoFJUCAAAECBAgQIECAAAECBAgQIEDAIOoHCBAgQIAAAQIECBAgQIAAAQIECBDICBhEM1ULSoAAAQIECBAgQIAAAQIECBAgQICAQdQPECBAgAABAgQIECBAgAABAgQIECCQETCIZqoWlAABAgQIECBAgAABAgQIECBAgAABg6gfIECAAAECBAgQIECAAAECBAgQIEAgI2AQzVQtKAECBAgQIECAAAECBAgQIECAAAECBlE/QIAAAQIECBAgQIAAAQIECBAgQIBARsAgmqlaUAIECBAgQIAAAQIECBAgQIAAAQIEDKJ+gAABAgQIECBAgAABAgQIECBAgACBjIBBNFO1oAQIECBAgAABAgQIECBAgAABAgQIGET9AAECBAgQIECAAAECBAgQIECAAAECGQGDaKZqQQkQIECAAAECBAgQIECAAAECBAgQMIj6AQIECBAgQIAAAQIECBAgQIAAAQIEMgIG0UzVghIgQIAAAQIECBAgQIAAAQIECBAgYBD1AwQIECBAgAABAgQIECBAgAABAgQIZAQMopmqBSVAgAABAgQIECBAgAABAgQIECBAwCDqBwgQIECAAAECBAgQIECAAAECBAgQyAgYRDNVC0qAAAECBAgQIECAAAECBAgQIECAgEHUDxAgQIAAAQIECBAgQIAAAQIECBAgkBEwiGaqFpQAAQIECBAgQIAAAQIECBAgQIAAAYOoHyBAgAABAgQIECBAgAABAgQIECBAICNgEM1ULSgBAgQIECBAgAABAgQIECBAgAABAgZRP0CAAAECBAgQIECAAAECBAgQIECAQEbAIJqpWlACBAgQIECAAAECBAgQIECAAAECBAyifoAAAQIECBAgQIAAAQIECBAgQIAAgYyAQTRTtaAECBAgQIAAAQIECBAgQIAAAQIECBhE/QABAgQIECBAgAABAgQIECBAgAABAhkBg2imakEJECBAgAABAgQIECBAgAABAgQIEDCI+gECBAgQIECAAAECBAgQIECAAAECBDICBtFM1YISIECAAAECBAgQIECAAAECBAgQIGAQ9QMECBAgQIAAAQIECBAgQIAAAQIECGQEDKKZqgUlQIAAAQIECBAgQIAAAQIECBAgQMAg6gcIECBAgAABAgQIECBAgAABAgQIEMgIGEQzVQtKgAABAgQIECBAgAABAgQIECBAgIBB1A8QIECAAAECBAgQIECAAAECBAgQIJARMIhmqhaUAAECBAgQIECAAAECBAgQIECAAAGDqB8gQIAAAQIECBAgQIAAAQIECBAgQCAjYBDNVC0oAQIECBAgQIAAAQIECBAgQIAAAQIGUT9AgAABAgQIECBAgAABAgQIECBAgEBGwCCaqVpQAgQIECBAgAABAgQIECBAgAABAgQMon6AAAECBAgQIECAAAECBAgQIECAAIGMgEE0U7WgBAgQIECAAAECBAgQIECAAAECBAgYRP0AAQIECBAgQIAAAQIECBAgQIAAAQIZAYNopmpBCRAgQIAAAQIECBAgQIAAAQIECBAwiPoBAgQIECBAgAABAgQIECBAgAABAgQyAgbRTNWCEiBAgAABAgQIECBAgAABAgQIECBgEPUDBAgQIECAAAECBAgQIECAAAECBAhkBAyimaoFJUCAAAECBAgQIECAAAECBAgQIEDAIOoHCBAgQIAAAQIECBAgQIAAAQIECBDICBhEM1ULSoAAAQIECBAgQIAAAQIECBAgQICAQdQPECBAgAABAgQIECBAgAABAgQIECCQETCIZqoWlAABAgQIECBAgAABAgQIECBAgAABg6gfIECAAAECBAgQIECAAAECBAgQIEAgI2AQzVQtKAECBAgQIECAAAECBAgQIECAAAECBlE/QIAAAQIECBAgQIAAAQIECBAgQIBARsAgmqlaUAIECBAgQIAAAQIECBAgQIAAAQIEDKJ+gAABAgQIECBAgAABAgQIECBAgACBjIBBNFO1oAQIECBAgAABAgQIECBAgAABAgQIGET9AAECBAgQIECAAAECBAgQIECAAAECGQGDaKZqQQkQIECAAAECBAgQIECAAAECBAgQMIj6AQIECBAgQIAAAQIECBAgQIAAAQIEMgIG0UzVghIgQIAAAQIECBAgQIAAAQIECBAgYBD1AwQIECBAgAABAgQIECBAgAABAgQIZAQMopmqBSVAgAABAgQIECBAgAABAgQIECBAwCDqBwgQIECAAAECBAgQIECAAAECBAgQyAgYRDNVC0qAAAECBAgQIECAAAECBAgQIECAgEHUDxAgQIAAAQIECBAgQIAAAQIECBAgkBEwiGaqFpQAAQIECBAgQIAAAQIECBAgQIAAAYOoHyBAgAABAgQIECBAgAABAgQIECBAICNgEM1ULSgBAgQIECBAgAABAgQIECBAgAABAgZRP0CAAAECBAgQIECAAAECBAgQIECAQEbAIJqpWlACBAgQIECAAAECBAgQIECAAAECBC4QrQVfidV4wgAAAABJRU5ErkJggg==;" vertex="1" parent="1">
          <mxGeometry x="-370" y="120" width="2369.53" height="900" as="geometry" />
        </mxCell>
        <mxCell id="NTzsNt6g3YP_CKK6pcib-1" value="" style="outlineConnect=0;dashed=0;verticalLabelPosition=bottom;verticalAlign=top;align=center;html=1;shape=mxgraph.aws3.management_console;fillColor=#D2D3D3;gradientColor=none;strokeColor=#FFFFFF;" vertex="1" parent="1">
          <mxGeometry x="80" y="220" width="63" height="63" as="geometry" />
        </mxCell>
        <mxCell id="NTzsNt6g3YP_CKK6pcib-2" value="" style="outlineConnect=0;dashed=0;verticalLabelPosition=bottom;verticalAlign=top;align=center;html=1;shape=mxgraph.aws3.mobile_client;fillColor=#D2D3D3;gradientColor=none;strokeColor=#FFFFFF;" vertex="1" parent="1">
          <mxGeometry x="160" y="260" width="40.5" height="63" as="geometry" />
        </mxCell>
        <mxCell id="NTzsNt6g3YP_CKK6pcib-3" value="" style="outlineConnect=0;dashed=0;verticalLabelPosition=bottom;verticalAlign=top;align=center;html=1;shape=mxgraph.aws3.traditional_server;fillColor=#7D7C7C;gradientColor=none;" vertex="1" parent="1">
          <mxGeometry x="402" y="234" width="46.5" height="63" as="geometry" />
        </mxCell>
        <mxCell id="A-kHbzRbJDxDFQr1povX-7" style="edgeStyle=orthogonalEdgeStyle;rounded=0;orthogonalLoop=1;jettySize=auto;html=1;entryX=0;entryY=0.5;entryDx=0;entryDy=0;strokeColor=#FFFFFF;endArrow=classic;endFill=1;startArrow=classic;startFill=1;strokeWidth=2;" edge="1" parent="1" source="X46nOytSbQxqLt9b2ZQF-1" target="X46nOytSbQxqLt9b2ZQF-2">
          <mxGeometry relative="1" as="geometry" />
        </mxCell>
        <mxCell id="X46nOytSbQxqLt9b2ZQF-1" value="" style="rounded=1;arcSize=10;dashed=0;fillColor=none;gradientColor=none;strokeWidth=2;strokeColor=#FFFFFF;" vertex="1" parent="1">
          <mxGeometry x="40" y="160" width="210" height="222" as="geometry" />
        </mxCell>
        <mxCell id="A-kHbzRbJDxDFQr1povX-9" style="edgeStyle=orthogonalEdgeStyle;rounded=0;orthogonalLoop=1;jettySize=auto;html=1;entryX=0;entryY=0.5;entryDx=0;entryDy=0;strokeColor=#FFFFFF;startArrow=classic;startFill=1;strokeWidth=2;" edge="1" parent="1" source="X46nOytSbQxqLt9b2ZQF-2" target="X46nOytSbQxqLt9b2ZQF-4">
          <mxGeometry relative="1" as="geometry" />
        </mxCell>
        <mxCell id="X46nOytSbQxqLt9b2ZQF-2" value="" style="rounded=1;arcSize=10;dashed=0;fillColor=none;gradientColor=none;strokeWidth=2;strokeColor=#FFFFFF;movable=1;resizable=1;rotatable=1;deletable=1;editable=1;locked=0;connectable=1;" vertex="1" parent="1">
          <mxGeometry x="330" y="160" width="180" height="222" as="geometry" />
        </mxCell>
        <mxCell id="X46nOytSbQxqLt9b2ZQF-4" value="" style="rounded=1;arcSize=10;dashed=0;fillColor=none;gradientColor=none;strokeWidth=2;strokeColor=#FFFFFF;" vertex="1" parent="1">
          <mxGeometry x="585" y="160" width="190" height="222" as="geometry" />
        </mxCell>
        <mxCell id="to89MTzlAz_m5j_WNFUg-2" value="&lt;font style=&quot;font-size: 16px;&quot; color=&quot;#ffffff&quot;&gt;Client&lt;/font&gt;" style="text;html=1;strokeColor=none;fillColor=none;align=center;verticalAlign=middle;whiteSpace=wrap;rounded=0;" vertex="1" parent="1">
          <mxGeometry x="103" y="340" width="60" height="30" as="geometry" />
        </mxCell>
        <mxCell id="A-kHbzRbJDxDFQr1povX-1" value="" style="shape=cylinder3;whiteSpace=wrap;html=1;boundedLbl=1;backgroundOutline=1;size=15;fillColor=#fff2cc;strokeColor=#0000FF;" vertex="1" parent="1">
          <mxGeometry x="650" y="234" width="60" height="80" as="geometry" />
        </mxCell>
        <mxCell id="A-kHbzRbJDxDFQr1povX-2" value="&lt;font style=&quot;font-size: 16px;&quot; color=&quot;#ffffff&quot;&gt;Server&lt;/font&gt;" style="text;html=1;strokeColor=none;fillColor=none;align=center;verticalAlign=middle;whiteSpace=wrap;rounded=0;" vertex="1" parent="1">
          <mxGeometry x="395.25" y="340" width="60" height="30" as="geometry" />
        </mxCell>
        <mxCell id="A-kHbzRbJDxDFQr1povX-3" value="&lt;font style=&quot;font-size: 16px;&quot; color=&quot;#ffffff&quot;&gt;Database&lt;/font&gt;" style="text;html=1;strokeColor=none;fillColor=none;align=center;verticalAlign=middle;whiteSpace=wrap;rounded=0;" vertex="1" parent="1">
          <mxGeometry x="655" y="340" width="60" height="30" as="geometry" />
        </mxCell>
        <mxCell id="A-kHbzRbJDxDFQr1povX-4" value="&lt;font color=&quot;#ffffff&quot;&gt;&lt;span style=&quot;font-size: 16px;&quot;&gt;Web Tier&lt;/span&gt;&lt;/font&gt;" style="text;html=1;strokeColor=none;fillColor=none;align=center;verticalAlign=middle;whiteSpace=wrap;rounded=0;" vertex="1" parent="1">
          <mxGeometry x="70" y="160" width="137" height="30" as="geometry" />
        </mxCell>
        <mxCell id="A-kHbzRbJDxDFQr1povX-5" value="&lt;font color=&quot;#ffffff&quot;&gt;&lt;span style=&quot;font-size: 16px;&quot;&gt;Application Tier&lt;/span&gt;&lt;/font&gt;" style="text;html=1;strokeColor=none;fillColor=none;align=center;verticalAlign=middle;whiteSpace=wrap;rounded=0;" vertex="1" parent="1">
          <mxGeometry x="351.5" y="160" width="137" height="30" as="geometry" />
        </mxCell>
        <mxCell id="A-kHbzRbJDxDFQr1povX-6" value="&lt;font color=&quot;#ffffff&quot;&gt;&lt;span style=&quot;font-size: 16px;&quot;&gt;Data Tier&lt;/span&gt;&lt;/font&gt;" style="text;html=1;strokeColor=none;fillColor=none;align=center;verticalAlign=middle;whiteSpace=wrap;rounded=0;" vertex="1" parent="1">
          <mxGeometry x="616.5" y="160" width="137" height="30" as="geometry" />
        </mxCell>
      </root>
    </mxGraphModel>
  </diagram>
  <diagram id="vGXyfzZ0s4zcjXmQ3xob" name="serverless-3-tier">
    <mxGraphModel dx="1781" dy="546" grid="1" gridSize="10" guides="1" tooltips="1" connect="1" arrows="1" fold="1" page="1" pageScale="1" pageWidth="827" pageHeight="1169" math="0" shadow="0">
      <root>
        <mxCell id="0" />
        <mxCell id="1" parent="0" />
        <mxCell id="VvBlwO7Z2ByyRbaibPtk-1" value="" style="shape=image;verticalLabelPosition=bottom;labelBackgroundColor=default;verticalAlign=top;aspect=fixed;imageAspect=0;image=data:image/png,iVBORw0KGgoAAAANSUhEUgAABUQAAAIACAYAAABKEmajAAABPmlDQ1BJQ0MgUHJvZmlsZQAAKJFjYGDiSSwoyGFhYGDIzSspCnJ3UoiIjFJgf87AxSDJIMogzGCYmFxc4BgQ4ANUwgCjUcG3awyMIPqyLsisBUUqj88+tdx6NZd3QZ6W70ZM9SiAKyW1OBlI/wHi+OSCohIGBsYYIFu5vKQAxG4AskWKgI4CsqeA2OkQ9goQOwnC3gNWExLkDGRfALIFkjMSU4DsB0C2ThKSeDoSG2ovCLB6uPh6EnAnyaAktaIERDvnF1QWZaZnlCg4AkMnVcEzL1lPR8HIwMiYgQEU1hDVn8+Dw5BRIgkh1vSegcHWACj4GCEWLMvAsP41A4PQPISYwikg/ykDw741BYlFiXAHMH5jKU4zNoKweaSA3jzw//+n/wwM7AkMDH/P/f//e8b//3+nMTAwf2Fg2O8HAAl8X8bFURYAAAAAlmVYSWZNTQAqAAAACAAFARIAAwAAAAEAAQAAARoABQAAAAEAAABKARsABQAAAAEAAABSASgAAwAAAAEAAgAAh2kABAAAAAEAAABaAAAAAAAAAJAAAAABAAAAkAAAAAEAA5KGAAcAAAASAAAAhKACAAQAAAABAAAFRKADAAQAAAABAAACAAAAAABBU0NJSQAAAFNjcmVlbnNob3RzQAQwAAAACXBIWXMAABYlAAAWJQFJUiTwAAAC3GlUWHRYTUw6Y29tLmFkb2JlLnhtcAAAAAAAPHg6eG1wbWV0YSB4bWxuczp4PSJhZG9iZTpuczptZXRhLyIgeDp4bXB0az0iWE1QIENvcmUgNi4wLjAiPgogICA8cmRmOlJERiB4bWxuczpyZGY9Imh0dHA6Ly93d3cudzMub3JnLzE5OTkvMDIvMjItcmRmLXN5bnRheC1ucyMiPgogICAgICA8cmRmOkRlc2NyaXB0aW9uIHJkZjphYm91dD0iIgogICAgICAgICAgICB4bWxuczpleGlmPSJodHRwOi8vbnMuYWRvYmUuY29tL2V4aWYvMS4wLyIKICAgICAgICAgICAgeG1sbnM6dGlmZj0iaHR0cDovL25zLmFkb2JlLmNvbS90aWZmLzEuMC8iPgogICAgICAgICA8ZXhpZjpVc2VyQ29tbWVudD5TY3JlZW5zaG90PC9leGlmOlVzZXJDb21tZW50PgogICAgICAgICA8ZXhpZjpQaXhlbFhEaW1lbnNpb24+MTM0ODwvZXhpZjpQaXhlbFhEaW1lbnNpb24+CiAgICAgICAgIDxleGlmOlBpeGVsWURpbWVuc2lvbj41MTI8L2V4aWY6UGl4ZWxZRGltZW5zaW9uPgogICAgICAgICA8dGlmZjpSZXNvbHV0aW9uVW5pdD4yPC90aWZmOlJlc29sdXRpb25Vbml0PgogICAgICAgICA8dGlmZjpYUmVzb2x1dGlvbj4xNDQvMTwvdGlmZjpYUmVzb2x1dGlvbj4KICAgICAgICAgPHRpZmY6WVJlc29sdXRpb24+MTQ0LzE8L3RpZmY6WVJlc29sdXRpb24+CiAgICAgICAgIDx0aWZmOk9yaWVudGF0aW9uPjE8L3RpZmY6T3JpZW50YXRpb24+CiAgICAgIDwvcmRmOkRlc2NyaXB0aW9uPgogICA8L3JkZjpSREY+CjwveDp4bXBtZXRhPgraPOvTAAAzQ0lEQVR4Ae3YsQ0AIRADwefbQCKl/wpBoo2d68Djizzm2udzBAgQIECAAAECBAgQIECAAAECBAgQCAj8gYwiEiBAgAABAgQIECBAgAABAgQIECBA4AkYRD0CAQIECBAgQIAAAQIECBAgQIAAAQIZAYNopmpBCRAgQIAAAQIECBAgQIAAAQIECBAwiPoBAgQIECBAgAABAgQIECBAgAABAgQyAgbRTNWCEiBAgAABAgQIECBAgAABAgQIECBgEPUDBAgQIECAAAECBAgQIECAAAECBAhkBAyimaoFJUCAAAECBAgQIECAAAECBAgQIEDAIOoHCBAgQIAAAQIECBAgQIAAAQIECBDICBhEM1ULSoAAAQIECBAgQIAAAQIECBAgQICAQdQPECBAgAABAgQIECBAgAABAgQIECCQETCIZqoWlAABAgQIECBAgAABAgQIECBAgAABg6gfIECAAAECBAgQIECAAAECBAgQIEAgI2AQzVQtKAECBAgQIECAAAECBAgQIECAAAECBlE/QIAAAQIECBAgQIAAAQIECBAgQIBARsAgmqlaUAIECBAgQIAAAQIECBAgQIAAAQIEDKJ+gAABAgQIECBAgAABAgQIECBAgACBjIBBNFO1oAQIECBAgAABAgQIECBAgAABAgQIGET9AAECBAgQIECAAAECBAgQIECAAAECGQGDaKZqQQkQIECAAAECBAgQIECAAAECBAgQMIj6AQIECBAgQIAAAQIECBAgQIAAAQIEMgIG0UzVghIgQIAAAQIECBAgQIAAAQIECBAgYBD1AwQIECBAgAABAgQIECBAgAABAgQIZAQMopmqBSVAgAABAgQIECBAgAABAgQIECBAwCDqBwgQIECAAAECBAgQIECAAAECBAgQyAgYRDNVC0qAAAECBAgQIECAAAECBAgQIECAgEHUDxAgQIAAAQIECBAgQIAAAQIECBAgkBEwiGaqFpQAAQIECBAgQIAAAQIECBAgQIAAAYOoHyBAgAABAgQIECBAgAABAgQIECBAICNgEM1ULSgBAgQIECBAgAABAgQIECBAgAABAgZRP0CAAAECBAgQIECAAAECBAgQIECAQEbAIJqpWlACBAgQIECAAAECBAgQIECAAAECBAyifoAAAQIECBAgQIAAAQIECBAgQIAAgYyAQTRTtaAECBAgQIAAAQIECBAgQIAAAQIECBhE/QABAgQIECBAgAABAgQIECBAgAABAhkBg2imakEJECBAgAABAgQIECBAgAABAgQIEDCI+gECBAgQIECAAAECBAgQIECAAAECBDICBtFM1YISIECAAAECBAgQIECAAAECBAgQIGAQ9QMECBAgQIAAAQIECBAgQIAAAQIECGQEDKKZqgUlQIAAAQIECBAgQIAAAQIECBAgQMAg6gcIECBAgAABAgQIECBAgAABAgQIEMgIGEQzVQtKgAABAgQIECBAgAABAgQIECBAgIBB1A8QIECAAAECBAgQIECAAAECBAgQIJARMIhmqhaUAAECBAgQIECAAAECBAgQIECAAAGDqB8gQIAAAQIECBAgQIAAAQIECBAgQCAjYBDNVC0oAQIECBAgQIAAAQIECBAgQIAAAQIGUT9AgAABAgQIECBAgAABAgQIECBAgEBGwCCaqVpQAgQIECBAgAABAgQIECBAgAABAgQMon6AAAECBAgQIECAAAECBAgQIECAAIGMgEE0U7WgBAgQIECAAAECBAgQIECAAAECBAgYRP0AAQIECBAgQIAAAQIECBAgQIAAAQIZAYNopmpBCRAgQIAAAQIECBAgQIAAAQIECBAwiPoBAgQIECBAgAABAgQIECBAgAABAgQyAgbRTNWCEiBAgAABAgQIECBAgAABAgQIECBgEPUDBAgQIECAAAECBAgQIECAAAECBAhkBAyimaoFJUCAAAECBAgQIECAAAECBAgQIEDAIOoHCBAgQIAAAQIECBAgQIAAAQIECBDICBhEM1ULSoAAAQIECBAgQIAAAQIECBAgQICAQdQPECBAgAABAgQIECBAgAABAgQIECCQETCIZqoWlAABAgQIECBAgAABAgQIECBAgAABg6gfIECAAAECBAgQIECAAAECBAgQIEAgI2AQzVQtKAECBAgQIECAAAECBAgQIECAAAECBlE/QIAAAQIECBAgQIAAAQIECBAgQIBARsAgmqlaUAIECBAgQIAAAQIECBAgQIAAAQIEDKJ+gAABAgQIECBAgAABAgQIECBAgACBjIBBNFO1oAQIECBAgAABAgQIECBAgAABAgQIGET9AAECBAgQIECAAAECBAgQIECAAAECGQGDaKZqQQkQIECAAAECBAgQIECAAAECBAgQMIj6AQIECBAgQIAAAQIECBAgQIAAAQIEMgIG0UzVghIgQIAAAQIECBAgQIAAAQIECBAgYBD1AwQIECBAgAABAgQIECBAgAABAgQIZAQMopmqBSVAgAABAgQIECBAgAABAgQIECBAwCDqBwgQIECAAAECBAgQIECAAAECBAgQyAgYRDNVC0qAAAECBAgQIECAAAECBAgQIECAgEHUDxAgQIAAAQIECBAgQIAAAQIECBAgkBEwiGaqFpQAAQIECBAgQIAAAQIECBAgQIAAAYOoHyBAgAABAgQIECBAgAABAgQIECBAICNgEM1ULSgBAgQIECBAgAABAgQIECBAgAABAgZRP0CAAAECBAgQIECAAAECBAgQIECAQEbAIJqpWlACBAgQIECAAAECBAgQIECAAAECBAyifoAAAQIECBAgQIAAAQIECBAgQIAAgYyAQTRTtaAECBAgQIAAAQIECBAgQIAAAQIECBhE/QABAgQIECBAgAABAgQIECBAgAABAhkBg2imakEJECBAgAABAgQIECBAgAABAgQIEDCI+gECBAgQIECAAAECBAgQIECAAAECBDICBtFM1YISIECAAAECBAgQIECAAAECBAgQIGAQ9QMECBAgQIAAAQIECBAgQIAAAQIECGQEDKKZqgUlQIAAAQIECBAgQIAAAQIECBAgQMAg6gcIECBAgAABAgQIECBAgAABAgQIEMgIGEQzVQtKgAABAgQIECBAgAABAgQIECBAgIBB1A8QIECAAAECBAgQIECAAAECBAgQIJARMIhmqhaUAAECBAgQIECAAAECBAgQIECAAAGDqB8gQIAAAQIECBAgQIAAAQIECBAgQCAjYBDNVC0oAQIECBAgQIAAAQIECBAgQIAAAQIGUT9AgAABAgQIECBAgAABAgQIECBAgEBGwCCaqVpQAgQIECBAgAABAgQIECBAgAABAgQMon6AAAECBAgQIECAAAECBAgQIECAAIGMgEE0U7WgBAgQIECAAAECBAgQIECAAAECBAgYRP0AAQIECBAgQIAAAQIECBAgQIAAAQIZAYNopmpBCRAgQIAAAQIECBAgQIAAAQIECBAwiPoBAgQIECBAgAABAgQIECBAgAABAgQyAgbRTNWCEiBAgAABAgQIECBAgAABAgQIECBgEPUDBAgQIECAAAECBAgQIECAAAECBAhkBAyimaoFJUCAAAECBAgQIECAAAECBAgQIEDAIOoHCBAgQIAAAQIECBAgQIAAAQIECBDICBhEM1ULSoAAAQIECBAgQIAAAQIECBAgQICAQdQPECBAgAABAgQIECBAgAABAgQIECCQETCIZqoWlAABAgQIECBAgAABAgQIECBAgAABg6gfIECAAAECBAgQIECAAAECBAgQIEAgI2AQzVQtKAECBAgQIECAAAECBAgQIECAAAECBlE/QIAAAQIECBAgQIAAAQIECBAgQIBARsAgmqlaUAIECBAgQIAAAQIECBAgQIAAAQIEDKJ+gAABAgQIECBAgAABAgQIECBAgACBjIBBNFO1oAQIECBAgAABAgQIECBAgAABAgQIGET9AAECBAgQIECAAAECBAgQIECAAAECGQGDaKZqQQkQIECAAAECBAgQIECAAAECBAgQMIj6AQIECBAgQIAAAQIECBAgQIAAAQIEMgIG0UzVghIgQIAAAQIECBAgQIAAAQIECBAgYBD1AwQIECBAgAABAgQIECBAgAABAgQIZAQMopmqBSVAgAABAgQIECBAgAABAgQIECBAwCDqBwgQIECAAAECBAgQIECAAAECBAgQyAgYRDNVC0qAAAECBAgQIECAAAECBAgQIECAgEHUDxAgQIAAAQIECBAgQIAAAQIECBAgkBEwiGaqFpQAAQIECBAgQIAAAQIECBAgQIAAAYOoHyBAgAABAgQIECBAgAABAgQIECBAICNgEM1ULSgBAgQIECBAgAABAgQIECBAgAABAgZRP0CAAAECBAgQIECAAAECBAgQIECAQEbAIJqpWlACBAgQIECAAAECBAgQIECAAAECBAyifoAAAQIECBAgQIAAAQIECBAgQIAAgYyAQTRTtaAECBAgQIAAAQIECBAgQIAAAQIECBhE/QABAgQIECBAgAABAgQIECBAgAABAhkBg2imakEJECBAgAABAgQIECBAgAABAgQIEDCI+gECBAgQIECAAAECBAgQIECAAAECBDICBtFM1YISIECAAAECBAgQIECAAAECBAgQIGAQ9QMECBAgQIAAAQIECBAgQIAAAQIECGQEDKKZqgUlQIAAAQIECBAgQIAAAQIECBAgQMAg6gcIECBAgAABAgQIECBAgAABAgQIEMgIGEQzVQtKgAABAgQIECBAgAABAgQIECBAgIBB1A8QIECAAAECBAgQIECAAAECBAgQIJARMIhmqhaUAAECBAgQIECAAAECBAgQIECAAAGDqB8gQIAAAQIECBAgQIAAAQIECBAgQCAjYBDNVC0oAQIECBAgQIAAAQIECBAgQIAAAQIGUT9AgAABAgQIECBAgAABAgQIECBAgEBGwCCaqVpQAgQIECBAgAABAgQIECBAgAABAgQMon6AAAECBAgQIECAAAECBAgQIECAAIGMgEE0U7WgBAgQIECAAAECBAgQIECAAAECBAgYRP0AAQIECBAgQIAAAQIECBAgQIAAAQIZAYNopmpBCRAgQIAAAQIECBAgQIAAAQIECBAwiPoBAgQIECBAgAABAgQIECBAgAABAgQyAgbRTNWCEiBAgAABAgQIECBAgAABAgQIECBgEPUDBAgQIECAAAECBAgQIECAAAECBAhkBAyimaoFJUCAAAECBAgQIECAAAECBAgQIEDAIOoHCBAgQIAAAQIECBAgQIAAAQIECBDICBhEM1ULSoAAAQIECBAgQIAAAQIECBAgQICAQdQPECBAgAABAgQIECBAgAABAgQIECCQETCIZqoWlAABAgQIECBAgAABAgQIECBAgAABg6gfIECAAAECBAgQIECAAAECBAgQIEAgI2AQzVQtKAECBAgQIECAAAECBAgQIECAAAECBlE/QIAAAQIECBAgQIAAAQIECBAgQIBARsAgmqlaUAIECBAgQIAAAQIECBAgQIAAAQIEDKJ+gAABAgQIECBAgAABAgQIECBAgACBjIBBNFO1oAQIECBAgAABAgQIECBAgAABAgQIGET9AAECBAgQIECAAAECBAgQIECAAAECGQGDaKZqQQkQIECAAAECBAgQIECAAAECBAgQMIj6AQIECBAgQIAAAQIECBAgQIAAAQIEMgIG0UzVghIgQIAAAQIECBAgQIAAAQIECBAgYBD1AwQIECBAgAABAgQIECBAgAABAgQIZAQMopmqBSVAgAABAgQIECBAgAABAgQIECBAwCDqBwgQIECAAAECBAgQIECAAAECBAgQyAgYRDNVC0qAAAECBAgQIECAAAECBAgQIECAgEHUDxAgQIAAAQIECBAgQIAAAQIECBAgkBEwiGaqFpQAAQIECBAgQIAAAQIECBAgQIAAAYOoHyBAgAABAgQIECBAgAABAgQIECBAICNgEM1ULSgBAgQIECBAgAABAgQIECBAgAABAgZRP0CAAAECBAgQIECAAAECBAgQIECAQEbAIJqpWlACBAgQIECAAAECBAgQIECAAAECBAyifoAAAQIECBAgQIAAAQIECBAgQIAAgYyAQTRTtaAECBAgQIAAAQIECBAgQIAAAQIECBhE/QABAgQIECBAgAABAgQIECBAgAABAhkBg2imakEJECBAgAABAgQIECBAgAABAgQIEDCI+gECBAgQIECAAAECBAgQIECAAAECBDICBtFM1YISIECAAAECBAgQIECAAAECBAgQIGAQ9QMECBAgQIAAAQIECBAgQIAAAQIECGQEDKKZqgUlQIAAAQIECBAgQIAAAQIECBAgQMAg6gcIECBAgAABAgQIECBAgAABAgQIEMgIGEQzVQtKgAABAgQIECBAgAABAgQIECBAgIBB1A8QIECAAAECBAgQIECAAAECBAgQIJARMIhmqhaUAAECBAgQIECAAAECBAgQIECAAAGDqB8gQIAAAQIECBAgQIAAAQIECBAgQCAjYBDNVC0oAQIECBAgQIAAAQIECBAgQIAAAQIGUT9AgAABAgQIECBAgAABAgQIECBAgEBGwCCaqVpQAgQIECBAgAABAgQIECBAgAABAgQMon6AAAECBAgQIECAAAECBAgQIECAAIGMgEE0U7WgBAgQIECAAAECBAgQIECAAAECBAgYRP0AAQIECBAgQIAAAQIECBAgQIAAAQIZAYNopmpBCRAgQIAAAQIECBAgQIAAAQIECBAwiPoBAgQIECBAgAABAgQIECBAgAABAgQyAgbRTNWCEiBAgAABAgQIECBAgAABAgQIECBgEPUDBAgQIECAAAECBAgQIECAAAECBAhkBAyimaoFJUCAAAECBAgQIECAAAECBAgQIEDAIOoHCBAgQIAAAQIECBAgQIAAAQIECBDICBhEM1ULSoAAAQIECBAgQIAAAQIECBAgQICAQdQPECBAgAABAgQIECBAgAABAgQIECCQETCIZqoWlAABAgQIECBAgAABAgQIECBAgAABg6gfIECAAAECBAgQIECAAAECBAgQIEAgI2AQzVQtKAECBAgQIECAAAECBAgQIECAAAECBlE/QIAAAQIECBAgQIAAAQIECBAgQIBARsAgmqlaUAIECBAgQIAAAQIECBAgQIAAAQIEDKJ+gAABAgQIECBAgAABAgQIECBAgACBjIBBNFO1oAQIECBAgAABAgQIECBAgAABAgQIGET9AAECBAgQIECAAAECBAgQIECAAAECGQGDaKZqQQkQIECAAAECBAgQIECAAAECBAgQMIj6AQIECBAgQIAAAQIECBAgQIAAAQIEMgIG0UzVghIgQIAAAQIECBAgQIAAAQIECBAgYBD1AwQIECBAgAABAgQIECBAgAABAgQIZAQMopmqBSVAgAABAgQIECBAgAABAgQIECBAwCDqBwgQIECAAAECBAgQIECAAAECBAgQyAgYRDNVC0qAAAECBAgQIECAAAECBAgQIECAgEHUDxAgQIAAAQIECBAgQIAAAQIECBAgkBEwiGaqFpQAAQIECBAgQIAAAQIECBAgQIAAAYOoHyBAgAABAgQIECBAgAABAgQIECBAICNgEM1ULSgBAgQIECBAgAABAgQIECBAgAABAgZRP0CAAAECBAgQIECAAAECBAgQIECAQEbAIJqpWlACBAgQIECAAAECBAgQIECAAAECBAyifoAAAQIECBAgQIAAAQIECBAgQIAAgYyAQTRTtaAECBAgQIAAAQIECBAgQIAAAQIECBhE/QABAgQIECBAgAABAgQIECBAgAABAhkBg2imakEJECBAgAABAgQIECBAgAABAgQIEDCI+gECBAgQIECAAAECBAgQIECAAAECBDICBtFM1YISIECAAAECBAgQIECAAAECBAgQIGAQ9QMECBAgQIAAAQIECBAgQIAAAQIECGQEDKKZqgUlQIAAAQIECBAgQIAAAQIECBAgQMAg6gcIECBAgAABAgQIECBAgAABAgQIEMgIGEQzVQtKgAABAgQIECBAgAABAgQIECBAgIBB1A8QIECAAAECBAgQIECAAAECBAgQIJARMIhmqhaUAAECBAgQIECAAAECBAgQIECAAAGDqB8gQIAAAQIECBAgQIAAAQIECBAgQCAjYBDNVC0oAQIECBAgQIAAAQIECBAgQIAAAQIGUT9AgAABAgQIECBAgAABAgQIECBAgEBGwCCaqVpQAgQIECBAgAABAgQIECBAgAABAgQMon6AAAECBAgQIECAAAECBAgQIECAAIGMgEE0U7WgBAgQIECAAAECBAgQIECAAAECBAgYRP0AAQIECBAgQIAAAQIECBAgQIAAAQIZAYNopmpBCRAgQIAAAQIECBAgQIAAAQIECBAwiPoBAgQIECBAgAABAgQIECBAgAABAgQyAgbRTNWCEiBAgAABAgQIECBAgAABAgQIECBgEPUDBAgQIECAAAECBAgQIECAAAECBAhkBAyimaoFJUCAAAECBAgQIECAAAECBAgQIEDAIOoHCBAgQIAAAQIECBAgQIAAAQIECBDICBhEM1ULSoAAAQIECBAgQIAAAQIECBAgQICAQdQPECBAgAABAgQIECBAgAABAgQIECCQETCIZqoWlAABAgQIECBAgAABAgQIECBAgAABg6gfIECAAAECBAgQIECAAAECBAgQIEAgI2AQzVQtKAECBAgQIECAAAECBAgQIECAAAECBlE/QIAAAQIECBAgQIAAAQIECBAgQIBARsAgmqlaUAIECBAgQIAAAQIECBAgQIAAAQIEDKJ+gAABAgQIECBAgAABAgQIECBAgACBjIBBNFO1oAQIECBAgAABAgQIECBAgAABAgQIGET9AAECBAgQIECAAAECBAgQIECAAAECGQGDaKZqQQkQIECAAAECBAgQIECAAAECBAgQMIj6AQIECBAgQIAAAQIECBAgQIAAAQIEMgIG0UzVghIgQIAAAQIECBAgQIAAAQIECBAgYBD1AwQIECBAgAABAgQIECBAgAABAgQIZAQMopmqBSVAgAABAgQIECBAgAABAgQIECBAwCDqBwgQIECAAAECBAgQIECAAAECBAgQyAgYRDNVC0qAAAECBAgQIECAAAECBAgQIECAgEHUDxAgQIAAAQIECBAgQIAAAQIECBAgkBEwiGaqFpQAAQIECBAgQIAAAQIECBAgQIAAAYOoHyBAgAABAgQIECBAgAABAgQIECBAICNgEM1ULSgBAgQIECBAgAABAgQIECBAgAABAgZRP0CAAAECBAgQIECAAAECBAgQIECAQEbAIJqpWlACBAgQIECAAAECBAgQIECAAAECBAyifoAAAQIECBAgQIAAAQIECBAgQIAAgYyAQTRTtaAECBAgQIAAAQIECBAgQIAAAQIECBhE/QABAgQIECBAgAABAgQIECBAgAABAhkBg2imakEJECBAgAABAgQIECBAgAABAgQIEDCI+gECBAgQIECAAAECBAgQIECAAAECBDICBtFM1YISIECAAAECBAgQIECAAAECBAgQIGAQ9QMECBAgQIAAAQIECBAgQIAAAQIECGQEDKKZqgUlQIAAAQIECBAgQIAAAQIECBAgQMAg6gcIECBAgAABAgQIECBAgAABAgQIEMgIGEQzVQtKgAABAgQIECBAgAABAgQIECBAgIBB1A8QIECAAAECBAgQIECAAAECBAgQIJARMIhmqhaUAAECBAgQIECAAAECBAgQIECAAAGDqB8gQIAAAQIECBAgQIAAAQIECBAgQCAjYBDNVC0oAQIECBAgQIAAAQIECBAgQIAAAQIGUT9AgAABAgQIECBAgAABAgQIECBAgEBGwCCaqVpQAgQIECBAgAABAgQIECBAgAABAgQMon6AAAECBAgQIECAAAECBAgQIECAAIGMgEE0U7WgBAgQIECAAAECBAgQIECAAAECBAgYRP0AAQIECBAgQIAAAQIECBAgQIAAAQIZAYNopmpBCRAgQIAAAQIECBAgQIAAAQIECBAwiPoBAgQIECBAgAABAgQIECBAgAABAgQyAgbRTNWCEiBAgAABAgQIECBAgAABAgQIECBgEPUDBAgQIECAAAECBAgQIECAAAECBAhkBAyimaoFJUCAAAECBAgQIECAAAECBAgQIEDAIOoHCBAgQIAAAQIECBAgQIAAAQIECBDICBhEM1ULSoAAAQIECBAgQIAAAQIECBAgQICAQdQPECBAgAABAgQIECBAgAABAgQIECCQETCIZqoWlAABAgQIECBAgAABAgQIECBAgAABg6gfIECAAAECBAgQIECAAAECBAgQIEAgI2AQzVQtKAECBAgQIECAAAECBAgQIECAAAECBlE/QIAAAQIECBAgQIAAAQIECBAgQIBARsAgmqlaUAIECBAgQIAAAQIECBAgQIAAAQIEDKJ+gAABAgQIECBAgAABAgQIECBAgACBjIBBNFO1oAQIECBAgAABAgQIECBAgAABAgQIGET9AAECBAgQIECAAAECBAgQIECAAAECGQGDaKZqQQkQIECAAAECBAgQIECAAAECBAgQMIj6AQIECBAgQIAAAQIECBAgQIAAAQIEMgIG0UzVghIgQIAAAQIECBAgQIAAAQIECBAgYBD1AwQIECBAgAABAgQIECBAgAABAgQIZAQMopmqBSVAgAABAgQIECBAgAABAgQIECBAwCDqBwgQIECAAAECBAgQIECAAAECBAgQyAgYRDNVC0qAAAECBAgQIECAAAECBAgQIECAgEHUDxAgQIAAAQIECBAgQIAAAQIECBAgkBEwiGaqFpQAAQIECBAgQIAAAQIECBAgQIAAAYOoHyBAgAABAgQIECBAgAABAgQIECBAICNgEM1ULSgBAgQIECBAgAABAgQIECBAgAABAgZRP0CAAAECBAgQIECAAAECBAgQIECAQEbAIJqpWlACBAgQIECAAAECBAgQIECAAAECBAyifoAAAQIECBAgQIAAAQIECBAgQIAAgYyAQTRTtaAECBAgQIAAAQIECBAgQIAAAQIECBhE/QABAgQIECBAgAABAgQIECBAgAABAhkBg2imakEJECBAgAABAgQIECBAgAABAgQIEDCI+gECBAgQIECAAAECBAgQIECAAAECBDICBtFM1YISIECAAAECBAgQIECAAAECBAgQIGAQ9QMECBAgQIAAAQIECBAgQIAAAQIECGQEDKKZqgUlQIAAAQIECBAgQIAAAQIECBAgQMAg6gcIECBAgAABAgQIECBAgAABAgQIEMgIGEQzVQtKgAABAgQIECBAgAABAgQIECBAgIBB1A8QIECAAAECBAgQIECAAAECBAgQIJARMIhmqhaUAAECBAgQIECAAAECBAgQIECAAAGDqB8gQIAAAQIECBAgQIAAAQIECBAgQCAjYBDNVC0oAQIECBAgQIAAAQIECBAgQIAAAQIGUT9AgAABAgQIECBAgAABAgQIECBAgEBGwCCaqVpQAgQIECBAgAABAgQIECBAgAABAgQMon6AAAECBAgQIECAAAECBAgQIECAAIGMgEE0U7WgBAgQIECAAAECBAgQIECAAAECBAgYRP0AAQIECBAgQIAAAQIECBAgQIAAAQIZAYNopmpBCRAgQIAAAQIECBAgQIAAAQIECBAwiPoBAgQIECBAgAABAgQIECBAgAABAgQyAgbRTNWCEiBAgAABAgQIECBAgAABAgQIECBgEPUDBAgQIECAAAECBAgQIECAAAECBAhkBAyimaoFJUCAAAECBAgQIECAAAECBAgQIEDAIOoHCBAgQIAAAQIECBAgQIAAAQIECBDICBhEM1ULSoAAAQIECBAgQIAAAQIECBAgQICAQdQPECBAgAABAgQIECBAgAABAgQIECCQETCIZqoWlAABAgQIECBAgAABAgQIECBAgAABg6gfIECAAAECBAgQIECAAAECBAgQIEAgI2AQzVQtKAECBAgQIECAAAECBAgQIECAAAECBlE/QIAAAQIECBAgQIAAAQIECBAgQIBARsAgmqlaUAIECBAgQIAAAQIECBAgQIAAAQIEDKJ+gAABAgQIECBAgAABAgQIECBAgACBjIBBNFO1oAQIECBAgAABAgQIECBAgAABAgQIGET9AAECBAgQIECAAAECBAgQIECAAAECGQGDaKZqQQkQIECAAAECBAgQIECAAAECBAgQMIj6AQIECBAgQIAAAQIECBAgQIAAAQIEMgIG0UzVghIgQIAAAQIECBAgQIAAAQIECBAgYBD1AwQIECBAgAABAgQIECBAgAABAgQIZAQMopmqBSVAgAABAgQIECBAgAABAgQIECBAwCDqBwgQIECAAAECBAgQIECAAAECBAgQyAgYRDNVC0qAAAECBAgQIECAAAECBAgQIECAgEHUDxAgQIAAAQIECBAgQIAAAQIECBAgkBEwiGaqFpQAAQIECBAgQIAAAQIECBAgQIAAAYOoHyBAgAABAgQIECBAgAABAgQIECBAICNgEM1ULSgBAgQIECBAgAABAgQIECBAgAABAgZRP0CAAAECBAgQIECAAAECBAgQIECAQEbAIJqpWlACBAgQIECAAAECBAgQIECAAAECBAyifoAAAQIECBAgQIAAAQIECBAgQIAAgYyAQTRTtaAECBAgQIAAAQIECBAgQIAAAQIECBhE/QABAgQIECBAgAABAgQIECBAgAABAhkBg2imakEJECBAgAABAgQIECBAgAABAgQIEDCI+gECBAgQIECAAAECBAgQIECAAAECBDICBtFM1YISIECAAAECBAgQIECAAAECBAgQIGAQ9QMECBAgQIAAAQIECBAgQIAAAQIECGQEDKKZqgUlQIAAAQIECBAgQIAAAQIECBAgQMAg6gcIECBAgAABAgQIECBAgAABAgQIEMgIGEQzVQtKgAABAgQIECBAgAABAgQIECBAgIBB1A8QIECAAAECBAgQIECAAAECBAgQIJARMIhmqhaUAAECBAgQIECAAAECBAgQIECAAAGDqB8gQIAAAQIECBAgQIAAAQIECBAgQCAjYBDNVC0oAQIECBAgQIAAAQIECBAgQIAAAQIGUT9AgAABAgQIECBAgAABAgQIECBAgEBGwCCaqVpQAgQIECBAgAABAgQIECBAgAABAgQMon6AAAECBAgQIECAAAECBAgQIECAAIGMgEE0U7WgBAgQIECAAAECBAgQIECAAAECBAgYRP0AAQIECBAgQIAAAQIECBAgQIAAAQIZAYNopmpBCRAgQIAAAQIECBAgQIAAAQIECBAwiPoBAgQIECBAgAABAgQIECBAgAABAgQyAgbRTNWCEiBAgAABAgQIECBAgAABAgQIECBgEPUDBAgQIECAAAECBAgQIECAAAECBAhkBAyimaoFJUCAAAECBAgQIECAAAECBAgQIEDAIOoHCBAgQIAAAQIECBAgQIAAAQIECBDICBhEM1ULSoAAAQIECBAgQIAAAQIECBAgQICAQdQPECBAgAABAgQIECBAgAABAgQIECCQETCIZqoWlAABAgQIECBAgAABAgQIECBAgAABg6gfIECAAAECBAgQIECAAAECBAgQIEAgI2AQzVQtKAECBAgQIECAAAECBAgQIECAAAECBlE/QIAAAQIECBAgQIAAAQIECBAgQIBARsAgmqlaUAIECBAgQIAAAQIECBAgQIAAAQIEDKJ+gAABAgQIECBAgAABAgQIECBAgACBjIBBNFO1oAQIECBAgAABAgQIECBAgAABAgQIGET9AAECBAgQIECAAAECBAgQIECAAAECGQGDaKZqQQkQIECAAAECBAgQIECAAAECBAgQMIj6AQIECBAgQIAAAQIECBAgQIAAAQIEMgIG0UzVghIgQIAAAQIECBAgQIAAAQIECBAgYBD1AwQIECBAgAABAgQIECBAgAABAgQIZAQMopmqBSVAgAABAgQIECBAgAABAgQIECBAwCDqBwgQIECAAAECBAgQIECAAAECBAgQyAgYRDNVC0qAAAECBAgQIECAAAECBAgQIECAgEHUDxAgQIAAAQIECBAgQIAAAQIECBAgkBEwiGaqFpQAAQIECBAgQIAAAQIECBAgQIAAAYOoHyBAgAABAgQIECBAgAABAgQIECBAICNgEM1ULSgBAgQIECBAgAABAgQIECBAgAABAgZRP0CAAAECBAgQIECAAAECBAgQIECAQEbAIJqpWlACBAgQIECAAAECBAgQIECAAAECBAyifoAAAQIECBAgQIAAAQIECBAgQIAAgYyAQTRTtaAECBAgQIAAAQIECBAgQIAAAQIECBhE/QABAgQIECBAgAABAgQIECBAgAABAhkBg2imakEJECBAgAABAgQIECBAgAABAgQIEDCI+gECBAgQIECAAAECBAgQIECAAAECBDICBtFM1YISIECAAAECBAgQIECAAAECBAgQIGAQ9QMECBAgQIAAAQIECBAgQIAAAQIECGQEDKKZqgUlQIAAAQIECBAgQIAAAQIECBAgQMAg6gcIECBAgAABAgQIECBAgAABAgQIEMgIGEQzVQtKgAABAgQIECBAgAABAgQIECBAgIBB1A8QIECAAAECBAgQIECAAAECBAgQIJARMIhmqhaUAAECBAgQIECAAAECBAgQIECAAAGDqB8gQIAAAQIECBAgQIAAAQIECBAgQCAjYBDNVC0oAQIECBAgQIAAAQIECBAgQIAAAQIGUT9AgAABAgQIECBAgAABAgQIECBAgEBGwCCaqVpQAgQIECBAgAABAgQIECBAgAABAgQMon6AAAECBAgQIECAAAECBAgQIECAAIGMgEE0U7WgBAgQIECAAAECBAgQIECAAAECBAgYRP0AAQIECBAgQIAAAQIECBAgQIAAAQIZAYNopmpBCRAgQIAAAQIECBAgQIAAAQIECBAwiPoBAgQIECBAgAABAgQIECBAgAABAgQyAgbRTNWCEiBAgAABAgQIECBAgAABAgQIECBgEPUDBAgQIECAAAECBAgQIECAAAECBAhkBAyimaoFJUCAAAECBAgQIECAAAECBAgQIEDAIOoHCBAgQIAAAQIECBAgQIAAAQIECBDICBhEM1ULSoAAAQIECBAgQIAAAQIECBAgQICAQdQPECBAgAABAgQIECBAgAABAgQIECCQETCIZqoWlAABAgQIECBAgAABAgQIECBAgAABg6gfIECAAAECBAgQIECAAAECBAgQIEAgI2AQzVQtKAECBAgQIECAAAECBAgQIECAAAECBlE/QIAAAQIECBAgQIAAAQIECBAgQIBARsAgmqlaUAIECBAgQIAAAQIECBAgQIAAAQIEDKJ+gAABAgQIECBAgAABAgQIECBAgACBjIBBNFO1oAQIECBAgAABAgQIECBAgAABAgQIGET9AAECBAgQIECAAAECBAgQIECAAAECGQGDaKZqQQkQIECAAAECBAgQIECAAAECBAgQMIj6AQIECBAgQIAAAQIECBAgQIAAAQIEMgIG0UzVghIgQIAAAQIECBAgQIAAAQIECBAgYBD1AwQIECBAgAABAgQIECBAgAABAgQIZAQMopmqBSVAgAABAgQIECBAgAABAgQIECBAwCDqBwgQIECAAAECBAgQIECAAAECBAgQyAgYRDNVC0qAAAECBAgQIECAAAECBAgQIECAgEHUDxAgQIAAAQIECBAgQIAAAQIECBAgkBEwiGaqFpQAAQIECBAgQIAAAQIECBAgQIAAAYOoHyBAgAABAgQIECBAgAABAgQIECBAICNgEM1ULSgBAgQIECBAgAABAgQIECBAgAABAgZRP0CAAAECBAgQIECAAAECBAgQIECAQEbAIJqpWlACBAgQIECAAAECBAgQIECAAAECBAyifoAAAQIECBAgQIAAAQIECBAgQIAAgYyAQTRTtaAECBAgQIAAAQIECBAgQIAAAQIECBhE/QABAgQIECBAgAABAgQIECBAgAABAhkBg2imakEJECBAgAABAgQIECBAgAABAgQIEDCI+gECBAgQIECAAAECBAgQIECAAAECBDICBtFM1YISIECAAAECBAgQIECAAAECBAgQIGAQ9QMECBAgQIAAAQIECBAgQIAAAQIECGQEDKKZqgUlQIAAAQIECBAgQIAAAQIECBAgQMAg6gcIECBAgAABAgQIECBAgAABAgQIEMgIGEQzVQtKgAABAgQIECBAgAABAgQIECBAgIBB1A8QIECAAAECBAgQIECAAAECBAgQIJARMIhmqhaUAAECBAgQIECAAAECBAgQIECAAAGDqB8gQIAAAQIECBAgQIAAAQIECBAgQCAjYBDNVC0oAQIECBAgQIAAAQIECBAgQIAAAQIGUT9AgAABAgQIECBAgAABAgQIECBAgEBGwCCaqVpQAgQIECBAgAABAgQIECBAgAABAgQMon6AAAECBAgQIECAAAECBAgQIECAAIGMgEE0U7WgBAgQIECAAAECBAgQIECAAAECBAgYRP0AAQIECBAgQIAAAQIECBAgQIAAAQIZAYNopmpBCRAgQIAAAQIECBAgQIAAAQIECBAwiPoBAgQIECBAgAABAgQIECBAgAABAgQyAgbRTNWCEiBAgAABAgQIECBAgAABAgQIECBgEPUDBAgQIECAAAECBAgQIECAAAECBAhkBAyimaoFJUCAAAECBAgQIECAAAECBAgQIEDAIOoHCBAgQIAAAQIECBAgQIAAAQIECBDICBhEM1ULSoAAAQIECBAgQIAAAQIECBAgQICAQdQPECBAgAABAgQIECBAgAABAgQIECCQETCIZqoWlAABAgQIECBAgAABAgQIECBAgAABg6gfIECAAAECBAgQIECAAAECBAgQIEAgI2AQzVQtKAECBAgQIECAAAECBAgQIECAAAECBlE/QIAAAQIECBAgQIAAAQIECBAgQIBARsAgmqlaUAIECBAgQIAAAQIECBAgQIAAAQIEDKJ+gAABAgQIECBAgAABAgQIECBAgACBjIBBNFO1oAQIECBAgAABAgQIECBAgAABAgQIGET9AAECBAgQIECAAAECBAgQIECAAAECGQGDaKZqQQkQIECAAAECBAgQIECAAAECBAgQMIj6AQIECBAgQIAAAQIECBAgQIAAAQIEMgIG0UzVghIgQIAAAQIECBAgQIAAAQIECBAgYBD1AwQIECBAgAABAgQIECBAgAABAgQIZAQMopmqBSVAgAABAgQIECBAgAABAgQIECBAwCDqBwgQIECAAAECBAgQIECAAAECBAgQyAgYRDNVC0qAAAECBAgQIECAAAECBAgQIECAgEHUDxAgQIAAAQIECBAgQIAAAQIECBAgkBEwiGaqFpQAAQIECBAgQIAAAQIECBAgQIAAAYOoHyBAgAABAgQIECBAgAABAgQIECBAICNgEM1ULSgBAgQIECBAgAABAgQIECBAgAABAgZRP0CAAAECBAgQIECAAAECBAgQIECAQEbAIJqpWlACBAgQIECAAAECBAgQIECAAAECBC4QrQVfidV4wgAAAABJRU5ErkJggg==;" vertex="1" parent="1">
          <mxGeometry x="-370" y="50" width="2369.53" height="900" as="geometry" />
        </mxCell>
        <mxCell id="fBxkdswX3Kox4M81FrW5-1" value="&lt;font color=&quot;#ffffff&quot;&gt;AWS Cloud&lt;/font&gt;" style="points=[[0,0],[0.25,0],[0.5,0],[0.75,0],[1,0],[1,0.25],[1,0.5],[1,0.75],[1,1],[0.75,1],[0.5,1],[0.25,1],[0,1],[0,0.75],[0,0.5],[0,0.25]];outlineConnect=0;gradientColor=none;html=1;whiteSpace=wrap;fontSize=12;fontStyle=0;container=1;pointerEvents=0;collapsible=0;recursiveResize=0;shape=mxgraph.aws4.group;grIcon=mxgraph.aws4.group_aws_cloud_alt;strokeColor=#FFFFFF;fillColor=none;verticalAlign=top;align=left;spacingLeft=30;fontColor=#232F3E;dashed=0;" vertex="1" parent="1">
          <mxGeometry x="110" y="110" width="712" height="380" as="geometry" />
        </mxCell>
        <mxCell id="fBxkdswX3Kox4M81FrW5-2" value="" style="rounded=0;whiteSpace=wrap;html=1;dashed=1;dashPattern=8 8;fillColor=#330033;strokeColor=#FFFFFF;" vertex="1" parent="fBxkdswX3Kox4M81FrW5-1">
          <mxGeometry x="60" y="60" width="140" height="290" as="geometry" />
        </mxCell>
        <mxCell id="fBxkdswX3Kox4M81FrW5-3" value="" style="rounded=0;whiteSpace=wrap;html=1;dashed=1;dashPattern=8 8;strokeColor=#FFFFFF;fillColor=#330033;" vertex="1" parent="fBxkdswX3Kox4M81FrW5-1">
          <mxGeometry x="250" y="60" width="220" height="290" as="geometry" />
        </mxCell>
        <mxCell id="fBxkdswX3Kox4M81FrW5-4" value="" style="rounded=0;whiteSpace=wrap;html=1;dashed=1;dashPattern=8 8;strokeColor=#FFFFFF;fillColor=#001933;" vertex="1" parent="fBxkdswX3Kox4M81FrW5-1">
          <mxGeometry x="510" y="60" width="140" height="290" as="geometry" />
        </mxCell>
        <mxCell id="fBxkdswX3Kox4M81FrW5-5" value="&lt;b&gt;&lt;font color=&quot;#ffffff&quot;&gt;Web Tier&lt;/font&gt;&lt;/b&gt;" style="text;html=1;strokeColor=none;fillColor=none;align=center;verticalAlign=middle;whiteSpace=wrap;rounded=0;" vertex="1" parent="fBxkdswX3Kox4M81FrW5-1">
          <mxGeometry x="96" y="60" width="60" height="30" as="geometry" />
        </mxCell>
        <mxCell id="fBxkdswX3Kox4M81FrW5-6" value="&lt;b&gt;&lt;font color=&quot;#ffffff&quot;&gt;Application Tier&lt;/font&gt;&lt;/b&gt;" style="text;html=1;strokeColor=none;fillColor=none;align=center;verticalAlign=middle;whiteSpace=wrap;rounded=0;" vertex="1" parent="fBxkdswX3Kox4M81FrW5-1">
          <mxGeometry x="312.5" y="60" width="95" height="30" as="geometry" />
        </mxCell>
        <mxCell id="fBxkdswX3Kox4M81FrW5-7" value="&lt;b&gt;&lt;font color=&quot;#ffffff&quot;&gt;Data Tier&lt;/font&gt;&lt;/b&gt;" style="text;html=1;strokeColor=none;fillColor=none;align=center;verticalAlign=middle;whiteSpace=wrap;rounded=0;" vertex="1" parent="fBxkdswX3Kox4M81FrW5-1">
          <mxGeometry x="535" y="60" width="90" height="30" as="geometry" />
        </mxCell>
        <mxCell id="fBxkdswX3Kox4M81FrW5-19" style="edgeStyle=orthogonalEdgeStyle;rounded=0;orthogonalLoop=1;jettySize=auto;html=1;entryX=0;entryY=0.5;entryDx=0;entryDy=0;strokeColor=#FFFFFF;" edge="1" parent="fBxkdswX3Kox4M81FrW5-1" source="fBxkdswX3Kox4M81FrW5-8" target="fBxkdswX3Kox4M81FrW5-13">
          <mxGeometry relative="1" as="geometry" />
        </mxCell>
        <mxCell id="fBxkdswX3Kox4M81FrW5-8" value="Cloudfront" style="shape=image;verticalLabelPosition=bottom;labelBackgroundColor=#330033;verticalAlign=top;aspect=fixed;imageAspect=0;image=data:image/png,iVBORw0KGgoAAAANSUhEUgAAAHgAAAB6CAYAAAB0rJfZAAAAAXNSR0IArs4c6QAAAIRlWElmTU0AKgAAAAgABQESAAMAAAABAAEAAAEaAAUAAAABAAAASgEbAAUAAAABAAAAUgEoAAMAAAABAAIAAIdpAAQAAAABAAAAWgAAAAAAAACQAAAAAQAAAJAAAAABAAOgAQADAAAAAQABAACgAgAEAAAAAQAAAHigAwAEAAAAAQAAAHoAAAAAYBrnGwAAAAlwSFlzAAAWJQAAFiUBSVIk8AAAFiRJREFUeAHtnQn4XcMVwE/sW+xBBI1dYifE1oi1Grtamtp1oaotii60qtXW1u3rV6Wr2lq0qCU+FAlij11iiSS2ECFiib3S8/uP4573/m9/c+97ue75vvfm3pm5c2fmzJw528wVKSDXPdDnrN1nz851Cz/ljZvrU97+3De/QHDOUVwguEBwznsg580rZnCB4Jz3QM6bV8zgAsE574GcN6+YwQWCc94DOW9eMYMLBOe8B3LevGIGFwjOeQ/kvHnFDC4QnPMeyHnzihmccwTPk6f29V1apN/K+hsoskR/kUWWCr8FFxGZZ379zRda++H7IvzeeUNk1msib74qMuN5kVefE3l5kt6/kp9emaMRvNBiIitvLLLS+vpbV5G5ZGOImW9BEX48v9SKvZ8B4S+MF5nygMikcToQXu+dZ06JmeN8suZfWGSNLUTW+qzICmuLzDV3ul2Nx9oLE0TG3yLyxFiR999O932xS59jELzkCiIb7SIyeBuReZXcVoO3lew+dYfIa1PD743pipR3kt/sj0TmVrrFDF5w0UDCF1tWZMkBgbz3X13LX6By6R+8JzJhjMi4qwJJr5yru2K7HsFLrSSy1f4iqw3t3XEg691Ziqi+pWnMtFv+HNbX0pT6d1CE/msoyV8vkP4Ba4n0KWNFmdVP3yNy+0W6bj9bv8xO5uhaBLOefvYgkUHDenfw9ClKMkeLPH6rIvitMLM3/YII5NvgPSWlo/8i8uhNFtNaCOM2eLjI2tsq47Z8aRkMMGb0ree3NphKS0vnrvsQ3Edkg88rcg8MZNSazayZdF8gj889YrFJCLllQKyznQ4ILcPgSSXXN54dBoLFNRsyo1fbLNQL0l4ODKY7LhZ5YJQISO8m6CoEL7qMyM7fEVl+zdIumny/yG0XiEyfXBpf6W55Jamf+2ZYU0lH5LngGOWE30xyIy6tuK7I4ssFJo11mkEDNfDAurzXj0RYoxsBmLFRvxZ54+VGcmeTp2sQDGe84zdKyeyMF0T+e07o/Ga6Y+55RYYdLLL+TiKXniQy9fHwNMzT0H0CSS9n1D76XyD5DKS3ZoT8cykzdsTfStf4Dz8QeelJkecfC0wc5TEQDGDobvi9cty3W0xnw84jWMnp1oeIDNk96Qg6++5/6e8ykf99mMQ3e9W3n85gnZ0ASo+9fhiUICGm8v/bM0Wu+Jki8amQvt3hImtupZz5nSIT7xZ59mGtkyLZAI4cJA/du1Rku/eKQHU6TbI7imBI5YhjRVbX9c3g9Wki1/5S5EWdJbGA94w8XWSZlZMSX3lGKcOjYQAtt1qQqS0VUetCXSoYHDBuH7wrwqCrBcutHpYXyL4BPMPVZwStmcVlHXYMwTArXzhZ11tdMw2evlfkut+IvDfLYuKEm+0rsuWXQlmQWJguFBceBgwW2fUEkYUXD7FP3SVy1Wk+R/1r2sSAXXWTJC/r8hWnxm9T8obaV3PVTk4ntQe5Py5F7rirRa78efyOQIZFQWJw8x97I5c0VJNXKmk2kgpVgelrBlh/aQPk2WDAIJF9TlGJYCGLyTbMHMGQSzhTzymPVkYGmVVmx288Ig4iFAD5f+TGcF3pn3X3aSWrBui5mwZtw61/1/b8NXlyWV0CWP9pe9aQOYJHqMjCqDa4+U8q2/7H7uKHfhYaN13rLcxkg8WanMH2HCHqTJYC231Nm3c5XhP6+FzpX2eKYESX1TdPGjXmPFUOXJvcp3GVcX+WNOHhG0TGKHUyYG0edpDdZRNmhmAQu8meSaPuv0bkviuT+7SuXndKB8/QVXufzxNDYcFMvufy5G30AWJXVpAJgpFHUWIYTB6nxgDW3AwAccs0VGikUGVWg2VXVZXkpknq5AeS63auUJ4gMhnscGTzDJw922yYPoKVRu6sosMCi4SqoRYcpaJQGgxVzxv0fdsfIYJoBMAVQy0MUFxgSy6H/qoe3ePExLAx8R5lyl4qz9XivTJeyPYzXwzPz68cNX2SxXo8T4tVbvgx1IXGVKEsuOZMnVFvNvx4UxkRiT5/dLBA8SAkdvzoILasoUvE0p8JnCz67iFKKtE/f6SaMpQU6KbNSIHeGnNjTECEuvZXqnBR2RqTJEsBRpUHR8V8S++yUp3BCy+hFp4Dkpfe95+4GqqkZL3SmbvLcQlyScPjA/hQDfWXq7IBnyuDZVcJ6lHMjNh+DblosZCHY6y/9i4LEcPuutTugsWsUTej5KnmrlJFMCY/s9FiOLjjH81Vrpnc2yvpxWBhAHeO0t8AtePFJyhjp4MMh7tygJQ/fpuqKJV0NiJOlT/f6P3d/9aB9nzIjcJny/0bfbK1fKmRaFxsBg9PKoXg75X0SUr7V6y3LAUGcK5e0WDxkEnEFgbaZ9ZXM6DqjSGXmBSfeajUuW7Q1srtbhk0U/Z8jJAl4aZzRfb9aSht7W2CzIxuPA1IDcG42ZirC50H55wGIH5tMTIpmTW3EnKTHMF4MPFuH1N6vdt3E3kdrrtdr5DS0sPaD1e9ypDQR9S/Wb13eZnV7lMh0dhH8YAwuO18u4ob4kKz07eS9RM31+t/1/47jIRSEsqZBfq2X2Z5CYhOpuVCNCt3ByrP3+p9KgjecOek05m9055utXrVn8MOi/WHdQx4TUWQa86qb9YLuWv/Y4dGbw2gxzZLVIiJ8w9JNtkYSjdkjzjllpcSHcFYTXBtNbhHmYo0AP+rfgNDyTBNkLhYZkbKu+mPSa3X3SGs10lMnCtvdcK5sJq7bjtvi45gGJNPZtXU4AHRTgUrPYv4s9GuSQpasdhMCjwD3hsA1CKNWYxhY/qUnlf0IDcNFWZ8BG8VKsx/bObESh5+WLIE4CTw8PWWEjdknTRA+4WiJDb4PoKjjg1REcxenxXXCVWEgSj3mohVeTwk8LhAx4xJLi1AMcF7ABQhm6SwTk64NahTeQfarXInfuLbgagIHrhR4ngGY2Xeie1UsNKz7AhkzT3/6PQdzmG4DNbUWRxb88TGthceD29AJl9FTYoxIaocjMrPgK0drQKGifV2DI3Fia2PNhxN1JQHAzk2NWIW2zwZqDjnQZlYi5EQPOlutY3+OfpqhcEhBgXMYzf71Pau4yJ43aQyiEetwFrKTW73tcT6ZGUspOIK5rwhu4nceWlwqbW0tEPUm7b0wFGPVU0YGqlYYMwc5eH8FxOikWj8jtnHA+C52Irsi3XFmxZDaaX/OLWjJcMkmBVMUkbOqAZy8Sobx30znDRqVGBRtZ1bP4aY9v6jIdhkUqrzspK1Zkc4jmnbfCVpDMYJzGvnHCpy9oFqDfqp7iZQscIA3fPg4XaXfvjYLck71t4uuY5xhaHDHO0pj1MKYkE0BHsRohWZFF8lmAwAX2Icz9k9CEOFfRa59JITS9enrRTx9kx4Mr1/j+CVlZmMrb585dmk7kuvmFy3exUNwX5/zgxVcJSAihiIUAwC1jI4RYzsBtiNMbgDbFVhAxe7CXqBil7sVeKIBaCvLgu2NoaY9P7x7jAzIsxWSy61NarnbdVY4mJBNCYLJBng+8Ts6qcIXby/qvmWUQ5U104P48foLgZFJMDWETO4s6nL1ruQWvqPGvHJsSIbK7MFMFBaZehCCY3/48ZjTnl4SE4Y3fiz9XL6NsPPxIJoCPby4YYj6lePWWCwoM5uA99QiysP8esyMKd2u08zRJwxt9eBG4blod6epUbr43UGvi8bfb5aPtfN1bI0Fm97eirlRquFH1bPevqGcoxKfj1T4X20Ghm9vgPMY5L3cmIOVqVmGbxKda4Ux1FLWJmgUDjOQT2MbFfK30wcuxoNYg7aaAieb2GrniokHlAETgxnTnEYCt6Eldxk7Ilpk+wqrKmQewZDJYCp8q45XhxjSwwWGZgznM5bYfYqvdPHofSwDeGQ61gI5oAXg5hbXKIxWZ7kItKMvSjsqaWTayGXRqGlso6icezQZ/N1JRh2SNLBb7+uFp+HQi46GxkSXS7apoN/K7L3KfGZITh8A/MWtft2Qt9HXYlg25XXaiO9hwNiyMhfiLDOMXAwiEMO9/iBMle7Jm+485+B6yYG5z4z0lsO1H5s+tr/rFCWxbcTTnUI9hvo2ikzzWerzJPmX8kINDswHDOuqs0A3DPOcGZ3BaHsH+5xa9E13Py7rEw8IB+8zu6CnPznw1Wnq2LYBjsFnyqTkeHSKQvyyma3dkg3Chi0TrR1ocWVYiiDGOMkPE8B2znVIOmRcBWNRHsS06pnAj7DIMCXhfjkkQulwGsSWbkSPK9IxHUHZJPPr23IzAeqdmzbr7bnPQGzZbBUJJl1Xh0wBr7OFtdqGA3BHOxpgFKjVcCf+a9Hht0IOL/haosogvgE43TBscFrst6SgKUJ78q/HBF2MNqsYFazRh/yu+A620o9vVNeLKUExhQD35cW12oYjUQjx9nBnohM7ZwAB3LYRM2vB3QWt7qXCW4cqsAWEXTdrOsADBlMGGdbjdGBYAMgpNb+n/Fckh7LG9IrirzIlLyptatoM9gL6mivooKuwe0Ca+e/FaFXnynC9hQDlDIjzwhnZllcvdBUpeTziKn3XK10E73I4xU5tZ5pJC0agl/TDjTwemmLazRkhqGGhFlqdS2v9S7UnOcdFUQ4y8c+pQN+mcxui68Wehk9FoI9JbBdiNXe30x8NAR7ztRblpqpDHkHDRfBqW6/U8P5kM0+30h+1rirTlfDxbnK0OkaDyBm7XlSqbdmSOn9P8tpnWpp8Ho/WT1mGR1kBt7wYHGthtHW4OnPJFVAxJEW101EGgOvzrS4mOFDKma9+ITI7t8PazIM2DZfDoqUWttHoVYwgvhhx/LF9gj22rl22xttBsPl2jqMnnbplZqvGrKlkSo45+lTmi+j2Sc4wv/C44IN2p7l2CXOuzI52uItpG6oYNGkNcOc2fPlIUcmmzcl/EEjBpfyMqrdR0MwL0BZYWDcqt03EuLJYGZDSD4iUhaAouIy1XihPDFAm+YZH4tnzcVvivaBmBjA5wgMkONjQjQSTaVwHrPjEeigZg9Z8Wt3FrPXdyQzERch1mfOhobjZpYarLqpHguxT1CZWhwhDBfyOdtQKjop+MxVrinbILZtOyqCsZfO/nrQPLG9pFk1npFnGhuT0bDOqxuqOIbMjBelkUmMHjseWZ3hY0Zvvp8O7GG6l/hUPerfSRN136cZYO7sJALUsrYhrZFnG8kTlUSzJk1VpgVg/Vpzi3Dd6D/KBwN//JHFZRUacnlfOXLhunH+4wxr4znIx2d89v5J83Ix+5FMD82JQG+9SmnxIOoMploccW9mtHV2KDUI1Ku2MRrk87JmvefSSod0Qq4NIMVo1zznzEkAuPDCIOIjhp6bE2YbBX+sE3bs2BB1BlM59tqYshwFAscTNQr+kO5mrVGNvqOZfKy5BiCXfVAeuaQxoDlf2nTjOCM0qujBkZ+zNAEoA2XFhugI5rtCaIsM/EHfFlc1dLWJ5etU9V11Elhbe+R5zUfnf6IXr/AcnK9tUiPZM00Vsn8StfHun1wK35bw7kdJSntXrkvbK8g/fe+VH9txNZIzNMwI4fNUuvZcaLkXZqX8acZ5ho8j/Mtnbvm7cVMyWGKAXVUPKX8tXX8NxmmfpQGpIBhLknGDyLVmxK/XAI9gvjXYSfBuM7bk1KqPzzPPvLVyhjQOXjE7N4Pj5cn1n2klRyoIpiK40/R4Y+g1s9hEgVqV9Aj2DFetZ9JK8xajfgPrv8Xn8dx1pSfhS0xfQDof2EoLUkMw+lQYLgO4SxuxFlceejso7jCdBORwMyrgpssZGtWA7a7rbJ+k+t2CSWy4QnzcQXUFBqy90ybaXfwwNQRT1dsvTDhqRjjHBtaCmdOS1HYO405KaeNKlQ7+aIjtFSmVqBDIxVhhHhn4ZdfSRqEUsdkOWee0+zQhuhzsK4s77NiL1fx3aIjdfN+wNlf7wBX7fwz810ssLusQ9SMzFwcG5FxOp4NbZs1kOUF3zsw15CIqoQkzkam8vohFfpBzegB9lCakOoOp+P1XByd4ruGMdz2+uiHfu73GUuTz3lYBJCLj2prKEmMf8OLE2k33KkUup/1MUQ1XJcB5gZNwzULFxgB/UHilZ2LEpY5gRvMoVeLbBmfEA06nqwTocc38huqv05w0dcSDkq2sfBirGkCWLz+1+ucJGBichGviIqSZzwdVm+nV3tNKfKok2iqEVYZtnyOOCTHMAk5ZZfeDB8yDkG8UDHQKJM1/JMPnzfIatSkeIHhQosRgkCJGoTeGoWLNrYWsrXWJ4lxKgxv/kN33hzNBMA1DDYd4YDsPUQPSceUHYqNwNw0SOu1uQLAhhtnsfaItnpABiV4aLZ73695gROluDNo7YbR/Mt3r1Em0rz5uMP7UWUQnr2wnLy40BpW4VkvrppCDVw87W9fYb5eKS/hf00YD2n6z9kGWkCmCIWO4rcJgAGi5djwqOKKHmLC9xK7ZieA1ShbfqRCN3G7fE+GkHb/FEznZuH5078xmuOUe2V/bCECZaHstUh5yxv3PFMFUHc70XyercD8pNAQk0xGcCADAsVoayMV9tlsAEswn7/iCjMmy1I3jCM1QgJsP+6A47d6A9uAh4jV1lpZ2mDmCaRCKe5DsvSaH6ohHYYA4wbFFBv7LpBbXiRCvR/PRwq2HjWwGmDYfut7uSrfEsC0Wf696xork6bhXHUEwTWBX/yUnla7Jqw0VOejX6q04M2kk6xskr9MweHhSA87qKCe1WJzKAYPLZT/qHHKpT0e7jpGPIsF/1witkT8vCy0R+3w7CSgnvC7ae16wjOCoz2cAPODXxZdIPUft07O6zkxMqtYgZgLcNdwzaxsk2rQ99gxuM97eavFZhVjDzPgx86XkHGkGHu46fi8WCh3kXD8Isqpnpfd0HMFWKXyS4a7RcplPl6VBumFqpk+xmGxDxB2DR24IRynBUfvDV0nH4XCULjFep27PdSrs2BfAqzZYuWo2n23xxeTEAPJiW8YtFwOAnedRtYyICZz9MfK0pEAGod9eQwqzFq3c/dfqjdazm6D7EPxx7+ATxZlUg4YHedl3GjMZU94Td8Q5PsGXXX7NhjSvZvTpLC8ccYhZtBu8QH3d7LprEWwVxCSHDRUybdtaLA3HPMQVfJSfebC9szesTDh2RCJ2ZnBcYaWDVkDsk2p84MgJv6vSyuimsOsRbJ2F+XAjXQuZ0d691tIJkTUhoRgses7nUoaImYVDPhYcjBkMEqxUlMGBojjb85VwXF0xboDcauWjqGDGYgL121p8Hbrteo5BsHUcWz34sgtbRdBVl89qyxcrhEpwNtb40cGQYGbPWOWnXc4ch2DfIRz2wnciIKfs+GNnQQzgjBCQikYN8m9qyBhlZ13GHI3g8s7inEs4XMgttltOTodZwzAA2cWjBG4cBQskm9kIMvEkYT8S6ykkvlsZpvL2NnLfNXJwI5WtlwcD/ET9FZD0gPKMBeS5BwoE5xm72rYCwQWCc94DOW9eMYMLBOe8B3LevGIGFwjOeQ/kvHnFDC4QnPMeyHnzihlcIDjnPZDz5hUzuEBwznsg580rZnCB4Jz3QM6bV8zgnCO4aF7Oe+D/zxiVRRcW9ukAAAAASUVORK5CYII=;fontColor=#FFFFFF;" vertex="1" parent="fBxkdswX3Kox4M81FrW5-1">
          <mxGeometry x="99.50999999999999" y="124" width="60.98" height="62" as="geometry" />
        </mxCell>
        <mxCell id="fBxkdswX3Kox4M81FrW5-10" value="S3" style="shape=image;verticalLabelPosition=bottom;labelBackgroundColor=#330033;verticalAlign=top;aspect=fixed;imageAspect=0;image=data:image/png,iVBORw0KGgoAAAANSUhEUgAAAHoAAAB4CAYAAAA9kebvAAAAAXNSR0IArs4c6QAAAIRlWElmTU0AKgAAAAgABQESAAMAAAABAAEAAAEaAAUAAAABAAAASgEbAAUAAAABAAAAUgEoAAMAAAABAAIAAIdpAAQAAAABAAAAWgAAAAAAAACQAAAAAQAAAJAAAAABAAOgAQADAAAAAQABAACgAgAEAAAAAQAAAHqgAwAEAAAAAQAAAHgAAAAAzuYkvAAAAAlwSFlzAAAWJQAAFiUBSVIk8AAAEd1JREFUeAHtXQl4FdUVPtn3BJIQSAgJkLATlrAISJWdKm6o1K221q3Vqm21ivWril/7qVVbW21d+/kpftYFcMNSEGSTRdkCiuyBAAmQkJB9z0t6/hvuc94kL2J8c2cyb06+yX0zb97c5Z977rnnnHtuADE99EZSC1KH7NkCj/+8KCDQnlVzaqVvAQdofYvY9NwB2qbA6qvlAK1vEZueO0DbFFh9tRyg9S1i03MHaJsCq6+WA7S+RWx67gBtU2D11XKA1reITc8doG0KrL5aDtD6FrHpuQO0TYHVV8sBWt8iNj13gLYpsPpqOUDrW8Sm5w7QNgVWX61g/YWucB4XmULxMf0oLiqZYiP5iOhFMZE9KTwklsJD4/jgNCSGgoJCKSggmAIDQyiIj5aWZnK1NJLL1UjNzY3U4Kql+oYKquWjrqGcquvPUGXtKaqoaT3Kqo5RceURamyq6QrN0mEZLQ10ZFg8pcRniSOZ06RuAymBAQ4JjuiwUt6+DAgIokAKopCgcHFLJP5H9fZ2u/s6gC+uyKWTZ3bz8TWd4LSofL94cdw3WfyDpYCOCk+kzOQp1K/nBOrLR4+4AZZovtjIXsw5elH/Xue7y1PfWEXHTm+jvMLNlHtqA+Wf3k4t/GdVMh1o9NCsvlfQ4D6zKDVhNAUEBHxnW1XUFFJJ5WEqr85nNlvIx0lmuYXMgssFC64DK26sZBbdwKy6SbBpF7PqQPRowcZb2XloUMRZVh8j0qiwBAGoGA4Y2PjodIqPZQ5ylgNoCxYWEk0DUqaIYyZ/UV1XQgdPrKZvji6j/QWryNXcoL3d9M+mAI1GGtV/HmVnXEupiaO8NkJjUy2zSWaVJV+J9FTpN8xCD1NDU7XX33T0RXOLi5pdLmpytd5VS6VUXnOio59QAP/FMXsHd0mJH0EpCVnUO2EkdY9O8/hdVHiCqBPqhRdt99FPaOuBhZRfkuNxn1knovuocveFEHXB8LtpdMY1FBYS1abOruYmOlr0JR06sZaOMEssKNnJPaOxzX1WuIBe37fnROrfcxINTJ1BcXzeHuUX76TPv/kX9/SlprF2uPsqAToirDvNHPUgjcm8noJZEtZSk6tesLqv8z6iAwWrqZ5ZblekXt2H0rC0S2hEv7mUGNu/TRWKyvbTih1/pn35n7b5zugLSoAGe75o7AKKZLC1dKp0D2058AbtPLyky4KrrY/2c2piNo0f+DMawbKHfoawL38lfbj5PiFTaH9j5GdDgQ5mAeaqSX8Xb7i2EodPbaS1X/+Dck+u01625WdMDycOvoUmDrmNInh+LwmC27uf36GsDQwDOoSl2ZtmvCOmSLJyRWUHaNm2h1kyXSsv+U0aEdqNpo64l0G/laX+IFFvyB7vrL+d9hxbZng7AGhDVKBXTHzaDXJLS4vowf/8ZJpfggwUaxvK+CV/hF5cNpuKy3MFsNDU/WTyC6wEGmw40MjA50BDk4UpBqi52SXe2pU5j1tWehYFVfQPU8UXls3imcVWkSPG71mj/6Akd58D3U+jPdqe+zbPJz9WUpGukgk0au+su9Vd3P69Jrs/G/nB50A3NH5rAGjmebFDbVvAxYobSQ2KDCY+B7qErT2SslkxgvmlQ54tcDFPNyWVVHzbXvKaEanPgT5TmecuJ8agm2cuorQe49zX/PkDBLC5E59lGeZqdzNoO4b7ogEffA50eU2Bh+AFi9Rtsz+ii8Y8ymrPGAOq0DUe2Y9VpXddsprGDrjeo8AlrLtXQT43asC4X1p13EMNiLnj5GF3ChXoxr0vs0ZsIVt7ilXUz/Q8MpIvpAuG/ZoyUy5styyqerTPgUZtwL6lvhfzxsS4DFHJiLBuNGPUfJqS9Tvae/x/rP5cLPTbzWxKtBPBsjWy35VimtkjLtOjalW1RawWjXIbdc5oZBqPG318YhjQspxbDi6kwtK9NHvMI2zmGy4uw7CR1fdycdQ1VLIiZQ0bNlbS4ZMbvtNsKJ9rpRRjb5/EMaLXDk6dTcnxw9oUr9FVR1v2v05rvnqW5s/b5f6+S/foEo1AFh/dlzbueYkOfTKd0AjnD/2lh6dGeGgMA36ZOFB7cAMoFPKLd7AtdycVlu2znM9Wt6g+wr0pNXE09emRLUDWGy8kkjX1pWyXfpM27/u3MGTAti0dGapqT7NBp0reamhqeI+Oj+nrrsC+/BVsplsh/L5gk85Kv8zN1uVNuB/H6IxW7RpUqGeqjhLMfBBczlTl8ctwlHv+SaqoPsGeJBXypz5LA9mhEM6GsDl3i0oV5UWZesRmUM/uQ5jtRneYF3rvwYI1tOvIEh6iVnh4m8CjRpK2Q8hrRqWGA53ADaQnsKtVO58UR1LcIBrYe5pwyUlLGk+hwcJlz/0TuBbhGe09BzfBCwXWIPScGvbiRA+pZw+UhsZq9iSpZVci9iphxU2LUFIEsFGB3YgYyOCgEB4rIymMx8tQPiA/wNoEcyrs54Hf0wyA+XDuqfUsc6wRVilvihBPoNXModFOxgDNPVBSt+hU9gML9OoxCW9KHBv2vCgASEkYwawwm12MRgtlSyL3ouCgMPm4NilYJvLAoYogUBUyhyko2cVDTA47CW5htlx0TtnDTVmSKkEM+RkCdBOzLrjIwnMSggrYXyn7SH8XQfoWYzOPz5LwkoBtoucnsd8WAI2L7M1+XCmcpoieKO/1VQoTYqtv90l2QCygMh4i4IyI4aOo/IBwQOxsXgmxfd0/VaUVQ4aGAI0HQ6gC0CAAdS5Ai5t1/zAvx9iMA1MyPcH2DXYbzjbfiLA4YeCHkR+OD2DTQYHsxH82BfsGiNoDrL6OzYi19eXCnAhP0loeBoxy3U2M6e+uAl4eVWQY0BA04JsNguSdS+sNqVMjj8PlNTg69uY0JPNOPLR7TLr7Vyp7tM9VoLIWWp03erRDJJYOSWGzpu6MITMGb+2sBGhvErO3Qtn1OhYDSFKlKJH5KQHa6dGtzW3W+IzcDQO6hBUbkswGGgoOuDhFhfeQRTIl9ejRFXlKy2CYMAbJFUtTsIQVqzJgrjTDYjV95AO8OuQuMReHlu2rvA/oA/arNmMprFnKErxRhvVoPFyr4jOjV08acjtNG3mfW+ECLRusSnMnPIPiKSfbAu0hefMUSzXBj7o9GsFgQ92pmrRCqSqHA1lHQ3u0FmhtJWXmRqcwSrRH6NnnDfqFUKq0970R12Iikij07MLC2npW0LCSRiUpA9oM1l1YttdrW84Y9QDdf+U2doL4rVgb7fVGH32h1XGrnlqhCoYCbfYYvTLnCWpmFao3io7oQTPZgX7+VTk0Z9yfWCffx9utP/i69LjBg2wHNGzHkhI0qj95zegUnisLP7uOjrORBGbD0+UHacnGe2jploeorCrfnT1YKgS3++Z+Sdde8IqIvOD+0kcfPHq0IodAbdENm14hEzgGNHF4CbgORWOMYvuvNzuttlC+/HzwxNp213xtYbeerL5zeep1J5tDW11/4MQoXZzg5bJp7yu8CO6/zBW+dbjvbNnMlLhRZkNZNyxAWqtVdxMkb2/AALxdRxbT80un0eurrmFngfUet6YnjaPrLnyVfs/jOKI0wBnhh5AWaMwGEB5DJRkKNCpituR9Lo2JXv/aynn03MdTacehdwUXkr+D3Xt29h9p/tU7eb33c51m6wkaPTecKn518XK6dPwTbTxqZL6+TpUCHW/COP19GqywbA8t2XQPPb0km1bv+ivBeU8SHPqyM6+hO+YspzvnfEpjM284Z5CgetX7mcFVacLgm+mey9axg+FYmY1hqeFAmy15d6blqupO02e7nqKnGPDFG+4SLkPa54Dtzp30N3pw3m66grVsvRO8R1bC77Q6BPi5w2FQEnzAsZLlvEE3yUuGpGL5/Y/mRi0w5On8UIRlgtoRBE8OOO13FYJHCmKtbD34plhoEBQQwl6rmcJjBXWAkAnQxw28kYanX8qOhtFUWn28jQtv/+TJNDTtYlHtQywLvL3uFnZLOkAZvGQWPm/o3YNSZwonxryiL3zePJ9/WP2Y4T1aO0aboTTxVavBlw1s/S+LRnL0ggViqqZ9dk+OXDB7zMN0/1U7xMLCcQNuZDVrgrgloR33Iawbf37pVBF9UD4Hc/phaXPkqU/TADzNyDhjwYFhtOCGoyIiICIgPPpWH59MV3zaCp18GFaJjh3wU/ZPv9St3tQ+CvXNK9osfNrkFG7xxrspJ/c9923wabt+ymu8uAHxB4kdEQvomSVjfOqzZlgME3ct+ENTc70I4YhrmKfCI9QudOz0Vnp/02/oiUXDxViOQHhaTRzqi4gGEmTUGz12TOZ1wj4OvQJCSb7HEYqg/wZ145UciQbEQDVUYSJKzv/AvjFNAYF9Y+WFnQhKoJzDi8QB4wVimwJQLEjQLwQY0ufHhEMSVnVg7MdLIQmhpX1Nho/RKHBXlLw729Bw5IdG7dUVl9OTi0bQ8u2PdfgoTNu0IO868j5VcMxwX5OyHi0Lrp1qyGt2Tat5mna0aIu7eghYu/3Qf4TSBcIbFiNgFQo8X2DowIxkHQfbM4LUAK0xbnRlybszAGhVnwjqvn738x6PgbCKcdqoBQMyMzVA8xgtyd+A1lqt0KP1BGFVBakfoznYuT+R1g6tclGdvo2VAI2NSeT0AbbfaJPdbvWNYOS5tkeb4XAg66YEaGTmT5K3bFykWquVyrVW2jLgszKgtapQf5G8YcOW4ZvreWE+jCVmkTqg/VDy9lyCoy66QXsvkzqg/VDy1o7PZgpiAF4Z0P44RpsV3cAyPdpfxmitskRldANTgcYmZFDgg7DgDpGA7E4Jmt1yzJS40c7KWDcyK608hkSQP/Rqzx7tJ8IY0NVOseyuCsWut3ILKJgxsaWimaS0R2tXbtgdaG1vNlvixgumFGh/krw9x+c8MzuzyFsp0FrWbfcxWtujzdRxyzfMNKD9iXX7HdBYhyWd5xDmEcFX7UpajqU6ukF7baq0R4sYm7zCEgQ/qe7Rxq1Hbq+yKq95jNGKoux3VD+lQKMg/iB5Y5MYrFABQUkEZZHZpBxof5C8tYKYVgA1E2zlQGsrrh3HzGwEX+ft6WzQ1k/M1/mdy/NMBdqukrfnWqu8c8HB8HscoA1oYi3rNtuYIaunHGiPMZo9QhFh327kKXH7Keuub6xkKbRVwY+1wVOz7rUVzoNTZ3EEgzGiTliBgfXVViBTutOmvS+56z591P10w5TXOUp/1/b3Dg+J5f03F4i6yIV1CDCLnXusQKaopjbueZnSkybwqsLZog2Gpl0kVvxjcfiW/W/wmmLfr/o3qrGxi884XiONddKIZCwJG7N9/MV8eWp6avhCeG81xO45s7MfFjvb6e9BsLc9x5fxZmireJHalxwlqNUzRX+fWeeI/T2w93QRrqK9MFJ7jy+nRRz7BMOUFQgL4U0DWjYA9nREeKd+vSbJSx5pk6teBIs5dnobpzvFmFdcket1Hy2PH/vgBOudsZA9JZ734+KxN52jHESGtx8ZGNslrcx5UrykPsjaZ4+wBNCyNugZ4wfeRMPS57id3uV3+hTRCEt5MT0WrWFfKhzw4Kjm8RC72mEbQ+xkB88O6Nexkx321IKED0MKtknCNkoIGB/KAWbgCQKVJWKDYi8tRB3AHB9sWcuO9eXAuYuffaBgFW07+BZzoE/bu8X0a5YCWrYGWHpG8gU0MGWa2L21hwFhHmRenU3xMh0p3CSA3Ze/UuyT1dlnqfgdgDZFGOuocuiBBwo+EwfuQwD1NA64hq0Mk5mF9uw2RCwgxwuhgrDtcRELVqc42Fx+8U4RQBbnXY0sB7S+ATE9AUvUskWwYNizEYkQ0zJEDsALAfYrUv4M5zzM01vjeGHj0SDBvsH2Idw18eJzF4//dbyTHfb6QHSCqlqkxWIYQJwV7GprtlOfvj06e255oNurGLYxLOPAbTgO04b2bnGu6VrAFIWJrgzOqYIWcIBW0MhWyMIB2gooKCiDA7SCRrZCFg7QVkBBQRkcoBU0shWycIC2AgoKyuAAraCRrZCFA7QVUFBQBgdoBY1shSwcoK2AgoIyOEAraGQrZOEAbQUUFJTBAVpBI1shCwdoK6CgoAwO0Aoa2QpZOEBbAQUFZfg/WdS45GCuRIgAAAAASUVORK5CYII=;fontColor=#FFFFFF;" vertex="1" parent="fBxkdswX3Kox4M81FrW5-1">
          <mxGeometry x="100.49000000000001" y="228" width="61" height="60" as="geometry" />
        </mxCell>
        <mxCell id="fBxkdswX3Kox4M81FrW5-20" style="edgeStyle=orthogonalEdgeStyle;rounded=0;orthogonalLoop=1;jettySize=auto;html=1;entryX=0;entryY=0.5;entryDx=0;entryDy=0;strokeColor=#FFFFFF;" edge="1" parent="fBxkdswX3Kox4M81FrW5-1" source="fBxkdswX3Kox4M81FrW5-13" target="fBxkdswX3Kox4M81FrW5-14">
          <mxGeometry relative="1" as="geometry" />
        </mxCell>
        <mxCell id="fBxkdswX3Kox4M81FrW5-13" value="API Gateway" style="shape=image;verticalLabelPosition=bottom;labelBackgroundColor=#330033;verticalAlign=top;aspect=fixed;imageAspect=0;image=data:image/png,iVBORw0KGgoAAAANSUhEUgAAAHoAAAB6CAYAAABwWUfkAAAAAXNSR0IArs4c6QAAAIRlWElmTU0AKgAAAAgABQESAAMAAAABAAEAAAEaAAUAAAABAAAASgEbAAUAAAABAAAAUgEoAAMAAAABAAIAAIdpAAQAAAABAAAAWgAAAAAAAACQAAAAAQAAAJAAAAABAAOgAQADAAAAAQABAACgAgAEAAAAAQAAAHqgAwAEAAAAAQAAAHoAAAAAtCZ33AAAAAlwSFlzAAAWJQAAFiUBSVIk8AAADGlJREFUeAHtnQuQFMUZgP993j5ul7uDAw95KOENHo8TBYUQFYwGJQQhAYPEoJgYosRKWRiJlpWIVsVKBUJIjBGjhgTCK4IRiVIQBBUUExTCQ9QEjJzI67i7fb/y/z3OMLO3s0LcuZ2Z7r9qamemH9P///Xf29s93QsghAsLOEjLxtr5OS605VTJuuMLHE5OdedObQGaE+QCtADNiQU4UVN4tADNiQU4UVN4tADNiQU4UVN4tADNiQU4UVN4tADNiQU4UVN4tADNiQU4UVN4tADNiQU4UVN4NCeg3abXs8INgRkNELjjCoBMFk5PexYyR06XtdiuHtVQvWImgMsJ0Sdeg+iytwAS6bKW6bMebl7QBPiWSyF49xfBdUFY0cM3uR4iC7cq1+U4oTK4e9eyR4cfvRGCc8dC5JevQPQPu0wL3HygfQh45ggI3oWAu4TacHR4XG3utfeN/DJQRQw/coMEfDECf/ZNgLi5PNw8oP0eCHzrMgh+fwy4Ole2N7uSPI8qZvjhCdgKoYf/ahtEn3kDIJYqSd6fN5Oyg3YEPOC/9XIIzhkNrlot4MyxFoighzjRgJXo4WaUVixfFsupboGoooZ/cj3eGwORJdsh9vROyEXLC7xsoAlwYNZICH5vNDg7BTUMMx83a77zKu+9WhNuqgtsoqNPvI7e+2abPgVV3PBD10EltlKRX2+H6FM7yga83UE7gl4I3IaA77wSnB3zADciYPqOM3GnRreSYa87+uQOVnbWiaQ+Rp3UiaSKHHrwy6zVivzmVYguReCRpG5WRgS0G2gG+PZREuCagEaXzNEzkgcvw15rMqMJs9yFDBw7ZIEZn/5q6NqBqUEVO/Tja1krxoA/+Xq7ATcctKOyAgKzEfB3rwBndR7gj5qgddErEPsj/g5NWRxwfo3ECht9aifzcP83G6ByLnr4hVUScKzoofnjEfiVEHkcf4f/DoG3JvJzKOm1YaAdIQSMgxzB7yDgKr+m0JkPT0uAl//DfoA1muIFVuDY02+wyuyfPlwC3r2axaKKH/rRONbKRX6LwHHwJddiDPCSg3aEfQxu4I5R4OygBZzGES0a7IitQMDpbL5J7H1NwLE5j/3pLfBPGw7BH4wFN46wkZAjhOZdw1o96tgR9FxzvKT2KCloqrGhn34FnAhbLenDpyDyCwS88p/8AVYbgs6xgsewL0KV3f/1YRC8B4H3rGGxyDHoF0YAW8GWBzZAjFq8EklJJzXCj96ggZz+90k4M3ctnBi5kNVk7ry4GCQCjt5NtiEbka1kIUchW5ZSSurRjoBXKVvTXWsgvvptNhGh3BQnbS2AEzXkubGVu8E3ZQhULb6JxVHbsm2i879TUo9WPz7+Z2ymUQkh52gBtBWz2TlGP99ohoE+34KI+MZaQIA21r6myV2ANg0KYwsiQBtrX9PkLkCbBoWxBSnpzytjiyrlTnO8NOqmlk/6LFAuO702F5yqeW16xSeyeBsL908bxgZ0lMh48v+kdeBrTlYTy5XY4fMAHXriCPk0Q6+auF63Jiw/j8+TNj8vs12LpttsRAwqj+U8OrJkG3tbQ88eJ8YuBoeL7ZPHoqgn+GmsPfHiPr2kcK5p6a2Y4JwxuvmYMcByoOndq+zxiK4tc6eioLsNIr72ky3ydua5pi33+1+6yhcJEE13EePYKUiAthPNIroI0EWMY6cgAdpONIvoIkAXMY6dggRoO9Esogu3oF0XdwR6kZEX4RZ0+LGJ0HnPPOiwZArQeme7C5egnd2qwDumFzhwBafvpnrI2W3xQIFaayvQztoghBdNBlr+U0xoFsvhkIZJk1vegyyu+ZKF0lIelJedxHJDoHrGp4VsNX+5Ddx9O4P74hrcAuMZ3ZWL9AK9LOp3p2mFZ/XymeAdeRF4G7rBqUlLIXtCf7hVzsMKn7bwaIJcvXYWg0xG94zowY5CALyjeykrJLKnoxDfuF+Jpk5HFYbyzF/Sq0S22InlQTs6BqB6zSzw9O/CTJ/D12bP3LkKklvfL4jCf7PKm9e8o1m9SWkoLeVBQnlS3vQMq4ulQTtwVWINQR6ggjxnNcSf21OQCy38800YpITRSol8obRnMA8FNuZNz6BnWVksC9pR7Yea1d8Gz8ALmP1zWfRkWh2yFr1UR3xfq2c9bQpO7WmE9N7GgjEpD8qL8iShZ9Cz6JlWFcuCrlo6HTyD65jdGeS710pLgIqQ8N/coITGlrf1ZiUQT2g50RnMU4GNz6JnWlUsC1qGTIbPHGmCxN8OFGXg7tcZvMO7sTi5ZBpia3Bd2GcI5Ul5y6J+pnzPKp+WBd08/wXI5aR3SdwX1UhNa5EhTVrSK0ti4wHInY7JlwU/aXiUvpspbxJ6Fj3TqmJZ0PFVu6H5nucU2J4hF+rDxq0cfVOHKoyiBTphSiCeMMj0/V/fld1mkPFZ9EyrimVBk8Gp19z8w3VnYQ9F2KtuBepdq6VifF9lD7MMjoIl//6eOlhzTmkpDw/mRcIg4zMK9dA1CU1+YWnQZFvaPaD53vVnYQ/rBtUrETZukiOLphNGy3mzhV8fpDSU1oN5kDDImDc9w+piedAEgPYGaZ73vMKCmlzZI2nMumJcXyVMPeSp3Pz0hNLIzTXdojwpbzuILUATCNr5p/m+59lMVNPsFZDc/gHj45uKExhuaaPY5I7/QEa1hUQ+QEpDaWk2i/KiPO0itpnUICC0r1di07ua/bwDqt52MW+WgSY27IcToxZq8pDDrPxpG4+WIag3bffg72b6/UySxQ3b4usKD43KaeVPdR7yPat/2g60Goi6ExZfv1d32lKdxq7ntgadeucopA9+wtidS7NtV8ikl62+o/NBsZ36sNfsHtIV0m8fzQ/m6trWHi2T5B0y2YEL0DJwnj8FaE7oC9ACNCcW4ERN4dECNCcW4ERN4dECNCcW4ERNy42Mea/pC6G8f9tpuf+vCq7K+8fhSwdnl8MmNh2E5OZDLNx7dR+cm+6nxKUTddoQ/r+kWtRpPZf1AN+kehZMkyVWE+uBRiPLb3PKxlbD8k9v0Px5aQ6X3SigG7pD8PaRcjL2qU6bH6ZO68ZVG/nhmoxMfiG+o00OqFTFs5xHJ7YcggQuddWT1sc2g/r/KFK7jihRKW22yP9KNT/4ohKXTtRp6VwOr7iqN1Rc1UcT1+wXlgOd2vUhRB9/Vdeuxd7xorR06EmxfNP7jgEdJE58U9RqoEXTrUfdZvcFaJsB1VNHgNazjM3uC9A2A6qnjgCtZxmb3RegbQZUTx3DQPO0K5+ecc/3vpE2M+x3dOd990ECVy3G1+3FvzfYb/g/np+vUc0Snxb2VVw/AHxfHQwVX+ptWLFKCjqFe4LIuwI48B9pfNf2Z0cukYYETizQRjCJl3AReiRpmEJWyJg2rasg20y6BCpwoqXQ3yuRLUspJQV9aurvITBjBFPAM0jaRIYKS4r4qNbikYul2PooWh4Tf/kgro5LlVIf8+ZF21GO74eei3BxdSdtT1lIUv/6mDlEdFlpV3GWFHTuZBQii7ayw/WFTgw4NUnyHmCkGNt/88ZB4MMji56dePmA1Lzj4jhAz7eVYAUnqKxZHt8fnDpbV6YOHGM2oBYv8/4JQ0xQUtDqElKBIz/fwg5X31rwYzNFtdndp1aJRor7cY6XDloEl8Bd/Nh3Ok4+QDKjxLPUidfFxsEZ3OsGgFO1IF+tR/rQcdR1D8QI7rvH1UGGnBsGWl1aUqT1Z5vZ4R7YRfL0iQi9V0clGhnEP2UoO7LNcdaBIyMkt+rPVCmJy33idoJ3bG9Wmalj5dTZNCf9wUmIr8evLNRLniBpr6K3C2i1MqRgKx2PbAL3JXXMy6n2u3tKu/9QXDKU/xvD2JFtikH2pHk3XvVNrofA7FHgrCq82Vz68CmpWUbvTeMmduWSdgetVpQUb6Xj4ZfAjdtKsOZ94mBw4X7aspAB9Ywoxynnpxv7IvmS+W8Teu5e1iynd3+UH1yW67KCVmtMBmmh46GN4Lm0u+TpBL0urI4GuXj5e+mFykC7HRFc+t4tNuetUaYdL0wDWq2z/IJAywMbwHN5Twn6hIFAv8fp+63cQh1G/y0j2M/G+Av7JLg7D5e7WEWfz7ahb6ydX3g/pqJJRaBVLFB3fIHDsLFuqxiBl3IK0JyQFqAFaE4swImawqMFaE4swImawqMFaE4swImawqMFaE4swImawqMFaE4swImawqMFaE4swImawqMFaE4swImawqM5AS3U5MQC/wMOfzShNjcjGQAAAABJRU5ErkJggg==;fontColor=#FFFFFF;" vertex="1" parent="fBxkdswX3Kox4M81FrW5-1">
          <mxGeometry x="278" y="124" width="62" height="62" as="geometry" />
        </mxCell>
        <mxCell id="fBxkdswX3Kox4M81FrW5-14" value="Lambda" style="shape=image;verticalLabelPosition=bottom;labelBackgroundColor=#330033;verticalAlign=top;aspect=fixed;imageAspect=0;image=data:image/png,iVBORw0KGgoAAAANSUhEUgAAAHgAAAB6CAYAAAB0rJfZAAAAAXNSR0IArs4c6QAAAIRlWElmTU0AKgAAAAgABQESAAMAAAABAAEAAAEaAAUAAAABAAAASgEbAAUAAAABAAAAUgEoAAMAAAABAAIAAIdpAAQAAAABAAAAWgAAAAAAAACQAAAAAQAAAJAAAAABAAOgAQADAAAAAQABAACgAgAEAAAAAQAAAHigAwAEAAAAAQAAAHoAAAAAYBrnGwAAAAlwSFlzAAAWJQAAFiUBSVIk8AAAD2hJREFUeAHtXQm0FMUVfT1rjx/4gIKAKMgeERMQEBAM60ETc2JiTkyiMbvGuEWDa3ISTaLRLCYkGrdo9pjNaOLJUURARFBAUbawCyKLgIBsf3rWTr3q3zXVM9PD1HT39PL7nQNTXV3ru7+6quvdeg0QSqA1IO2/AdRA97CDdy7Swfsf+O6HAAcc4hDgEOCAayDg3QtHcAhwwDUQ8O6FIzgEOOAaCHj3whEcAhxwDQS8e+EIDgEOuAYC3r1wBIcAB1wDAe9eOIJDgAOugYB3LxzBAQc45n7/JGi5/K+QOOtikCJRx5ujFvKQWfwAtD39Tcfr8kIFro/gSPfTIfmhTzcFXFS4FI2BfN71EO072gv6d7wNrgMMsaTjnaxWQWr67dWiAxfngUd0SaeFvRvg0D3DShE2h6K9z4LWm1bSUuNnfhwiPYdBce96m2vxVnHuj+Am6qOwexVk1z5Da5QiEUhNu62JtbtTVYcCGFWszLuHaTox6nMQ6Xoauw5iwH2AJamkV9V5inZ+2xLIbVpA66QLrqm3lOoPYMh9gF1Qanrej1itybFfAqlTT3YdtECHBDi/cS7k33mdYiklUiB/+Mag4cr60yEBxt6nX7iLKUE+9yqQ5FZ2HaRAhwU4t+bfUNijvSJJchdITro2SLiyvngMYOcXWaznahH4uViedB1APMVuByXgOsAScKvoJms1u+IJKBzcTmuNdOoByXFXNLkFzlfnOsDOd7FGDcUcKPPvZQnkyd8CiMTZdRACHRtggmBm2W+heGQvxTLa7VRIjP58EHBlfejwAEMuDcrC+5hCUlNvJian4KglOD1hEIkHlMUPQjF9iGaM9hxKbNOfEi/EozncB7jJW5VVccgchszL97Nb8rRbWdjvAU+ZC6O9zoDu94m9KqGJ8chDM6D4/juWsFBemk12tG4AKXECxPqOhPiwCyC3/llLZXohs+sjWC1kLekBH6mpmXdaKgMzq8f2QebVR1k58vRgmBJdB7j43mbIrnwS1GKRKVc0kBh9GTH7nSqarSK98uLPQC3kaHx8wCSInT6xIo3fInztRqnz1QshPvA8qnNl0f3Q9pT17caWSx6D5DlfpmVm1z0LRx/9iN8wNbTX9RFsaI3gRXpuyWCQPOcrILX0ECyhMnl6/o/Z0yTxgQsg2ueDlYl8FONrgPMbn4f8jhVU3dTsN9m62a+4bwPkVj3JIJR9Ts7zNcCIgmEUT7DH7JfmaT3knThy0mAGuN8Cvgc4t+ZpZvaLpFptMfsVdq4AnH9RNHKef9+LfQ8wmTCJ8f5uNrA0s98J7LrRgPJCidaTOPsykFr7NlqUq/n8DzBRX/YNYvY78DZVJDX7jbdu9stvXQS5rYtpmVIsAakps1wFqtHKAwEwFPMGs18KzX7RRKM6YfkUfpU+7mtklX4Su+eXQDAAJtrWzH57qN4jXftCcswXLGOAW5X5ndpJCNzClM/z34G1wAAMeQWUBT9loMpT0Oxn/bSiws3vyYlXAyQ7szr8EAgOwETbyisPQ7HtINV7tMcgSJBTi1Ylu+qfUNi3iRYTSXUF+dxvWC2yqfkDBTBkjkBm0S+ZAjWzn0XOFyXnlY670Md0TGZ1eD3gG4Cjvc6Ert/bCa3f2UY2HgaZ6lUhAKuZY/R+rM9ZEB/+MdO09d7Ivv4nYo7cQZNHuvRie9X15ncznW8ATl14D0Ra+0C0ez9Inf8DU52pbQdAWfIgu2/LCUJi0kwb5vebCDnPU6Z01t/ygC8AxnO9iTM+ytqOc2ukxxB2XR5QFv4c1HyGRsf6j4PYoKnlSYSv0VZcPPoezRft3h/wZKIfxBcAyzO+bdAl3T6sYQRQD++ir016JltO8+faQFk0Wy8SUvRUosX5nZXmXMDzAONGfzUSXGLUpYD+PcxEmf8TsotZoLfjQ6ZB9LSxZknrjs8Qm7OqHKHpkV4UH3FR3XndSuh5gHEOxRGLggaA3Kb5NEzP9tYgxxUPvAXZFX+hafG/1HTjU4DdEAioyvugLP41y2HL/M5KcybgaYCRhoN0HF1w0yE994f6Jdmt+mJNI4Ay715Q2w+V42o6evJwlrfRgPLSL0DNKTR77LQxEBs8vdGimpLP0wDjbpQU1Y6S5La8BPmtL0N+8wJiBFhClaMZAciK1kQKe9ZCbvXTWlpCz7XDeK8eeRcySx9nNdoyv7PS7A94FmA8dY80HF34LUNlbuk1KYlGgE4n68kqfvkThImRl5B5e0BFGtEIZQGZ34lDNZT44Clkfj9HtIimpfcswHjqHmk4KEjLyW2Yw5SSW/+c8YQ+Wo9MpPDOcpL3eXoXPenZQWovHtxGTZR6lamyVb4e74VfTwIsybjnexXTD0/L0SP5uZie0D/hRP1WxS9PCEiOuRykLn0q0ohGIK2Hze9nXAi40+ZF8STAyUnXEJcKXai+CnvWkXn0qQrd4Qn9/K7VNF5KdqppystvWQi5ba9oaYlnPTuM98U9/zPO7x71ueU9gOPE7jrpegZomlJnqh1nUUHh/GygC4ZafjaMxvsrQKox4lnlxwk4Mb8fp0rh254DODn+Soh00pgThQPGua68d9mV/wA8m4RCCXcTrylPwq5z6/5LRvwqei0lW2qOeJbpOAE6v298QSsT53c8euox8RbAhGZD6TbtSsL3WKTjmAol3JXIcXh4DBItpskNo5hMA3YY7w3z+1jyXt65t2n9btzwFMC4cRHpegrVQ/HwbsN+splysiv+DIX9W+ntSMuJIBNutJk4YbzH9/L820tplRKZ36kbCLMGuBDvHYAJvYZ/xOFBMChoFqGaekHCHUdUpwo2M8iXG+9xxJulrVmp8SY/iuUJV5L5vbsxgYtXngE4MfIzED1pIFVF8RjadB+uWy2Z5b8zGuTHfdU0b/a1P5bSdj6ZeNYxT2taSNmNHPFgm9+9hsbiij458dqyFO5degRgso3IGQ6oWS57tH6toEGeHBrThZryzGizxLMOn1aePIus0LTtUD2/+C9Z0XP+Lyn5vsZaQLz8xnN4AmB0zh3rrW0UqJmjhFf1K+EeZZb+hnjL2UPzHY82m1n6GDHe76NpkSGSOPtS4frKM2Tf+BtZC7yl1d/SHWTyNuAF8QTAvNkNzXFqWmNGCikIveXgvN0u9IlgRqtB4z1hfeiSwqeHVc86aoGQ70tPEboWMHuK6BU34dd1gGNDZkCs31jaVTTD8YoX7T/1lnNsP80WPXFATVpNhvwhGT3rXCxaXUX6zDKyFiCrfxTkj+FbgdviOsC8uQ0fnWiOa1jIvI32Wl1o2SYjU1UOlXnWuU3P1vgvWfUrL5Z8btG3AhvI9403iPyhWclsNW+s33iID5pMi0HzG5rhrArO3/zIjBNDgJmgZx0120Zv6551zNLWG68seQjwLQAF3wrsIN/XW3e1dK4CzJPpcMOieFA7IVitofXGqcph8hTQFluYJ9K5l2nWSs86t5umrfsGeYpkXi4tEmVqhHCPnOcawOj7QqfCoocd/lR93cqskjA+4hMQ7alRahHs7Jt/r5KqFIV8ZzWfpRHxARMhNkBz6lJKIR5SyFOkRL4fAbWeIuKli+VwDWCePpNb/S/bvl9EV8TtOsBFFxLlaol6aAdkXvsDS8K3i0UKBtS2/fSclJ7NTZ9brgCMpHWeCstv9elKaeQXCXBIhEMRWZHj643upysxbCZETxnVSPWGPNTnlv5k6D8eYgMnG+4368IVgFNTbzVQYQs737Clv8YV+eOgHi3NxbUqKL63yfAot4OCQ8n3ZAtVF75telwzfpsOcDUqrB0dReIbEuBQGlmR81uN8TMvop+9s9ou7cnQTr4fOsOVD2LGrHZCNH81KqxoGdXS8yMEfXYgMU5E9M/eJQh/Wv/s3bEnrHkJKO7fQp8MyVGfpU1pvXF5zSYV9m2GI4+cD5jPLmnqCK5FhbXSISS068dEkQjX6IqcXwvQz95162+lWTQvPhl0ct7xCrPr0DpfT1MBNlBhyYepeCos3yjRMO47S+1+p5GMh4S4RqTw9qtln727uZFiDHkKu1fT3S2dR224WeUCSQN2StMe0RVUWM73hZUORcgoQ1uyLjwRTo8T+cUPZulzOX72Lv38961tn5LK08/Mov/M2oHukFMzv2t221J800ZwPVTYRnqC+714EA0FD6YVti9rpBiWJ79pHqHgaGVIcdn3n71rDsDE+F0fFZbpua4AHlnBUaYLP4fqcY388uXIE74OUqpbI8V4Ik9TAMYPTjEqLCHI4SrXDpGJd1kcZSj57csBR58dklv7H8i/u5YWJcmdif/L6+wo1pUynAcYqbCcG0BqFK9Fha1TDXROJ6NLF37U6XGN/yKp/m6WXaPgdGLXfgo4DjClwhLjN0q9VNh6FFgxp5PVs51SQcEhbEk/irMAIxV22i1ML3VTYVkOkwA93lJ6bGrvvdWOt5jkrycaKThIvG8XjYJj7yuMXraTv44CTKmwhDqDIkqFrdVppLqiV1kU9DLLu2qolU/0Xmb576F4aBfNFunS27CgEy3LrfQOAown6ks0GGEqrJlGCMWVUl3b71MWiA1zetXqCAXH4B8Lzx6ZEfmqFuB+pGMAUypsr+G0h+iZphEqbDX1oM8O/IgkCn5UMrOs5E6hWnqrcZlXHyFPH53Id7phU8Vq2c3I7xjA/OY/ep5riApbrgFCoNP8U2k3KAOT0GUdlewxQuSbzarQKL7uUXBYQ+oMOAIwpcLyhneOaVhnu6omi4/4JKHjDKX3kFjHuzSqmsGmSPyuod/8Y+lddwRgfvRSKmydhne9UWa/KW5Ozyx+gHgBP2yW1NZ4fPrwf0w8Ud/WihwozHaAY/0n2E6FxX7Hh84kH43UqDRqlpxi4B6bDuilokjq/5L3j0UI+34Q2wHmSWt2UWFRkRr9VFOp9lTY21T9Iv0H69WFf0rpcV78tfXbhUiFbZ31pqP9xI9HHrprEDkCut3ReqoVHunWD1pv38ysV9XSWI1Lz7kT0nPusFoMy2/rCG4GcxA3NdwAFzWGxHx0Du6k6G6Q7arDVoDRCqM7RbGrgXw5+O2E9HN38FFND+MI07/hYHflyMk6HlFftE5bH9GilYfpndeArSPY+eaGNYhqIARYVGM+Sx8C7DPARJsbAiyqMZ+lDwH2GWCizQ0BFtWYz9KHAPsMMNHmhgCLasxn6UOAfQaYaHNDgEU15rP0IcA+A0y0uSHAohrzWfoQYJ8BJtrcEGBRjfksfQiwzwATbW4IsKjGfJY+BNhngIXNDTVg0MD/AXy92J0L01lbAAAAAElFTkSuQmCC;fontColor=#FFFFFF;" vertex="1" parent="fBxkdswX3Kox4M81FrW5-1">
          <mxGeometry x="394" y="124" width="60.98" height="62" as="geometry" />
        </mxCell>
        <mxCell id="fBxkdswX3Kox4M81FrW5-15" value="DynamoDB" style="shape=image;verticalLabelPosition=bottom;labelBackgroundColor=#330033;verticalAlign=top;aspect=fixed;imageAspect=0;image=data:image/png,iVBORw0KGgoAAAANSUhEUgAAAHoAAAB4CAYAAAA9kebvAAAAAXNSR0IArs4c6QAAAIRlWElmTU0AKgAAAAgABQESAAMAAAABAAEAAAEaAAUAAAABAAAASgEbAAUAAAABAAAAUgEoAAMAAAABAAIAAIdpAAQAAAABAAAAWgAAAAAAAACQAAAAAQAAAJAAAAABAAOgAQADAAAAAQABAACgAgAEAAAAAQAAAHqgAwAEAAAAAQAAAHgAAAAAzuYkvAAAAAlwSFlzAAAWJQAAFiUBSVIk8AAAF6lJREFUeAHtnQmYZUV1x0/v+zq9T8/SM9PTPWwDGpREiZoQFxJDxC+afKAIfiACETUuJBpjQKLm+zAxikgU2dzFL6KJohIXNETEiIDADDPTMz0zve/73p3zq+56r96bN728vu++2513vq/63vv63rpVdW6dqjrnf06lidJjjU8ucEzR5myBFx/an5a+OauWqlV0C6QYHd0im/Q6xehNytjoaqUYHd0im/Q6xehNytjoaqUYHd0im/Q6xehNytjoaqUYHd0im/Q6xehNytjoaqUYHd0im/Q6xehNytjoaqUYHd0im/Q6xehNytjoaqUYHd0im/Q6xehNytjoaqUYHd0im/Q6xehNytjoamVG/xDU6+zaLMltyBGO2TXhlFWZJRn56ZKemyZpORw15aSJzIsszC7I/PSCzI3OydzInMwOzclM96zM9MzIVPuMTLZOyVTrtDly/2amQDI6szRDil5UIIXnadqfL/nNuZJRmLE2PqisSstMU8aLZBYv/+z85LyMPz8pY89MyOjjYzLyqzGZ7pxZ2/sCfndgGJ27O0fKX1UiZRcVS/6ZeZKWpr0yDlpYUPjbnD6ovF1tHkiBwnPyTar+yy3mrROHJ2Xwx8PS/9CQjD09EUdJgvVIUhmdlp0mFX9WJpVvLJfCs/OXbZmptmmZODQpk8enZerEtIrgGZnumZXZ/lkjlhHP81PKZFcEa69O13dkFGWYhKRA1GdXZ0rOtmzJ3Z4jfGCcR38UeXtyhVR7dZWM63ufufSQLJD/BqXkMFp7W/VlFVL7tkrJ1oaPJkTpMCJU0+gTYzL22wmZH3M5GP3Eaa71kflJHacnGZdnT3OTfgwF6WZ4YKgoOr9AijW5Q8V0+/SGZjIV953RBWflScPHtkn+Xh08HZobm5OBHwxL3/cGZfjRUVnQSZRfxEc0+r/jJnV+vkfSstIMw8tfXSLlF5dK15f6/CpKwt5jBkK/cN1bLimVhlvrVZyGV3WI4Y7Pd0vvtwfj67UJa5rFjGE6s3fx77vzvEbgun3r0eUXl8iuj2+TtPTFSdasLnfa/qVTur6svYXJU0BpYWYDc9hpU18Yzbq34SP1ISaPPTshh64/JtNtm2sJ47Rr4E59YXTNVRWhyc1Ey6QcuPyIKjHimFwlqPnS89Jk54frJWd7dkLeMD81L90quZiDJIt8YXTpHxSH6td6c3ugmEzB6t9dKxWvKwuVMREn+c15yuhnE5H1qvIMz4pWdXt8N2XXhnvK6K/H4sskQU9lVWVK1V+UJyj3cLZTJ6fDF0k486VHp+vM1VKeLqvGngqOpqnubVWqG1/83kd/My6tt7TZoq772Hj7TqOXJ6Oeb/SvO7/1ZOALo90Cbr+pTp5705FAzLSzVEOGVs7SSV0FeKXuLDwvP8RkdAR9/zFoX5OUoy+i261Z0e8USONndhptlPt7Ms7rrtXevLSmH9EhBUWNV+R+QDA5Ls2eV4XRfHxnNGUve0WxnPVgoxS/pNDDqqwtK5Z8lX8e7s1tn+xaWwbL3J1RlC5bVKNmqfuryRXblCMpjObFGBSa794lTXc3SNEFBfzkK9W+3enNj4/K8P9415sx1GARg8aeGZdxNX8mm3xn9KG/apXZwbCBoeQlRbLvvt1y9vebpFZFac6O8Aw9UY0DeKHy9eHl1Ml/9a43U+bKNy6aOjkPQm+mHL5Pxga+PyQjvxyVrTfWGNFpZ+R5ih7Z9u4ak1CqDP181NzHTBhUiJdU5/TmYS3LyGPeLfmYhFmDTRAmYbbdfGc0L54dmJPWD7dJx53dUv2mCqOsyNoSLkreLrUFa6p5c4Up57RCfyYOTkbYo6fVHo1NmrzWYnDI3polFa9PzNhMYYM2CTMNqH/CrWt/8fE43TEjJ/6pQ07c1iGI8C1/WiolFxZJVllksbBZk0peWnRK6UCUzI/PK/hgXvFh88bStKC8n1Bo0JF3HT/lftObl9b1w7/Q3qw2b68oiJMwW7fIFrW/+n1Uxgw9MmKSqG4l/4w8ZXyhYsbypeDM8Ho0VrFAhmQUKIJE00qUXa+9+XVOb/6Ut2NzECdhtk2SymiQmyBAIkgvmaW6M9XM8gxFgORJrk7UcrYp9EeNDyyP6PmZZcrkGMDBjKVZr5v31uuqxc4Jhh4d8bQ3856ISdjXkr+kcuueVEY33qGKE8V0td/Zs9ib3ZI557P9c0aZMfyo86NzCjggPU9hvpoXODQDFoiyI4MLo8dZavO4NxeeGzUJ+05yNWG2nvaYNEaXvqLIjMsUpOn8QgX9TUmfokz6vzsoE4enbPlWdQQcMDej2O1l7q67rsrAf7ll6L9HDGxomdvX/K9KxzDCR3fez/etmAfIlc67e6X9M90r3rveG3xZR89NhG3PGYWLr8zdlaOozfDvKFC23lAtZ3+3Sfb/V7PU3VC13rqFnkfUR/Rmj9fNvKhYP1ZLoGjsvGG5Y2ZJpgIkvaunfX+soy+MHj8Q1gxZu2/nXb3y5EUHpP2z3TLTF7lORszm1HmnONl6fbWkZSxa0AZ/pr35ifFYbbGu37q/2mdm/WvNpO9bA2t9JK77fRHdvf8+IEUKpYXq31Mr4wcmzURopmtWTn6iUxgvmWWX/3GplL6sSDJLM4WljxeUuzPbLNtsXm0J6M3k3fG5Hum4SxGkSx+UfZ97ZPjgo7PUp8PUsX/wzixq84119IfRD/RLlZoDWSpl6PjVdFeDtH6kXXq+vjgzZYwd/MmISSyvCs7Jk8lj3hjq69ze/NNhGXvS+94calgdiRbmo1YRS/8ETuUyeeDhITny17rOD49eoWwSceKL6F5QyXzoulZ1bFtkHgp/wIL7vrxbCvbnRdZL22nsyQmZU4e49RJOeVv+JGxF8nqmvdryVV22RbDDWxpUncHhG5XJ66+izXLFoy89mlJMd80Yo7479mKbPvMbjYK+uev+Phn80bB4Ca9lQueK0ia1lq1EOA4gggHye0GYQnd8KMxkrGSHrjvmaT1XU07fGL39b2qNE50tFKpL6+9U/KJCIYH1HvjhkAypGB9SEMDc8Po++dKXFdvXmWOm+mCthrbqWOoFo1Hp7rxla6ieI2oOff7ao756odj6+sLoQu25NVdU2ndK573aY3TWXXtNpVS+oTyE8oARlZeWm8RYx6SNMXVUEw52Ey1Ta0Jq9HytT2qurAytn0MFWOGE966XcOdxHRawwh285pjMT8Qew9f7vpWeN2uORLvkNN6+Q8r+qMSUpV99q8z4tFQyPBwrLi0zFqX8xkh/rFiFZwhgrJ9R/2XOcW4nIQmYxUeT8UVZZiZs7wfIV/r7i0aT1n9sl657eu2/1nws/cNiafzUjtAHBvjgwJtbjOFlzZl58IBvLjmFLwwjSE7c1hlR9NnBOen8Qq9JuLDyQViDhsVzuQ9kV+P2eqoHJmbMWIxmIij4Ti1DeFMWOygXPpp4qeTCQtnzye0hJuNgf/DKo0ljsq2HL6I7qzz8mmjliC0Ix8kjU9JxpFs6VImSpuEpCtRnuvDsPMlXD8y83bkmtAXLs1g0p6bKeIm1u/2o6H3xugoBiTLAxyXAofFKuaJFETXrm2vEWy/3uTAH3F8TeE5Eg74HV1b443Q+qiEmSC4B0c2uWbJeVar1SsNWZJZkaG+O34+r7JWLwwrviddtpvCF+bL3sw0hjDi6e8T1bJTWz62Ln+e+M3r739aZCVa8ChHEM2nsSW+aCWsXPdpS/w/WLrZR8DR9rsEEzSEfojPAZK8hULaM8Rxjy8F4clrlM9iQ931ljxT/btgIsMpHE3Ib8wELWpg4oqEzdPhYC+Xvy5WmL+wK2cSZIMLkaY16FCTyndFUHnxY0z0N0vDResH3KZkUKbbX1pvzGnO0HrtCUY9meheZjHN/0Mh3RgPqg1CWVCpIb/+Pmo1SgZ7hO6n+pEyXQpb61+DWinq1+d5dIXzbjAbNOaATr8mja5MI9t2JPvrO6N++9nnBamOJ2W6V4qDPenCvnPWdRsHC4xfTi19caCxllIVx1YUv2fLFOmJGNUyuWFzmzaoG7+CVLarUCSaTqYPvchN47pF3HpduDQCz9cZqo/q0jZnfpEspTfXvrBHEIIHdsB0TlWhc18nrVYna99hjhNhe5doZ8H/zfbvCDnQa9urgVS0y/tz6tWm2XIk4+s5oWwlgtgcubxGiFFWo1wTRf1yYb5b2lvJXl5pkn0HsTy3FGTO4bsV7zyiezIaAZEm2MKdJFSRpKikIFYmlLE1F9NDPTrVvs9Sz1K+OBSsRS7vm+3dJztZFUARr94NXHw2UG/Dp6pA0RtsC0VtJx29tN7jtkpcXG81Y7o4ce0vomF2lWjFNWL3WQjD+8TOejnjEuLVqXhDSY/TXy9upM3UCibgG8gQBg8JAQdiqjUBJZ7RtJFSVIfCB/ohHBagUwkUWaCIeKMiTeMjEBFU1p+u6Gim2h5f19kAfD5PxHoFwFMDUOPKLSGVOPGXz65n4Ws6j0jGpoTfFsuighuxrG4xwIM9QLViuAv14Dlx3JrhuxXwj8tM1wq+B/QL31WCv84paQZQThZDQkeC5XSVpuaMNW05JgvcFSyjrT0W+h99xPOZQ4FGzJCSb5DFa5/vgullTd93XK90KK1pJXchkzIr69bQGs3o+FogZ88hjp47f/A9jR9Ndu6RAPUcgxv8Whf8AkNholDRGgyGzvaT+XTUK761WD8oRg+se+ulIQg0Brtg2qJZTrZvqEJBm1JoA8yHs4y3vP2Gi/Vom88GY+Cdq7OUD9BIdY9/h1dEXRqNMsBYs/J8Jho4VC8W/ndwgWomEQKJR+9TToeW9J7yqZ0Q+hIu2FEtso//GQGEnfaBhjn7wpHEwsM/xIZzx9T0hI8avznlaGW3/G7yjLwoTF7pb/45FuCtWoqdedVBwjAdHZeJsL7UPAHjXWd7LZkOjRXhmCMeCIcV5u8Q4j6nR1cUTG633gUj8tYl/shTNiEiIp/iQuZkG4NyXHt31xb5QTI8try3TCdisHP9oh0FB4hhPylIwQflrNDC7Bp8rfEG+4roTM6Mte2V47YwHpxuDGzQKoAGLNIE/xz/WbpQ7Lq+q31IhdW8P47M77/EGSOi+w+tzXxiNTRmcmMWNgeMi3tixD7WZIOtUCnsy8B0SYtEgQ7yurebnjs98YCFS2bb7tu26A0BYrJ/8506DfLH34Lm544N1wsdqaUAnZn3fCqt07e9BO/oiuqk0PdjVPuH4fvb39sr2D9Sa3uw2DMutRExsUF/aSP+shQd0KwVDOpkCyFf+GgcDfnuXtN+x6PzGOhod/DkPN0cweUSDxh++sdUtemDPfWM0Gi3UnS5h0KCXn/uTZtnz6R2ChyVjZKLIAhTJn3mBVaAAya24JNxLOxTT7Yajwl8M/Xs0XDhPHQVJG4F8YTRjX+MdO0I6YnoT8FdLgOxRYOy9s0Fe8MszzDiJGyoel16SOz5byBDg+qo3hKMIdd3fa8JtuO/t+eaAUbzwGw6DrL0hvCH33rlT9+vwpRnNO+P948sYjbcCflcQOuKDVx01TnZsecTslcByFswP2gMRasUoSzMaF6w1cUkw6hNAFSRHhKprhRZAgxZaLqniA9+nbe+vlerLK0JPdisOvPWW9tC1PUFRQ4gq3s24Dlp135d2myUj+DUmZsRiCTIZOZloXPcZD+wxWw3RELEw0+i1ASEAerdLn5UaDUMFSzAQlrMDulOO7ovBZmaM7aS2Tytj1NJliWhBDbfUm0sTckoniIS6sNSr7qsoRFYb4ahULV97dRkG8TE+ccGz5jyIf3zDdbvM61XPymhCr407KwnVZOnLi8zmJeDBY+2iw/PoszFlkmIRgdBdRruz7RwNK118XRizBhCi5abVM5n3DT48bD40DC0og5AYhOAIKvkiutlS0BKBZZaLvo94xOGOBGXXZRlVaV7T4j5U2IKRAEzuXAc6m3+sI2No8QVhxlo9N/fG675qDChOQByMKvL/ndFu49e8tdLYnt3fljsHTUnChBlB2q7guUkZOinKUAMEqktUqfT2yWNhWE+pqlVtNCI3j0H1l47XfbVKd7yz8T7dPIN67kuPditfc0WFQmon1x8jU22OwJJM5EAJj8Xuu+y5K7btb4SfOnR9a1zrdZaB295XY7PaEMewTPWxuDtvrjfIT8yAiSZimbkqTd6H++qha4+t2X0VcQ3OzXW7SXT5vcrf9x5tCw7yE6ht2+3dZhuCRO1cV6Iekq6IDbmvRgeyswWLddTvcYvGV4HJ1toW67Yg/5b4LhVV+95vh61AzJh3/v1WOfeRfbLtvTVmfRp1+7ov3Y1bcKA7+NaWkEZspcyZ9KH6BHuOHtxlMrHKlnMYXClvv//ve49uec8Jo3TAB8uiKVmesKsrie18MRQAQgDq61qX4mmc3m/2G8wZ6JATH+9Y1n0VDV7BWflS/NJCXeKpFU23Go4m1swYO3o0BCQfwEYh3xlNwwz8cNjMogmOXnNVpeTuDKs6WXOT6q6pMriv8ecUJaqxQSdUO0ZEQcAKsfygT9fgLOVa3ncqgAFUJ/gztFxgyQEgFqiLrt0xJzo/NHGoRzG5Ek14o1FSGE0job0iOj2J0BcVGu8DbLe7eztLIruBt9uw6MrxVCSOt9k/Wpk5p/FPjGZMNWYG1636c4P+1CUXa3fW0ka5ob5e7CF9Oj9r9z0AE1hn4+aLqPYzipBbDi/Ok8Zot/DWD7r15jYN3az7N/9eoYkTCtQ31voXq1dOvaJBNXlJQJiInECgnGFlLHtYr3fo8LJ868krEIy2FQBsgAcHCTMhy5l81YjBcHDdgPrRamVr+MhYH4DNZ6Uj4/W0xkBBRcpQgLuPCR2tw0Ms6PFK+W2E/yeV0YSCYKf20/kkI95jwnt1rZBVQaxu0hKuW0NeLIZxBt+tQ4N+NAsq4hHn4LoR8Rg/ULCAJU8UgiWoTE8ao9ENs2QB1z2gBgKMEKveYEznQozRQYooEFQG23L5wmi8G6yoRRzTU7FDW8sUoAMS4rT/oUEZ/LFGx1czIvcFmaiLpaCX1ReFyfRSDFAapej8RQe5vv/UIOwaL8SF+eJmU/OWSuPnRGDYIBP4dBsGiw+ZISjI5AujXReWHX9Xp8uddDO7PXxDqzx10UEBo2UjIdjGYq/IoBI9ueHWRRADZRx6REGGAV9a+8JothPAhxkiXljzF3cbmzLX2J+B4fzmwufkucuOmICrBGFzQf/cFxQCEbr33xTgr7FLIWbwfmyVsN76+wIlopDlF5fI7k9oRD31woAI8IoqsfsrCjAILjDDlNX+KdeQ0NtvqjWgB/vbcf1IvQgQa/NLxBEokW+MpgJbLik1Is9G6eM31rGdGja5VzdOsfBbfg8KIabBstVeXWm2ZLLlQrnCh9qhO/wEnXxnNA2C8gOwvPWktI3EPo4A/PsfGjLLrESZLe37lj1m6KRR1bIwODrkBs9NdUzLsQ+cNPtnLptPQP6ZFEabumtDVl9WoTvEVIaWWG6b4LyO+hEN2ah6Q6A0SWRvB5zABmr4fMFg8GWxNk1juOm6t1f3z+jeUBq05DF6iatgvNimCCiudZVxGe6eEx6KmN2TS8Fq8NWaVmc9Y9RQBjDZQwMWMfvVgYl3wLRMjBqqScvS+KFZCixET471CksZ2yXZuYP7TntO8FbMkj2KYGUPzI1GSWe022CYC/FbJlIQe1Mu1/Duc9HnrMtRb2Jbtk4B0fes5hq7+KD6ZjGUjD09sZpHAntPoBjtthJLGLw4sGQV7tetANWgEUuUus+s55yhgiWdifavrkLDGupiM6lXYbQvKtC1MgHvC3yjrH8Uz+MJiS8W2jOT9Bp3GIwb4MYZZ9PUMR07M+IalaQJVKOembgBzattGegPalY3EdKRtfxqPTTWWpeg3B9IRsdqHPaaJqUovhbwRTMWX9FST3nZAilGe9maAc4rxegAM8fLoqUY7WVrBjivFKMDzBwvi5ZitJetGeC8UowOMHO8LFqK0V62ZoDzSjE6wMzxsmgpRnvZmgHOK8XoADPHy6KlGO1lawY4rxSjA8wcL4uWYrSXrRngvFKMDjBzvCxaitFetmaA80oxOsDM8bJo/weOYD81ODS0IQAAAABJRU5ErkJggg==;fontColor=#FFFFFF;" vertex="1" parent="fBxkdswX3Kox4M81FrW5-1">
          <mxGeometry x="549.5" y="126" width="61" height="60" as="geometry" />
        </mxCell>
        <mxCell id="fBxkdswX3Kox4M81FrW5-16" value="Aurora Serverless" style="shape=image;verticalLabelPosition=bottom;labelBackgroundColor=#330033;verticalAlign=top;aspect=fixed;imageAspect=0;image=data:image/png,iVBORw0KGgoAAAANSUhEUgAAAHoAAAB4CAYAAAA9kebvAAAAAXNSR0IArs4c6QAAAIRlWElmTU0AKgAAAAgABQESAAMAAAABAAEAAAEaAAUAAAABAAAASgEbAAUAAAABAAAAUgEoAAMAAAABAAIAAIdpAAQAAAABAAAAWgAAAAAAAACQAAAAAQAAAJAAAAABAAOgAQADAAAAAQABAACgAgAEAAAAAQAAAHqgAwAEAAAAAQAAAHgAAAAAzuYkvAAAAAlwSFlzAAAWJQAAFiUBSVIk8AAAFIJJREFUeAHtXQl0JFUVfZ10ku6kk3T2pDNZZrLMwgyLCigqsguCekRFPQwiKKsLHERZRAdEBQEBF1DOEQGPRxE3cFTcN0QFZJuFmcxMJstksiedtZN0dxLf/c3vrq50Zqq7qzrVPfXOqVRXpZb//636//337ntlI5bnWl5dxNqSzGyBE/ceY8vKzKpZtVK3gAW0ukUydNsCOkOBVVfLAlrdIhm6bQGdocCqq2UBrW6RDN22gM5QYNXVsoBWt0iGbltAZyiw6mpZQKtbJEO3LaAzFFh1tSyg1S2SodsW0BkKrLpaFtDqFsnQbQvoDAVWXS0LaHWLZOi2BXSGAquulgW0ukUydNueofVKuFrOtQ4qPatYnO9rmyHvHycSvpaZTrSAVqGRv85BtZ+uEnuHt3ozBmir61YBnambFtCZiqyqXhbQqgbJ1M0jfoze9HQr5Xpyw/jassM/qexdbio5I6SYyb0737uHZjv9cjNt1kc80FmOLMp2xu7YbNk2/p8tGsws1Xb0f027FbuGpi2uVbBEW+CIf6N3vHsPkeItLXtXMTV+eZVoz9Hfj1HHLQej2nZ+cj5qO102TAV0dnE25VblUE65nbK4O81y2Cgrj9e5NloILNLCHC8zC7Qwu0BB7zz5+/xinUxjz08tRJ0+z9eXgnvOT6QnsLIOcr0iQOfV5VL+egflr3OKtbPZIQDGeBmvLPgXyN8foLkDfvK9NkPTO0PLXFf6KUzx1j2e41MCdBYrNMUnF1HJaUVU9BYX5VbnxFPGQx6blZtFjvo8sRS/tTB8bHAsSBP/naKxv0+S9y8TND+eGW9muIJx/jAU6PwNTqq6qIxKz3FTdv6h39bFxUUKjs1TYCjI6yBhLJz3LdAid5+E3pRPt+WwFgwtuTCb7NzN51TmkL0km2yKMVbW3+62U+nZbrGgCx772wQN/niEJv49JQ+JucbUafCJEfG/6VdnYh6TjjvFXEHv+GhnSx7V3eAh98mRN0zZOMHxIE297KPpHTPk2z1Ds/vnaJa73kUeg+MVgJ+3KpccjTwcYCjgh6vwjfk8zsfuNaa2+ejAXX00+fx0vLdK2+MRH6070DVXVtKqz1SRzR493/TtmaXRp8dEV+rjcdRocTTlkfsdheKNdh2bv+R2g4+PUNftvaEeY8l/M2uH7kCv+Xodlb+vJNxKi/OLNPLbMRp4bJimtxsPbvjGqh+ONXliCKn4QKnQ4uW/J1+YoraPd7AWH39PIq+RDmtdMx7gTVaCjEbcft4e2n/9gRUFGUBgaOi6rZe2ndlG3j+Nh7EpPN5FjbeH5szhnRn649AaksZK293Z5LmqMnz0wE9GaNfm/TTbPhfeZ4YfmIbt/WQXHfhGX7g45e8tEeN6eIdOP4pOctGmP6wVS8OttTpdNfHL6AK0m6dN0l4MZafrVrYmmbg37HtoiEb/EHmzS84sSrwFlzkzi2cZztV5YsmtMnRys0wJonfrAnRebcT7M/k/1mZNDLKs/sRzkWmWnvN6eX2zrXUBWlmpktOLhOlSuc90v3lCUHaOwv0YPUEwXXH1KJDufYqjIY+aH2ik9mu6SG1H1qPAyV4D8+7G22sJipieUnhiAWW7Is5s1zGRKR3m9G5+AZQy+fwUG4UidnXl/4z4rTvQKKT77YW0cWsrdX21l8b+bB4WZeHxBdTwJQ/lr3Xq3pYNX6yl/FZHzOsC9NbvNkb9b+f5e4XBKGqngRuGAI3yYtxufbCRnQw+6ud59OjT4wlZvpKuO79ksLFXXVRORW/W9y1OumwpvIDuQE9wl+RkA4U0QRYclU9Nd9VT45Z5tjdPsmVsgib+MyVs2kbVE+7OIu5K3acUiS4zpyS6mvNT8zTJJlj0PHrJ5IvTwosmrwdXawGbYyGBkaDwqsn/YR1MsV87ugWUJUnw9+QL07T3qk7yfLKKKj9UStkFoXEL67Lz3GLBpeFWnN7hI1/bbMjW3TUnGgp+Zq0i/dd59bB157Gt20EFRzkJljBbyLobdSm4NEd+PUY99/dT8dsKdQW6a0s0QcF9RpHo0VCAqVfQJl1RZUn1hu5AowJQMg7c2Ue9Dw5SxQWlVP4et3A4KCsHnzSW0nOUe9lR9bqzP+y9Ci4STKnwUEGRAhlBeq/gotQis91zNLJ1jAbZkBMYDGo5JeOOMQRo2UpgZ/R/f0gswslwasgfXfhG1lCXcVtmAcwyO+XwkqjgzZ16xSeGiPF/TKZU6Um0zEafl3hrxlkymEP720OgE/fmziZmmGzghTVgB3e9eLtzWYGzs69Zq8Bf7e/1i2FgtttPM+whm2aWCdbCj631QkfAcSkDOqoteRgGGFhGaCzqX+ieYTvHAr4YtrEsogvnbh28sSCzRYLeIC36V84El1WQxbMIJkYsMxJMsXK266J2Ubd49I6oxtBxY2WAPkQFACZYJljMKu5TC6n5O40UZG16x/v2irW6rAB38jnzkBu0aTPqWhzh25g9QJeAjbyYOXDpIBbQCaBkL410hPZS7TpFArfS7RQL6ASaUjkjkIahBC6T0lMsoONsbiiGDp4xSAE/PR3EAjpOlGB5w/gspWATe6kim3K36dYW0HFCAtOmUnJ4vHa9IeKSVP7PTL91Bxpz30yW0rMVhIXXK4oABbOL7qiU8BOPccz0kkDNi08pFKE/qBvs71Iqzi8hGFDMLLqXDl6kpnvqmMBv3mrn1uaQh+nJ8UrNpRXhU/ofGaaZfbNiG8ySSnbemFl0BxqVRVe2/qfNhJxdZhMYOzb+qiX8ZmotX/HbXWHiApwm/Y8OUR87bKSA157tMqQ55S2SWhtWMhdroxufbKE1d9eRk/3EKyo8kkCJ2vDzZmq6t57t6PF1NxiK6m70hKsw/CuvcHeO/NpLcwdD4bkgN8j8ZOEDTfQjvhprKDiC5hzMZxYOCc4BAoI8lqlXfSI8x/vncfL3BDRcKclDGNyCo50iC2DZu0uWhOoKHzeXT4t4rq6k/JbQwxpk12vPff3iNDg0ur/WSy1MhoRUXVwuKFNwkZpNdAcascjDT3qZhFcbxeAAQQ5Lw80emmU2CZgoiKj07eKIyr3sVkwgklLZmKDuOJmcB5ZJ4QkuZnkWxHR5gtiAWDB/v58abjl8BAUC9DxXRMZzgBwcjbBgvH+aoLF/TorIUZAj1txVJxwdC9OpY3gq22G537oDjRsh28AeDl4r2OikmssrCJEcSjYIKMFYEPQGQWx0YCBA8CmDARIYCdAC+5oR/IZUE0hlAWYQMiLYkOoizyaICTmcBiO30i7SR6l5YeLCij/gaA09Mcpj67C4VzlryocTO5Mfmr/dEI4MBR8OLBW1dG7poY1PtZK9KFtQmpoYbIT+mEkMAVpWEPHP+z7TTdncAKVMmC85s1i8aTJ8Rx4HflduNRMPeNFTEIc9/uwUjf6Ow3WZmBgPGQFZGlq/1yhSbqBMgdEgtX+2OxSUryqk/2CAOm4+QC3suoSgnquur6aee0JdvNi5wn8MBVrWDZSioZ+OigWKjes47sa5S8Qbj8B1UIOR0ysZATEBQwIYJj5+wMDKFKG6kemu5sujjC1MVZYkfIzn+6/v5p5geR85sgD3PzZE1ReHpmCeyytFBgdQqcwgKQFaWVG8Vcg2oMw4gDk3aEQOphPlVITSVcAViK4aGYlsvCCeC4ySBSw+ToHBjn2wTEBQAKN0jilFFBk6lbeM+RsKU+dtIeYmwmqlIDiu5cEGKj4pQgXu/NJBGv9XJFZLHqted3+tT/RKpe8MWc/qP18jyg+S5EpLyoGOVWForxjXU5lJSKTTUACMcuXweC/e5KMjtmtQg4d+Nhqr2Ev38cPYfl032R9ZTUWsEEJWXVst0mkhaiWeB3HpxZPbY9g8Orlipf5s15sK6Cg2pLgUICOOOt63ET3Wnss6uAeYDFeianM5rXtsDUG5Wyk54oEWxpDPVdP6H62hXB42IBiTO77QQ4ijTkQWZhjsyzto5DcR4iPe8E2/a6VSzky4EnJEA13CYymy+9ZcVhlOYRUYDlDbpR3au+tlUMNwhG78wL39YQcIpoDN9zdQ68OrCZmbUikr15ekspaKe0Hxgy2++pJy1vojYzEOQXA8wNGTgdr3vUEC9RemV6S/hCDmq/ikVv6MwzjBOZIKS9oRAXSuJ4fABHGzmxGB+mpbd4C19wN399Hwz70CCL3/wAq47ew2oZhVbS4TU0lMJ/HAYZnZPyu+3YHgQ6S4NCL/qO5A20wwGGCeXndjjXiDAOpy4T+I9BjiLIEHHxg0PIUkTKLdrHkP/3KUalkTx0MnAwGdaxzkvNIRdp0icyJs6r7ds0JX0CO9pe5Au44t0PuFiPt6mNIUHnfocsAD1X1HrzBqxH2DJE7w7ZqlvVd0ijG66b6GmMHzeDixIMcpegPY5pMV3d8/JHWtvLAs2XIldb4yEc1yFyrjCE84XlLO4mTbT8lZRbT6zrqYICvLK4MFlfsS/a37G42CNG6pFWZNeHrisS8nWgn1eZj7wr4Npwc0XSe7GGFuLeSMB9LOjjESJITSc4u5O/WK/KBGx0jlM4O08bbaqLm6LLufnTp4QGG2haUPdvrZjrkoT5k8NpG1IUCjIDWfqCCYAnu+1R+aT8ZhnkykIupzkKU3/JGT34dyitnY64X8oJUfKSOZ8hnjZMX7S4WS1n0HK2TcpestuC/MoejplJmI4ZUbfspLw7/wGq55C09Cstl9wayQ7AqkjVBm50GjIWPfECsho2xAmNkXsSvr3aCxrgd+GLxLagHNqe46Voo4ZlspABpuR73ygyLrcPO3eCzmzMNS0CVj3AUVyeheBPfULemrEuiDDwyIrqf+phrOqb20w0D2gfFnJsPEA3/fUhBkg8S95scW7BbkDkE6KKSvQPjMSyfu5E80xHZjIZXjas4HivhsKSBCwIzp702ubIi6xPxZpvfA9cf+MUGdnFkx1sMn76/3GkAvRUKHu2DMgzGgkm281UyvUcYqiWz5F3K23QvLxZ0wFiGPyRyTDjA2YawKDAdD385g0oEkHuBg4c0C8YDTW0ArRepFQT7gqEYxReG3VI7BymqA+DD620hKSOX/kKh9O39Apf5m7lovCCmRoA1teLyZLWT7E+6BkAB39VdXhUkLqEf3V3qTtrgpyx7Pb0OARgGQTA5Wof6Hh6iYx0Xwxoo5UbsaCLz1wtNzQjzF1n7s/PQ8s1BCFqnlzgKbpZO/hgNqE5QlsGEQErv+x020+2Md4lsdy50baz++OlB/iyc8T57r8TPjpJNpUyF6cKxzjN5nGNCy4NC6kVQOiyAdcPgKFCEQD0A6AP1GTwETBDw0kBERiI7cpFo1fyhF6FlaH2oUegZ6jbVsl37tgn2it9FSTmjySpBBhGi7ZH9KxuJDlc9woJU3R4OLxldkAsDYCIUlj40D+J1bwcYCJh3YeVoEixZIB3hA8F2NBU4lASUJ2iqUPjA+QPITX8lhhQsMVK1ZhwBIw5YQhRdeJuTzhsBAgRTU6x5dLYYHDDtr2b8MsJWkQGW95G8x3nNyemnxmnxpOpT43QREwZQCLRtEuRbsEB6bORuXcrfhv/EASWUR39hSCj6r1HZZp/Ah42GDXgGlqu2SDsF0UR4rf6Orb7qvPhxpiYcOCp1Z2KDRNZSlttY0zV1/+7VdgqGK5gC1SJl8PqqJePQByJKJCoUSn3BIZVLXqPLE2LCAjtEoche+mXXw2wNyU9gKYGFTC3jfyJ0GwRx536e7dHV1qu+XyLYF9GFarfc7gwQ+NwRm0wY27ypFHbDXc/+A4VYu5f21/tYFaFBtpYC1mQ6iLKey/LHK3nFTj5jP43+gAFd8MBI52fAFj5jf438gEPT/IDH6Ec43UnQBWgaaoaBF+GxgGmCNub2Uw1nAoDD2PRSh7Ho+xdQjVmPhpJAfEke0CSxe4qt78sImWusC9DjHHmFsgsD8WHdDjYmquLQoMGiUnB4h6Xk1JI/Hm+ofDJlE82o4We25buaaReKlkVQW2rpZRReg8U3JqFhhDhhv/iaHp/J3I80kCLNp+KKHl8g4O8yhr0hVeTjB/L3/kUi3vOqaauGdk+f1fjfyxst9ZlrrAjQqBO0UBnsp4EIdzd99qmZ35UqnfYDBpeLDpaI8yMQvBVarzi3c3WoUBOmBfgTB9zBlGBE43Gb7xpe6SroBjSiEvVd3CXekvAlMiPDDHvfMemFDRihrKsdvjKEYRo7l+6/mr7wrg/jG2IO2e3N7XAYNzIvH/hp5mGU9jfBhy2vrtRZqU7L+aHVhkLmnnuOgY31PCrbo8Wdfd1O+5KOZdu429SAlcE2QPwU2dDxQcFHGuj+8ZT3MtR78icYwG1XlUDf4l6Ug3vpldoOa8YtAsoyGuSlHmdHh5ScfTI7qj5ZH+XqRl6ucMxBggUCJQ7eHSEjhpuT46CA/DMKezd0k1giSh8lSuCnZXAkPGMZ/fD8akZiwlTuYSbkc2xP3ATF/gL8fPcDx0cmAouajQQFL5nooWyrEMFs3Ih/Bohj44TB7q1yE9BLu0wrD9mVZObgE89dz+CwvegtclIiCHNnqjTs+ermygBEy1+cnaN4Q8LDTQQwDOlx5tqWgsUXYKWsEIsUFmwtdm5yCVA+lRi+BjXl6e+gD5PAcTb3o0+yijKcM6Hkk0PA1p4MYD7SyFVhhhXMfixR0wRhbEU2R52E3Ja+RMRcsEniVQqwSWyguWqS5YDclr9G9zzENCZ9aAB1ptnMuZfZlJaEeZPt0kNQCHaNF0BVOeRn4l2P806S7QH1C+gqIljm4Gaqx4kCboRHiLQOMIwG2kqFHmd5mjdHxtl/aHA+mzODjiU3PVqqS+hlMVqoG1n01tYAFtKZmSv+DLKDTH0NNNbCA1tRM6X+QBXT6Y6ipBhbQmpop/Q+ygE5/DDXVwAJaUzOl/0EW0OmPoaYaWEBraqb0P8gCOv0x1FQDC2hNzZT+B1lApz+GmmpgAa2pmdL/IAvo9MdQUw0soDU1U/ofZAGd/hhqqoEFtKZmSv+D/g8XRXzg14brkwAAAABJRU5ErkJggg==;fontColor=#FFFFFF;" vertex="1" parent="fBxkdswX3Kox4M81FrW5-1">
          <mxGeometry x="549.5" y="240" width="61" height="60" as="geometry" />
        </mxCell>
        <mxCell id="fBxkdswX3Kox4M81FrW5-18" style="edgeStyle=orthogonalEdgeStyle;rounded=0;orthogonalLoop=1;jettySize=auto;html=1;entryX=0;entryY=0.5;entryDx=0;entryDy=0;strokeColor=#FFFFFF;" edge="1" parent="fBxkdswX3Kox4M81FrW5-1" source="fBxkdswX3Kox4M81FrW5-17" target="fBxkdswX3Kox4M81FrW5-8">
          <mxGeometry relative="1" as="geometry" />
        </mxCell>
        <mxCell id="fBxkdswX3Kox4M81FrW5-17" value="Route 53" style="shape=image;verticalLabelPosition=bottom;labelBackgroundColor=#330033;verticalAlign=top;aspect=fixed;imageAspect=0;image=data:image/png,iVBORw0KGgoAAAANSUhEUgAAAHoAAAB4CAYAAAA9kebvAAAAAXNSR0IArs4c6QAAAIRlWElmTU0AKgAAAAgABQESAAMAAAABAAEAAAEaAAUAAAABAAAASgEbAAUAAAABAAAAUgEoAAMAAAABAAIAAIdpAAQAAAABAAAAWgAAAAAAAACQAAAAAQAAAJAAAAABAAOgAQADAAAAAQABAACgAgAEAAAAAQAAAHqgAwAEAAAAAQAAAHgAAAAAzuYkvAAAAAlwSFlzAAAWJQAAFiUBSVIk8AAAGENJREFUeAHtnQm4XUWRgCshbAFkDWuAJCQsYRXCFoEkQBAUURBEMWJYlHHGceabUWfRz2Uc5xtncB0ZwGGcMAMBVAyyagyQhQACCYQlIWwJGEgg7GBYhan/dcpTr1+fu7x7zn3v3Xvr++495/Tp06erqru6uqq6zyBROPfD777LsQOtSYEv/mrQoMGtiVoHq5gCHUbHFGnR6w6jW5SxMVodRscUadHrDqNblLExWh1GxxRp0esOo1uUsTFaHUbHFGnR6w6jW5SxMVodRscUadHrDqNblLExWh1GxxRp0esOo1uUsTFaHUbHFGnR6w6jW5SxMVodRscUadHrDqNblLExWv2C0ZtvL7LhpnHVir/eameRs84PP87Lhg3fIwJu/QH6nNHv/aDImf8pcvYFIjvuXR5JaEgnflVks+3Cj/MyG9dO+yhOFwbcwLGvoU8ZvcMeIhPPDCRYb8PAiBHvLZ4kXWV/ReQ9w7KyOT9R07hXNIDDR1zZ4Lj97kW/pb7y+ozRQzcTOf5LIoPXySq87vqB2fsdl6U1erbeUJGTviay3a6hpHffEeEHkMY98hQF1B1pAS4G4PihL4uAc19BnzAaxE/4O5GNtwhor3lJ5KWnwzn3jjonNIINNmmMLIjp0/5NBMlhMFOHCX4G3CPPZttaSu+O1BVmUndrvOAEbgC4ct/uhdTm/fcJoyednRH/nT+KXHuuyHRl/KpHMsR3e5/IGeeJ0EPqJQ6xrYyLp39fZMvhoUwCmm/8icj9s8Lvpv/Snr02yJk8p/8gPFNvXCx1o47UddfxWf3BZboyFtzAERg+VmTSWeG82f+DeGEz47r3Olrk/Z/P0JwzTeSuq8L1OusGQux7bHafs1efF1n0a5Glt4i88FT3e/5qqCpcu2oDOeCE7j307TdFbvihyEPzfW6R3Q4TOfYLIkPWy9JfXCWy4OqQ13pjdjc7Q5vmeepqksnu3nODyOyfivzxrZAy7iMiE6baXZHf/Dg0tiyl3DPiupvKaMbEU78tAkOBB+eJXPfdcO7/Rx6gIvCzIptu41PDOeLwmWUirzwr8uZrYSyEwUyXttpJJO6Rzz4R3vHs4z3LIoXnPvi34Vmfg3GcZ1frc6+p+H3rjaC4bbKVyDajVLHb2ucO59Rtlmrayxf2vMc7dj88pL+tDeBnXxFZ+VDPfGWkNJXRG20uMkWZaq0fZl2m4prelgJ62T7vFznoJBGerRdef1Xk9p+L3H2dis63Kz89eEgQ24ecIrLBxpXzpu7+4QWRO34pcu9vKuPzie+IbD0ylICUukSZz7NlQ9MYvY4S8tR/yTTfNS+LXPpFkZefqY4iTBh9kMgeE0SYm1aaDjEWPrkkSIrFs5Xo2gvrgSGqKY+dGHoeSlol3QBp8sS9Irzn0TurNybqgRSYomM2hhSAHn3FP6qIr9IQQ+7e/zeN0cf+lciek0JFYcYvvi7y+/vrrziE31LF85Y76lRFxfW6G4Qe9PorYexevVxF7Ov1l5t6grKHjQiWLTRqJAxlM24/93v9qVg3JSv1fF7ajnuJnPzNrBE9cJPIr3+Ul7uYdBit/aVcQDEyJvMmlJTeMJlnIexqFfn8ygaY+tSD4Vfku8AdGhz5mVDqnkcGnWPhNUW+pWdZg3smFZey834iR3w6K+++34YxM0tp7hnSAGMGP877CtAb7puVvX3CVBFoVSaU1qMxVhyv47CNc4ydaKRJGCRyzF+IjBoXplBMt9Cqi4L1NxI5+GSR/T+kGv9ajCEs06g7rhR54w9FvUkErZzpFFOvx+5S48x5Wva7PcufdYHIFjsEewI0glaXfknkxZU98xaRoiQufh6NSRFrkxkrYBoaZt689PBPqXb90QwdlJPFs7XVz2xsCgLR9z1Of6q952nTaOeLVFtedENjjYup497HBGXOGhMY0ZDm/V+Gmz9Dz2AmQj2B51aokUWZjaJXJJSjjGnTOemrIsyFAeafl/+DjkOPhev4n7klc8w8eHl1MF4gEbA2vfpcXs6gMDEvxgs2St+/g1qigqUge2bFA+F8+J5ZGmdYyZ5crL1wgeoQ9+kc+vH8qRL5N95SZNvR4R1YxLzDhPsesI5h7EnBNruEGYnZxpECM9TWkJICqedrSSuF0e87TeSQj2Wvr4TkFsNDizYkUVQQY942nZUUzpiardG5Jz2Rlk9+JAjz802U+LHBxJ5HU7718sw6hgVt/MeDBm95/BGDySvaqGhYvAdFkPcgGXBODF07RfLP2DmNkvxo2ACNHYn2vPbYFCDmEd0Gt12hdb3Mrho/lqJ1jzk0qxjzZFpoHtDrjckQ4yqda7+5Ri1P2sqxVY8+WITx1QMErkRknxdiL787iOauerixEnPoQ7eK7DIuGGZwLZo+QRk0GHpppZ7q30XDe/SOoGw+/Wio9zk/DfiB48j98xlN3ZBc9i4kRJGMpp5DfGWLOF94rcjkz4WSMBDgpfrlt1QSaQ+J4ZHbRQ6bopVQkyjEgNgwAEIxt4TwiFiUNJiPWM4baykbxmILxxDxxH0iy5SAMCAXlPEYO/hR7kh9z04q9hlvsWV7xsdlUC7inbrCKIYE3m8ALtaIMXk+rLimgAZ1wt9nTCYPNCwaCmc0ZsDBWnncdQAIH3G6yJxpXZfd/rANL7w6U8QQ+/QyG58gHNYnfgaIaCxL9HSMGuRhzospEVFbzdxp5cRHGLdkdvhxD4scQwHmV94D0xHhSJzXXg6OlriMP12rnjL+E3+66tLu86yATD9H6AzAgJkJNCwaCmc0FcR7A4FsrD7gwypC7xF5XH8xYCPGAwTjmG5g7nzkd3Gu7BobMb+ygQZDQ+RXL4ADuABM3e5UHFPAFA+DkgFjM9p/GVCawWS+KhOMjwCaL+LcuwPDnUCIu6+3K/XtfiA7H6hnHgdwS83ToQU0sVkBtCp6XPb0K43RiN8bfpCNkbgcMSSkAFFl4xuOC5tXpvL297RNVIEDBwCc8sQwtDA3LMMGtCoTymO01hoDyfzpWfURU4x3MWBQeXxRSKWFe809ztvfr8cckvVScEpZ+KCBF9nzL803JhWFb6mMppJEhtg4h2a79+R01buUsLW3djkwnWcgpPq6e5x83aGBzR6gDZa5sqF0RjOt8tOFsRPSKPmojO12qzy1SZfQ96lo5tTdwONkaRzHTsyu8Fqlpp5ZjmLOSmc01SQgzyJJthmtY9O2PSuPJm0Gfeafw0b0zNPfU6izzZ3BJTU7AHdsAgA08V6skFrOf1MYzfzTxmDQIBoyBYQXGRBcMNDAuz49Lh4Pjzs0KSpQwr8jdd4URvNicyZwvu0Y/nuCtwXj5hxo4GPDPS4eD6xuBp4mllbWsWmM9lGYODNSgGXLoDcBgfZsXx0t8JH3e1x8fcyQQtrq5f5OuedNYzRGewPTOO3ajt4uHTszLE9/Pvo6E8eWAr/65BVHk1TeItOaxmjGaYM8RpvCRj4cHQMNfMABjowU+Mbw5uupHOWklWLrTlXVgva5l+d48MytNQQ2z/8c1yE1han1WSsrVYbd4+jr7Jnu83jcPU18njLOm8bojTfPqv9ajljzMdteAmRPdj8jwN9cot3v9Ly68Mye0x3CeCygvucT3VMwbFx0Tve0+MrX2ePi8/nhaaPN1Ji0yt8t77xpohtfskHe+inCcwxwBVaDDdTj1Z/A1znPXv/8U1mNm2kraFqP3nnfDMG8NUdeI81rDFkp3aNPWMP1TiK4wfL7nmRpcy/uXoal23G/Y7NdGLwdwO7HR1/nzde6KeM8qzQowqyDOD8wETcDmsJoxNiI/TN0Un5p7mI1M8ibh9p9jqbYEIbEgr16Ia8elLPXURmTH75NQ5UvqF66rzOBgykw1y33CKWCNl7kp54pIq0popux1EyDhN74lm9IMG+2Ho3G6tdKW574aIxO+XvjvPVc76KBA5P/PDyxbKGucVZpUU0RIzd1Nm0bXFK2AHCHBgA0gTbNgNIZjWY5TiNMDLyDw9I4eq/PyqXZ2mKfJz4vg9HEqNnCgxWLRa7+1/xZQlwf1kMjmg08TpbG0dMA2uRp6P6ZRs9LZzS7AVjLxmjy4Nx0lW3tMHcJGqwFbD6eGn9reT7OM2xk2GSG6I+ntXfO+FbmjInz5l37IECPk88PDcyABG1YZFA2lMporEAWNwYixE5ZJIlHDDE3fK+QgohcOt/fzT+PezTXEC4V3JBfSriDV+mjX9dxf2hYLXnlN3s3dhLFamIenFL7jEEDH0d26Knqn1ZalQmlKmNEQlqve/7JfAc7a6IsdurRu2pfHG6MRtz+5WXd105jaybc984Z6v6sMlclIP8UZSzzWoAA/LGTQjgvjgdvCAk58v9xTYIDAYLgBG43Xtgz/70zNXb9+KCXQCMWE7CvSllQWo+ml7LmyWDOtKylWxpHHAF7qoZrcPe1dlb9aJYtNNfYQEGoLorO6T9Uoh9SuSxWVFj8Fjn3OSbsf8Y65s9cpPU7svLz8V2PA3u2eGeH5aVXz51mVyESNtX7sxyNnZXWo4+YmkWJEJf92J3piiK2zPT5lCphPoY7/USWOu9ijbBcowGIamljigLxENv4svc4IkyP0GxZ28WSGBavpwCtHcXrLS0DrRlDDOM1PY1ezoY2xJLbpjqpMnwaOGArwCUJbgxfqekZCwdYaMCiAaJTJkwNq1V8WUWdl8JoFreZxsl4xcLvFOCupMUb3Drdzmo73n9jOh8L2FmLzWJzlvZ0EfuU9MY4lMDc1s9vSbN9TSZ8WkWwyj1WlBADlheIzzMeCIo8+RshhRgxNG0/z7a80OZT3w3vYFoH7VjsVzSUIrrppQYP3Jzvd2XrRFv20hXgv8ieKuYIsU35Y+1TPYDzYcGvNFxXx1KAKRBSolbAGGPWNHC0rTDj59m9YfHsLNXTLktt/KxwRmPTNnMnS1FZH5wCrEJGfJgx539SuRpLQyS/9EwoA8XNlLd6SkW8GtQb3kRv9Q3NlhJbeXb83S9Uf1FaAdDO+wVCauP/hTPabwbH0pqUFQxROOGMrPKIWR+Bkt3p+zPvI0ec1wPgBG4G4GwKpKVxhEZ+GZKnoc/XyHmhjAYJ1h0bsHVECtBibTcEeh0B7GUAc9NNtw4l41nqjanUIjYppdbx2eMCbvZecPYb9/h8frMals2mGoTPX+95oYzefrds7TIrFJJKxSCRA0/Mqoloz/NPZ7l6ntViNpwwNdMB4mB6CFmNmLga/TIi1j/XC+DGQkKDA0+ys+5H5uu2qoMtL6BlkVCnMKr8ar9dBM6AFLDw3JwXmC79ArtU/ry0k/9J7+i4xi4JOAkwirCkFfPl1qPCRqxWH3ozKxU9QMyp/xFWeGIgYStICI0ShnUNFyJ2aNv8DdMm+XoD7EJE42a6Bu6jDkxPN9H8bSULde/t+1J1LJTRXswle7PWYHenubIArbdxzWiytHpjZgo50rBUXfXttLUNwrOtBL9KwIzg+u9XylH5HjiivbPdJYANPGVXYC5vjKaxFgkqwIoDb9lhh50UYBww8A4AS6v1SNDAkjm6OE17awpY4If58+IvZG5Bn4/7M88LBhpzLfr7nD/9WNh54cpvqCHljfhufdf4tA1staVd25F9Vgw8LS2tkWOhPXqoijyDlOKCGLRd6AkWWPWw5a7/iMQwqcFSVUyY66lVjHLZYCal7fu3YMhBI+bHeE9ECCIbSYHyhHGjKK8Y7wVX6oalDmvbhqooxrqJebTIv9EW/BcHhTIaQhukoiZsvCNPkbvaEh/dSIw0TgumQmVP8da8mNnU+XBLzGh0DANPS0tr5Fio6DYrFxUyQ0Fe5erxCOWVMdDSq+HsaeZpWQSehTLa92IUnRh8L0bU9sZvHJc5UK7B1W/m7mlhOHiaeVra/UaOhTLaLxNNKROMfSYecTTkGQ8aQai/PouRyLx00MCMKL6+nmaVdkj0z9R6XiijvXcm7ztPfj0wHiGPXK2VHmj5wPGwT2a19jTIUrt/Gytv1uLz13NeKKNNC6YC5qaMK8Pc+YWVIRUnw8f+Ofh+43ytco1fGxzNoQLueRvYeJp5WhZBi0IZ7a1h+FVTa5xxElx3bmYoIfritO+EbZZT21MVgWRflAEuB58Sdjm2CBPGXXD3jhKrG70emhnE/nFL7+2xUEYzd8XpDxAvZZagkJL9Y7Jk20ibp0IUxDjfqGSPLjZXHahA3cHhzPODuLZxGVxnaM+2mO4YP2zgFjeH6bOaHSB+vtp1ofNoXrbgmmysQQG55/rwKYG4Ihjx+YDKMZ/PdsHFiXDUZ8OWkliSsJzRslM9IC6vL69pqGyFydZTY8YHo4ivD/b4mT/OD1JkoZ9XTH3cty+nkXPtd8VvzD7le7q8ZlSo1urlYWd5+9hXSO3+TzAeEaNYpmLguZVqVSKon95ALFbK6hY/V+Y10yTiwbDtswvRdmPUuqaziBiYhdx2eRalEt/nmuc++e/Z5jyYXS/5m1TO3qeVsl831YEA7MBvk/68D5n5qmOGJMSW8Fg+VFYJsG+v0F5CuM4y7fGNWMUqvcfuYWIdqT2WvTuJ1a62jTQfRsO/vPjm6qHC/sNnGEymfzlfvFt96j2WxmgqwjcsGHcN0DR/q+NWLUAoDR4etNBawmpYVYGYXzK3uN5OryVGjF0MvVcur/7MjQk7olGbrSAvb1e6ytLJf9Z97dUtl4gQVlQ0lMpoKvsBFUE+oA7nP/tw1+OaxCa8w+5K7NHh0wbsaOQtSJ4oxF3R03FULNV3+d0FfL68c0KF+Pjp3keHnmvKUZwfxQonBYvqaGRPqgLKZw1rBaxkhBD7j5bSSK/XIa8MKJ3RiG4WrPm9PXHF4dvN+8ZGLYgSpIcYRQHi+xmm2fpncSCw9SJOf79A3eexc5wthAWz4MC8a3aPI25MvrOBYshw4d2JPl8t50iH4/66+yceUDyv0XHalvLUUk49eUpnNJUhXOfIs7tvz8xYBANu/1k2xaqn4j4vKzQQ8QQ0wHjTCywPrkF2LiRkyZtouc/89iAdYlgLbct67TnqiF1g6bwgkhu1PSOFCOSnQfk6Miu56aLymAw+TWG0EQ5iTlKG+6UzEI+pBEtY8j6VZM/XckRrZ5rC6kT7PoU9R69k03M+TArwwVHyxdIAnzD5iEdPOR7C07X/E7LEGqv99RfjfrMyOG8RQu1vqJ6zqYymOqxYPFoVEP9pAdLpPSgyII1orDQVI381QIrw4RW+pRXvPGDOBDNJWlmMt/R6wm4bFaFMmRhaaNxIG9+DeR9DAJ9UaNZGNU1ntBGVpSd8P2PYCEvJjojaJxYFYrAWa/XyxggPwXmX35oxe5ta8vQd7HxPA+st0LDAhRg2ho+d9u05FFA2uLB6pDfRpDzfW+gzRluF6XWINR9HZvfsCOO7DCXKEMyr9Wq4Vg4964ipWQQqy3jnTguSxPLUeuwKx9WZAB46DCYoWPEY78tiIR3Dkw/S9/fLPu9zRhuCGPT5PjTTjVqWvaCxQzR+9JJagZ5nuxAw361HRNNjaZj8aonQRDNnOkkAY9F261rxtXz9htFWIY7skIu4JVKSOXOsVPm8nENQ/LtYoapNo+Jnq10z7cJax7y6WgNEiWNuzZJZhoFqi++rvbvI+/2S0TGCiEkYzo8YbsbBlF2ZeCy2xLhrRn29PH4f1/TecScG40lqRQjKImP7igfWGk6UwUXMGlJ1KSJtQDA6RnTI+rrS4YAQdO8/eejzMf/FmZC3cZ3P689R2HCuoFDFgK6wbIE2plvCl+v6u0fN1x9GD/EJA+GcQHrGPn6YEnENsvrQhy6xHJcf2i2f9K1myWLn/MOn6FRIZwMx4BvGTo8tvR7TbVxOX18POEZ7gkH4xbPDD82X9U1+JSKMo9djCmU3BQt0sDKwVo3XqRemTz/XRUnrGgauKt6TZO9u9lF9KMX7o5uNhH8fGvyhHw/atXdKMIbO/u/g4SI/zpaJZ6ltW3UAAxi8ZJ5az67oe03Z6lTEcUCO0bUiTlDexDOC9u6feUTFOa07FtNsQ8GuC/VM13y5/fl8QI7RtRKUvUF+/rXgOZukPde2VWb/Lw9Mi27Wnl7rboX+2YF0PqDH6FoIjQsQ2zKfNsaJYeIc3zXOi7n/O7CVrFpoQJ6WZzRIorTd+BPttSq2J39OLWLK5Fnnq2FDxXW7QFsw2piJxara5xIsb6sd1frbgXagQIfR7cBlxbHD6A6j24QCbYJmp0d3GN0mFGgTNDs9usPoNqFAm6DZ6dEdRrcJBdoEzU6P7jC6TSjQJmh2enSH0W1CgTZBs9OjO4xuEwq0CZqdHt0mjP5/OJSBS2EtcFoAAAAASUVORK5CYII=;fontColor=#FFFFFF;" vertex="1" parent="fBxkdswX3Kox4M81FrW5-1">
          <mxGeometry x="-20" y="125" width="61" height="60" as="geometry" />
        </mxCell>
        <mxCell id="fBxkdswX3Kox4M81FrW5-21" style="edgeStyle=orthogonalEdgeStyle;rounded=0;orthogonalLoop=1;jettySize=auto;html=1;entryX=-0.007;entryY=0.328;entryDx=0;entryDy=0;entryPerimeter=0;strokeColor=#FFFFFF;" edge="1" parent="fBxkdswX3Kox4M81FrW5-1" source="fBxkdswX3Kox4M81FrW5-14" target="fBxkdswX3Kox4M81FrW5-4">
          <mxGeometry relative="1" as="geometry" />
        </mxCell>
        <mxCell id="fBxkdswX3Kox4M81FrW5-23" style="edgeStyle=orthogonalEdgeStyle;rounded=0;orthogonalLoop=1;jettySize=auto;html=1;entryX=0;entryY=0.5;entryDx=0;entryDy=0;strokeColor=#FFFFFF;" edge="1" parent="1" source="fBxkdswX3Kox4M81FrW5-22" target="fBxkdswX3Kox4M81FrW5-17">
          <mxGeometry relative="1" as="geometry" />
        </mxCell>
        <mxCell id="fBxkdswX3Kox4M81FrW5-22" value="&lt;font color=&quot;#ffffff&quot;&gt;Users&lt;/font&gt;" style="sketch=0;outlineConnect=0;fontColor=#232F3E;gradientColor=none;fillColor=#FFFFFF;strokeColor=none;dashed=0;verticalLabelPosition=bottom;verticalAlign=top;align=center;html=1;fontSize=12;fontStyle=0;aspect=fixed;pointerEvents=1;shape=mxgraph.aws4.users;" vertex="1" parent="1">
          <mxGeometry x="12" y="341" width="78" height="78" as="geometry" />
        </mxCell>
      </root>
    </mxGraphModel>
  </diagram>
</mxfile>
